#N canvas 885 263 577 447 10;
#X obj 111 109 vu 15 120 empty empty -1 -8 0 10 -66577 -262144 1 0
;
#X obj 137 109 vu 15 120 empty empty -1 -8 0 10 -66577 -1 1 0;
#X obj 150 75 - 100;
#X obj 111 76 - 100;
#X obj 198 76 outlet~;
#X obj 252 76 outlet~;
#X obj 105 44 env~;
#X obj 146 43 env~;
#X obj 99 15 inlet~;
#X obj 145 14 inlet~;
#X connect 2 0 1 0;
#X connect 3 0 0 0;
#X connect 6 0 3 0;
#X connect 7 0 2 0;
#X connect 8 0 6 0;
#X connect 8 0 4 0;
#X connect 9 0 7 0;
#X connect 9 0 5 0;
#X coords 0 -1 1 1 95 140 2 100 100;
