#N canvas 307 16 898 578 10;
#X obj 96 40 tgl 30 0 empty empty empty 17 7 0 10 -262144 -1 -1 0 1
;
#X floatatom 96 225 5 0 0 0 - - -;
#X obj 39 289 bng 15 250 50 0 empty empty empty 17 7 0 10 -262144 -1
-1;
#X obj 59 289 bng 15 250 50 0 empty empty empty 17 7 0 10 -262144 -1
-1;
#X obj 79 289 bng 15 250 50 0 empty empty empty 17 7 0 10 -262144 -1
-1;
#X obj 99 289 bng 15 250 50 0 empty empty empty 17 7 0 10 -262144 -1
-1;
#X obj 129 289 bng 15 250 50 0 empty empty empty 17 7 0 10 -262144
-1 -1;
#X obj 149 289 bng 15 250 50 0 empty empty empty 17 7 0 10 -262144
-1 -1;
#X obj 169 289 bng 15 250 50 0 empty empty empty 17 7 0 10 -262144
-1 -1;
#X obj 189 289 bng 15 250 50 0 empty empty empty 17 7 0 10 -262144
-1 -1;
#X obj 219 289 bng 15 250 50 0 empty empty empty 17 7 0 10 -262144
-1 -1;
#X obj 239 289 bng 15 250 50 0 empty empty empty 17 7 0 10 -262144
-1 -1;
#X obj 259 289 bng 15 250 50 0 empty empty empty 17 7 0 10 -262144
-1 -1;
#X obj 279 289 bng 15 250 50 0 empty empty empty 17 7 0 10 -262144
-1 -1;
#X obj 309 289 bng 15 250 50 0 empty empty empty 17 7 0 10 -262144
-1 -1;
#X obj 329 289 bng 15 250 50 0 empty empty empty 17 7 0 10 -262144
-1 -1;
#X obj 349 289 bng 15 250 50 0 empty empty empty 17 7 0 10 -262144
-1 -1;
#X obj 369 289 bng 15 250 50 0 empty empty empty 17 7 0 10 -262144
-1 -1;
#X obj 96 180 metro 100;
#X obj 130 490 s \$0metalvol;
#X obj 130 410 vsl 20 40 0 3 0 0 empty empty empty 0 -9 0 10 -262144
-1 -1 0 1;
#X obj 177 410 vsl 20 40 0 3 0 0 empty empty empty 0 -9 0 10 -262144
-1 -1 3200 1;
#X obj 136 470 s \$0woodvol;
#X obj 223 409 vsl 20 40 0 3 0 0 empty empty empty 0 -9 0 10 -262144
-1 -1 0 1;
#X obj 211 491 s \$0plasticvol;
#X obj 268 409 vsl 20 40 0 3 0 0 empty empty empty 0 -9 0 10 -262144
-1 -1 3500 1;
#X obj 223 469 s \$0chinavol;
#N canvas 197 82 602 425 m 0;
#X msg 24 108 3454 5645 6433 6999 600;
#X floatatom 25 28 5 0 0 0 - - -;
#X obj 257 210 dac~;
#X obj 257 186 *~ 1;
#X obj 25 80 bng 15 250 50 0 empty empty empty 17 7 0 10 -262144 -1
-1;
#X obj 45 80 bng 15 250 50 0 empty empty empty 17 7 0 10 -262144 -1
-1;
#X obj 65 80 bng 15 250 50 0 empty empty empty 17 7 0 10 -262144 -1
-1;
#X obj 85 80 bng 15 250 50 0 empty empty empty 17 7 0 10 -262144 -1
-1;
#X obj 105 80 bng 15 250 50 0 empty empty empty 17 7 0 10 -262144 -1
-1;
#X obj 125 80 bng 15 250 50 0 empty empty empty 17 7 0 10 -262144 -1
-1;
#X obj 25 4 counter 0 5;
#X obj 25 52 sel 0 1 2 3 4;
#X obj 25 -26 inlet;
#X obj 400 21 noise~;
#X obj 385 44 *~;
#X obj 197 86 bp~ 440 80;
#X obj 275 86 bp~ 440 80;
#X obj 352 86 bp~ 440 80;
#X obj 430 86 bp~ 440 80;
#X obj 384 1 ead~ 0 120;
#X obj 197 -30 unpack 1 2 3 4 5;
#X obj 384 -20 t;
#X msg 24 128 4354 5545 6233 6799 660;
#X msg 24 149 6354 4545 4233 7799 660;
#X msg 24 171 3854 5145 6933 6199 300;
#X msg 24 191 3854 5145 3933 6199 300;
#X msg 24 211 3854 5945 3233 6599 500;
#X obj 302 184 r \$0metalvol;
#X floatatom 302 206 5 0 0 0 - - -;
#X text 337 206 volume vrednost;
#X text 380 177 primanje vrednosti iz glavnog fajla;
#X connect 0 0 20 0;
#X connect 1 0 11 0;
#X connect 3 0 2 0;
#X connect 3 0 2 1;
#X connect 4 0 0 0;
#X connect 5 0 22 0;
#X connect 6 0 23 0;
#X connect 7 0 24 0;
#X connect 8 0 25 0;
#X connect 9 0 26 0;
#X connect 10 0 1 0;
#X connect 11 0 4 0;
#X connect 11 1 5 0;
#X connect 11 2 6 0;
#X connect 11 3 7 0;
#X connect 11 4 8 0;
#X connect 11 5 9 0;
#X connect 12 0 10 0;
#X connect 13 0 14 1;
#X connect 14 0 15 0;
#X connect 14 0 16 0;
#X connect 14 0 17 0;
#X connect 14 0 18 0;
#X connect 15 0 3 0;
#X connect 16 0 3 0;
#X connect 17 0 3 0;
#X connect 18 0 3 0;
#X connect 19 0 14 0;
#X connect 20 0 15 1;
#X connect 20 1 16 1;
#X connect 20 2 17 1;
#X connect 20 3 18 1;
#X connect 20 4 21 0;
#X connect 20 4 15 2;
#X connect 20 4 16 2;
#X connect 20 4 17 2;
#X connect 20 4 18 2;
#X connect 21 0 19 0;
#X connect 22 0 20 0;
#X connect 23 0 20 0;
#X connect 24 0 20 0;
#X connect 25 0 20 0;
#X connect 26 0 20 0;
#X connect 27 0 3 1;
#X connect 27 0 28 0;
#X restore 127 372 pd m;
#N canvas 429 71 606 485 w 0;
#X floatatom 29 57 5 0 0 0 - - -;
#X obj 261 239 dac~;
#X obj 261 215 *~ 1;
#X obj 29 109 bng 15 250 50 0 empty empty empty 17 7 0 10 -262144 -1
-1;
#X obj 49 109 bng 15 250 50 0 empty empty empty 17 7 0 10 -262144 -1
-1;
#X obj 69 109 bng 15 250 50 0 empty empty empty 17 7 0 10 -262144 -1
-1;
#X obj 89 109 bng 15 250 50 0 empty empty empty 17 7 0 10 -262144 -1
-1;
#X obj 109 109 bng 15 250 50 0 empty empty empty 17 7 0 10 -262144
-1 -1;
#X obj 129 109 bng 15 250 50 0 empty empty empty 17 7 0 10 -262144
-1 -1;
#X obj 29 33 counter 0 5;
#X obj 29 81 sel 0 1 2 3 4;
#X obj 29 3 inlet;
#X obj 404 50 noise~;
#X obj 389 73 *~;
#X obj 201 115 bp~ 440 80;
#X obj 279 115 bp~ 440 80;
#X obj 356 115 bp~ 440 80;
#X obj 434 115 bp~ 440 80;
#X obj 388 30 ead~ 0 120;
#X obj 201 -1 unpack 1 2 3 4 5;
#X obj 388 9 t;
#X floatatom 306 235 5 0 0 0 - - -;
#X text 341 235 volume vrednost;
#X text 384 206 primanje vrednosti iz glavnog fajla;
#X obj 306 213 r \$0woodvol;
#X msg 43 215 221 333 426 527 40;
#X msg 43 235 321 366 626 337 50;
#X msg 43 256 222 333 444 555 55;
#X msg 43 278 299 340 435 500 30;
#X msg 43 298 200 434 333 545 44;
#X msg 43 318 400 343 234 434 60;
#X connect 0 0 10 0;
#X connect 2 0 1 0;
#X connect 2 0 1 1;
#X connect 3 0 25 0;
#X connect 4 0 26 0;
#X connect 5 0 27 0;
#X connect 6 0 28 0;
#X connect 7 0 29 0;
#X connect 8 0 30 0;
#X connect 9 0 0 0;
#X connect 10 0 3 0;
#X connect 10 1 4 0;
#X connect 10 2 5 0;
#X connect 10 3 6 0;
#X connect 10 4 7 0;
#X connect 10 5 8 0;
#X connect 11 0 9 0;
#X connect 12 0 13 1;
#X connect 13 0 14 0;
#X connect 13 0 15 0;
#X connect 13 0 16 0;
#X connect 13 0 17 0;
#X connect 14 0 2 0;
#X connect 15 0 2 0;
#X connect 16 0 2 0;
#X connect 17 0 2 0;
#X connect 18 0 13 0;
#X connect 19 0 14 1;
#X connect 19 1 15 1;
#X connect 19 2 16 1;
#X connect 19 3 17 1;
#X connect 19 4 20 0;
#X connect 19 4 14 2;
#X connect 19 4 15 2;
#X connect 19 4 16 2;
#X connect 19 4 17 2;
#X connect 20 0 18 0;
#X connect 24 0 2 1;
#X connect 24 0 21 0;
#X connect 25 0 19 0;
#X connect 26 0 19 0;
#X connect 27 0 19 0;
#X connect 28 0 19 0;
#X connect 29 0 19 0;
#X connect 30 0 19 0;
#X restore 172 372 pd w;
#N canvas 621 93 511 381 c 0;
#X floatatom 14 66 5 0 0 0 - - -;
#X obj 246 248 dac~;
#X obj 246 224 *~ 1;
#X obj 14 118 bng 15 250 50 0 empty empty empty 17 7 0 10 -262144 -1
-1;
#X obj 34 118 bng 15 250 50 0 empty empty empty 17 7 0 10 -262144 -1
-1;
#X obj 54 118 bng 15 250 50 0 empty empty empty 17 7 0 10 -262144 -1
-1;
#X obj 74 118 bng 15 250 50 0 empty empty empty 17 7 0 10 -262144 -1
-1;
#X obj 94 118 bng 15 250 50 0 empty empty empty 17 7 0 10 -262144 -1
-1;
#X obj 114 118 bng 15 250 50 0 empty empty empty 17 7 0 10 -262144
-1 -1;
#X obj 14 42 counter 0 5;
#X obj 14 90 sel 0 1 2 3 4;
#X obj 14 12 inlet;
#X obj 389 59 noise~;
#X obj 374 82 *~;
#X obj 186 124 bp~ 440 80;
#X obj 264 124 bp~ 440 80;
#X obj 341 124 bp~ 440 80;
#X obj 419 124 bp~ 440 80;
#X obj 373 39 ead~ 0 120;
#X obj 186 8 unpack 1 2 3 4 5;
#X obj 373 18 t;
#X floatatom 291 244 5 0 0 0 - - -;
#X text 326 244 volume vrednost;
#X text 382 215 primanje vrednosti iz glavnog fajla;
#X msg 28 224 1245 1503 2131 2575 100;
#X msg 28 244 1250 1500 2150 2550 110;
#X obj 291 222 r \$0chinavol;
#X msg 28 265 1222 1444 2222 2555 111;
#X msg 28 287 1500 1500 2000 2500 130;
#X msg 28 307 1400 1444 2222 2999 100;
#X msg 28 327 1100 1300 3222 2000 100;
#X connect 0 0 10 0;
#X connect 2 0 1 0;
#X connect 2 0 1 1;
#X connect 3 0 24 0;
#X connect 4 0 25 0;
#X connect 5 0 27 0;
#X connect 6 0 28 0;
#X connect 7 0 29 0;
#X connect 8 0 30 0;
#X connect 9 0 0 0;
#X connect 10 0 3 0;
#X connect 10 1 4 0;
#X connect 10 2 5 0;
#X connect 10 3 6 0;
#X connect 10 4 7 0;
#X connect 10 5 8 0;
#X connect 11 0 9 0;
#X connect 12 0 13 1;
#X connect 13 0 14 0;
#X connect 13 0 15 0;
#X connect 13 0 16 0;
#X connect 13 0 17 0;
#X connect 14 0 2 0;
#X connect 15 0 2 0;
#X connect 16 0 2 0;
#X connect 17 0 2 0;
#X connect 18 0 13 0;
#X connect 19 0 14 1;
#X connect 19 1 15 1;
#X connect 19 2 16 1;
#X connect 19 3 17 1;
#X connect 19 4 20 0;
#X connect 19 4 14 2;
#X connect 19 4 15 2;
#X connect 19 4 16 2;
#X connect 19 4 17 2;
#X connect 20 0 18 0;
#X connect 24 0 19 0;
#X connect 25 0 19 0;
#X connect 26 0 2 1;
#X connect 26 0 21 0;
#X connect 27 0 19 0;
#X connect 28 0 19 0;
#X connect 29 0 19 0;
#X connect 30 0 19 0;
#X restore 219 371 pd c;
#N canvas 567 102 511 357 p 0;
#X floatatom 22 66 5 0 0 0 - - -;
#X obj 254 248 dac~;
#X obj 254 224 *~ 1;
#X obj 22 118 bng 15 250 50 0 empty empty empty 17 7 0 10 -262144 -1
-1;
#X obj 42 118 bng 15 250 50 0 empty empty empty 17 7 0 10 -262144 -1
-1;
#X obj 62 118 bng 15 250 50 0 empty empty empty 17 7 0 10 -262144 -1
-1;
#X obj 82 118 bng 15 250 50 0 empty empty empty 17 7 0 10 -262144 -1
-1;
#X obj 102 118 bng 15 250 50 0 empty empty empty 17 7 0 10 -262144
-1 -1;
#X obj 122 118 bng 15 250 50 0 empty empty empty 17 7 0 10 -262144
-1 -1;
#X obj 22 42 counter 0 5;
#X obj 22 90 sel 0 1 2 3 4;
#X obj 22 12 inlet;
#X obj 397 59 noise~;
#X obj 382 82 *~;
#X obj 194 124 bp~ 440 80;
#X obj 272 124 bp~ 440 80;
#X obj 349 124 bp~ 440 80;
#X obj 427 124 bp~ 440 80;
#X obj 381 39 ead~ 0 120;
#X obj 194 8 unpack 1 2 3 4 5;
#X obj 381 18 t;
#X floatatom 299 244 5 0 0 0 - - -;
#X text 334 244 volume vrednost;
#X obj 299 222 r \$0plasticvol;
#X msg 36 224 627 781 972 1184 70;
#X msg 36 244 727 583 894 1000 60;
#X msg 36 265 666 555 888 1000 50;
#X msg 36 287 600 500 800 900 40;
#X msg 36 307 650 750 950 1150 70;
#X msg 36 327 652 743 923 1345 70;
#X text 390 216 primanje vrednosti iz glavnog fajla;
#X connect 0 0 10 0;
#X connect 2 0 1 0;
#X connect 2 0 1 1;
#X connect 3 0 24 0;
#X connect 4 0 25 0;
#X connect 5 0 26 0;
#X connect 6 0 27 0;
#X connect 7 0 28 0;
#X connect 8 0 29 0;
#X connect 9 0 0 0;
#X connect 10 0 3 0;
#X connect 10 1 4 0;
#X connect 10 2 5 0;
#X connect 10 3 6 0;
#X connect 10 4 7 0;
#X connect 10 5 8 0;
#X connect 11 0 9 0;
#X connect 12 0 13 1;
#X connect 13 0 14 0;
#X connect 13 0 15 0;
#X connect 13 0 16 0;
#X connect 13 0 17 0;
#X connect 14 0 2 0;
#X connect 15 0 2 0;
#X connect 16 0 2 0;
#X connect 17 0 2 0;
#X connect 18 0 13 0;
#X connect 19 0 14 1;
#X connect 19 1 15 1;
#X connect 19 2 16 1;
#X connect 19 3 17 1;
#X connect 19 4 20 0;
#X connect 19 4 14 2;
#X connect 19 4 15 2;
#X connect 19 4 16 2;
#X connect 19 4 17 2;
#X connect 20 0 18 0;
#X connect 23 0 2 1;
#X connect 23 0 21 0;
#X connect 24 0 19 0;
#X connect 25 0 19 0;
#X connect 26 0 19 0;
#X connect 27 0 19 0;
#X connect 28 0 19 0;
#X connect 29 0 19 0;
#X restore 266 371 pd p;
#X text 290 439 volume;
#X floatatom 164 180 5 0 0 0 - - -;
#X obj 200 159 + 1;
#X obj 164 38 bng 30 250 50 0 empty empty empty 17 7 0 10 -262144 -1
-1;
#X obj 164 159 f;
#X obj 96 247 sel 0 1 2 3 4 5 6 7 8 9 10 11 12 13 14;
#X obj 200 179 mod 16;
#X text 125 389 metal;
#X text 172 389 wood;
#X text 216 389 china;
#X text 258 388 plastic;
#X text 298 365 connect with bng;
#X text 164 22 STEP;
#X obj 130 27 vsl 30 40 15 500 0 0 empty empty empty 0 -9 0 10 -262144
-1 -1 0 1;
#X text 128 7 TEMPO;
#X floatatom 104 161 5 0 0 0 - - -;
#X text 94 23 ONOFF;
#X obj 419 538 dac~;
#X obj 421 483 cycle~;
#X obj 420 509 *~ 0.1;
#X floatatom 422 354 5 0 0 0 - - -;
#X floatatom 458 354 5 0 0 0 - - -;
#X floatatom 496 356 5 0 0 0 - - -;
#X floatatom 535 356 5 0 0 0 - - -;
#X floatatom 430 377 5 0 0 0 - - -;
#X floatatom 469 378 5 0 0 0 - - -;
#X floatatom 508 378 5 0 0 0 - - -;
#X floatatom 547 379 5 0 0 0 - - -;
#X obj 425 153 vsl 15 128 1 500 0 0 empty empty empty 0 -9 0 10 -262144
-1 -1 10000 1;
#X obj 446 153 vsl 15 128 1 500 0 0 empty empty empty 0 -9 0 10 -262144
-1 -1 1700 1;
#X obj 466 153 vsl 15 128 1 500 0 0 empty empty empty 0 -9 0 10 -262144
-1 -1 0 1;
#X obj 486 153 vsl 15 128 1 500 0 0 empty empty empty 0 -9 0 10 -262144
-1 -1 7100 1;
#X obj 527 153 vsl 15 128 1 500 0 0 empty empty empty 0 -9 0 10 -262144
-1 -1 8300 1;
#X obj 546 153 vsl 15 128 1 500 0 0 empty empty empty 0 -9 0 10 -262144
-1 -1 0 1;
#X obj 566 153 vsl 15 128 1 500 0 0 empty empty empty 0 -9 0 10 -262144
-1 -1 2900 1;
#X obj 586 153 vsl 15 128 1 500 0 0 empty empty empty 0 -9 0 10 -262144
-1 -1 4900 1;
#X obj 625 153 vsl 15 128 1 500 0 0 empty empty empty 0 -9 0 10 -262144
-1 -1 1500 1;
#X obj 646 153 vsl 15 128 1 500 0 0 empty empty empty 0 -9 0 10 -262144
-1 -1 11900 1;
#X obj 666 153 vsl 15 128 1 500 0 0 empty empty empty 0 -9 0 10 -262144
-1 -1 9400 1;
#X obj 686 153 vsl 15 128 1 500 0 0 empty empty empty 0 -9 0 10 -262144
-1 -1 0 1;
#X obj 727 153 vsl 15 128 1 500 0 0 empty empty empty 0 -9 0 10 -262144
-1 -1 7300 1;
#X obj 746 153 vsl 15 128 1 500 0 0 empty empty empty 0 -9 0 10 -262144
-1 -1 10700 1;
#X obj 766 152 vsl 15 128 1 500 0 0 empty empty empty 0 -9 0 10 -262144
-1 -1 0 1;
#X obj 425 289 bng 15 250 50 0 empty empty empty 17 7 0 10 -262144
-1 -1;
#X floatatom 442 398 5 0 0 0 - - -;
#X floatatom 481 399 5 0 0 0 - - -;
#X floatatom 520 399 5 0 0 0 - - -;
#X floatatom 559 400 5 0 0 0 - - -;
#X floatatom 452 421 5 0 0 0 - - -;
#X floatatom 491 422 5 0 0 0 - - -;
#X floatatom 529 423 5 0 0 0 - - -;
#X obj 444 288 bng 15 250 50 0 empty empty empty 17 7 0 10 -262144
-1 -1;
#X obj 464 288 bng 15 250 50 0 empty empty empty 17 7 0 10 -262144
-1 -1;
#X obj 484 288 bng 15 250 50 0 empty empty empty 17 7 0 10 -262144
-1 -1;
#X obj 526 289 bng 15 250 50 0 empty empty empty 17 7 0 10 -262144
-1 -1;
#X obj 545 288 bng 15 250 50 0 empty empty empty 17 7 0 10 -262144
-1 -1;
#X obj 565 288 bng 15 250 50 0 empty empty empty 17 7 0 10 -262144
-1 -1;
#X obj 585 288 bng 15 250 50 0 empty empty empty 17 7 0 10 -262144
-1 -1;
#X obj 626 289 bng 15 250 50 0 empty empty empty 17 7 0 10 -262144
-1 -1;
#X obj 645 288 bng 15 250 50 0 empty empty empty 17 7 0 10 -262144
-1 -1;
#X obj 665 288 bng 15 250 50 0 empty empty empty 17 7 0 10 -262144
-1 -1;
#X obj 685 288 bng 15 250 50 0 empty empty empty 17 7 0 10 -262144
-1 -1;
#X obj 728 289 bng 15 250 50 0 empty empty empty 17 7 0 10 -262144
-1 -1;
#X obj 747 288 bng 15 250 50 0 empty empty empty 17 7 0 10 -262144
-1 -1;
#X obj 767 288 bng 15 250 50 0 empty empty empty 17 7 0 10 -262144
-1 -1;
#X obj 210 228 bng 15 250 50 0 empty empty empty 17 7 0 10 -262144
-1 -1;
#X text 231 227 change direction;
#X msg 225 52 50;
#X msg 257 52 100;
#X msg 290 51 150;
#X msg 322 52 300;
#X msg 527 125 0;
#X msg 545 125 0;
#X msg 567 125 0;
#X msg 587 125 0;
#X msg 425 125 0;
#X msg 443 125 0;
#X msg 465 125 0;
#X msg 485 125 0;
#X msg 625 125 0;
#X msg 643 125 0;
#X msg 665 125 0;
#X msg 685 125 0;
#X msg 727 125 0;
#X msg 745 125 0;
#X msg 767 125 0;
#X text 424 103 set to 0;
#X obj 96 202 counter 0 15;
#X obj 468 485 vsl 30 50 0 0.3 0 0 empty empty empty 0 -9 0 10 -262144
-1 -1 0 1;
#X obj 785 152 vsl 15 128 1 500 0 0 empty empty empty 0 -9 0 10 -262144
-1 -1 2200 1;
#X obj 787 288 bng 15 250 50 0 empty empty empty 17 7 0 10 -262144
-1 -1;
#X msg 788 125 0;
#X floatatom 568 423 5 0 0 0 - - -;
#X obj 420 328 sel 0 1 2 3 4 5 6 7 8 9 10 11 12 13 14 15;
#X text 800 257 - 50;
#X text 800 243 - 100;
#X text 800 232 - 150;
#X text 800 195 - 300;
#X text 800 141 - 500;
#X text 800 168 - 400;
#X text 585 480 LOMZ 2014;
#X connect 0 0 18 0;
#X connect 1 0 36 0;
#X connect 1 0 124 0;
#X connect 2 0 30 0;
#X connect 5 0 28 0;
#X connect 6 0 30 0;
#X connect 8 0 29 0;
#X connect 10 0 27 0;
#X connect 12 0 29 0;
#X connect 14 0 28 0;
#X connect 15 0 29 0;
#X connect 16 0 30 0;
#X connect 18 0 118 0;
#X connect 20 0 19 0;
#X connect 21 0 22 0;
#X connect 23 0 24 0;
#X connect 25 0 26 0;
#X connect 32 0 118 4;
#X connect 33 0 37 0;
#X connect 34 0 35 0;
#X connect 35 0 32 0;
#X connect 35 0 33 0;
#X connect 36 0 2 0;
#X connect 36 1 3 0;
#X connect 36 2 4 0;
#X connect 36 3 5 0;
#X connect 36 4 6 0;
#X connect 36 5 7 0;
#X connect 36 6 8 0;
#X connect 36 7 9 0;
#X connect 36 8 10 0;
#X connect 36 9 11 0;
#X connect 36 10 12 0;
#X connect 36 11 13 0;
#X connect 36 12 14 0;
#X connect 36 13 15 0;
#X connect 36 14 16 0;
#X connect 36 15 17 0;
#X connect 37 0 35 1;
#X connect 44 0 18 1;
#X connect 44 0 46 0;
#X connect 49 0 50 0;
#X connect 50 0 48 0;
#X connect 50 0 48 1;
#X connect 51 0 49 0;
#X connect 52 0 49 0;
#X connect 53 0 49 0;
#X connect 54 0 49 0;
#X connect 55 0 49 0;
#X connect 56 0 49 0;
#X connect 57 0 49 0;
#X connect 58 0 49 0;
#X connect 59 0 51 0;
#X connect 60 0 52 0;
#X connect 61 0 53 0;
#X connect 62 0 54 0;
#X connect 63 0 55 0;
#X connect 64 0 56 0;
#X connect 65 0 57 0;
#X connect 66 0 58 0;
#X connect 67 0 75 0;
#X connect 68 0 76 0;
#X connect 69 0 77 0;
#X connect 70 0 78 0;
#X connect 71 0 79 0;
#X connect 72 0 80 0;
#X connect 73 0 81 0;
#X connect 75 0 49 0;
#X connect 76 0 49 0;
#X connect 77 0 49 0;
#X connect 78 0 49 0;
#X connect 79 0 49 0;
#X connect 80 0 49 0;
#X connect 81 0 49 0;
#X connect 96 0 118 1;
#X connect 98 0 18 1;
#X connect 99 0 18 1;
#X connect 100 0 18 1;
#X connect 101 0 18 1;
#X connect 102 0 63 0;
#X connect 103 0 64 0;
#X connect 104 0 65 0;
#X connect 105 0 66 0;
#X connect 106 0 59 0;
#X connect 107 0 60 0;
#X connect 108 0 61 0;
#X connect 109 0 62 0;
#X connect 110 0 67 0;
#X connect 111 0 68 0;
#X connect 112 0 69 0;
#X connect 113 0 70 0;
#X connect 114 0 71 0;
#X connect 115 0 72 0;
#X connect 116 0 73 0;
#X connect 118 0 1 0;
#X connect 119 0 50 1;
#X connect 120 0 123 0;
#X connect 122 0 120 0;
#X connect 123 0 49 0;
#X connect 124 0 51 0;
#X connect 124 0 74 0;
#X connect 124 1 52 0;
#X connect 124 1 82 0;
#X connect 124 2 53 0;
#X connect 124 2 83 0;
#X connect 124 3 54 0;
#X connect 124 3 84 0;
#X connect 124 4 55 0;
#X connect 124 4 85 0;
#X connect 124 5 56 0;
#X connect 124 5 86 0;
#X connect 124 6 57 0;
#X connect 124 6 87 0;
#X connect 124 7 58 0;
#X connect 124 7 88 0;
#X connect 124 8 75 0;
#X connect 124 8 89 0;
#X connect 124 9 76 0;
#X connect 124 9 90 0;
#X connect 124 10 77 0;
#X connect 124 10 91 0;
#X connect 124 11 78 0;
#X connect 124 11 92 0;
#X connect 124 12 79 0;
#X connect 124 12 93 0;
#X connect 124 13 80 0;
#X connect 124 13 94 0;
#X connect 124 14 81 0;
#X connect 124 14 95 0;
#X connect 124 15 121 0;
#X connect 124 15 123 0;
#X coords 0 578 1 577 300 60 0;
