#N canvas 50 9 1086 536 10;
#X obj 467 477 dac~;
#X obj 261 269 *~;
#X obj 260 241 osc~ 440;
#X obj 260 214 +~;
#X obj 260 163 osc~;
#X floatatom 260 139 5 0 0 0 - - -;
#X obj 259 188 *~;
#X obj 488 331 *~;
#X obj 487 303 osc~ 440;
#X obj 487 276 +~;
#X obj 487 225 osc~;
#X floatatom 487 201 5 0 0 0 - - -;
#X obj 486 250 *~;
#X obj 487 110 tgl 15 0 empty empty empty 17 7 0 10 -262144 -1 -1 0
1;
#X obj 541 103 hsl 128 15 15 500 0 0 empty empty empty -2 -8 0 10 -262144
-1 -1 0 1;
#X obj 487 177 + 100;
#X obj 603 263 knob 32 32 0 0.5 0 0 empty empty empty 0 -8 0 8 -262144
-1 -1 0 1;
#X obj 603 330 line~;
#X msg 603 306 \$1 500;
#X obj 487 130 metro 600;
#X obj 349 307 line~;
#X msg 349 285 \$1 500;
#X floatatom 531 249 5 0 0 0 - - -;
#X obj 534 229 hsl 128 15 0 300 0 0 empty empty empty -2 -8 0 10 -262144
-1 -1 0 1;
#X floatatom 304 169 5 0 0 0 - - -;
#X obj 307 149 hsl 128 15 0 500 0 0 empty empty empty -2 -8 0 10 -262144
-1 -1 10100 1;
#X obj 307 114 hsl 128 15 100 500 0 0 empty empty empty -2 -8 0 10
-262144 -1 -1 8100 1;
#X obj 539 192 hsl 128 15 0 127 0 0 empty empty empty -2 -8 0 10 -262144
-1 -1 0 1;
#X obj 44 265 *~;
#X obj 43 237 osc~ 440;
#X obj 43 210 +~;
#X obj 43 159 osc~;
#X floatatom 43 135 5 0 0 0 - - -;
#X obj 42 184 *~;
#X obj 140 197 knob 32 32 0 0.5 0 0 empty empty empty 0 -8 0 8 -262144
-1 -1 2700 1;
#X obj 140 262 line~;
#X msg 140 240 \$1 500;
#X floatatom 87 165 5 0 0 0 - - -;
#X obj 90 145 hsl 128 15 0 500 0 0 empty empty empty -2 -8 0 10 -262144
-1 -1 7400 1;
#X obj 90 110 hsl 128 15 100 500 0 0 empty empty empty -2 -8 0 10 -262144
-1 -1 4400 1;
#X text 317 95 visina zvuka;
#X text 85 92 visina zvuka;
#X text 534 175 visina zvuka;
#X text 540 85 tempo;
#X obj 410 181 tgl 15 0 empty empty empty 17 7 0 10 -262144 -1 -1 1
1;
#X obj 410 201 metro 600;
#X text 421 178 comment;
#X floatatom 410 251 5 0 0 0 - - -;
#X obj 410 226 random 5;
#X obj 487 155 random 100;
#X floatatom 411 306 5 0 0 0 - - -;
#X obj 411 278 * 0.1;
#X obj 685 183 tgl 15 0 empty empty empty 17 7 0 10 -262144 -1 -1 0
1;
#X floatatom 685 253 5 0 0 0 - - -;
#X floatatom 685 305 5 0 0 0 - - -;
#X obj 685 277 * 0.1;
#X text 703 174 auto vol up;
#X text 429 173 auto vol up;
#X obj 685 228 random 5;
#X obj 190 183 tgl 15 0 empty empty empty 17 7 0 10 -262144 -1 -1 0
1;
#X obj 190 203 metro 600;
#X floatatom 190 253 5 0 0 0 - - -;
#X obj 190 228 random 5;
#X floatatom 191 308 5 0 0 0 - - -;
#X obj 191 280 * 0.1;
#X text 41 65 PRATNJA 1;
#X text 258 71 PRATNJA 2;
#X text 484 68 SOLO U RITMU;
#X text 209 175 auto vol up;
#X obj 769 328 *~;
#X obj 768 300 osc~ 440;
#X obj 768 273 +~;
#X obj 768 222 osc~;
#X floatatom 768 198 5 0 0 0 - - -;
#X obj 767 247 *~;
#X obj 768 107 tgl 15 0 empty empty empty 17 7 0 10 -262144 -1 -1 1
1;
#X obj 768 174 + 100;
#X obj 884 260 knob 32 32 0 0.5 0 0 empty empty empty 0 -8 0 8 -262144
-1 -1 2700 1;
#X obj 884 327 line~;
#X msg 884 303 \$1 500;
#X obj 768 127 metro 600;
#X floatatom 815 248 5 0 0 0 - - -;
#X obj 818 228 hsl 128 15 0 500 0 0 empty empty empty -2 -8 0 10 -262144
-1 -1 12700 1;
#X obj 820 189 hsl 128 15 0 127 0 0 empty empty empty -2 -8 0 10 -262144
-1 -1 6800 1;
#X text 815 172 visina zvuka;
#X obj 966 180 tgl 15 0 empty empty empty 17 7 0 10 -262144 -1 -1 1
1;
#X obj 966 200 metro 600;
#X floatatom 966 250 5 0 0 0 - - -;
#X floatatom 966 302 5 0 0 0 - - -;
#X obj 966 274 * 0.1;
#X text 984 171 auto vol up;
#X obj 966 225 random 5;
#X obj 685 203 metro 700;
#X obj 859 49 tgl 15 0 empty empty empty 17 7 0 10 -262144 -1 -1 1
1;
#X text 877 40 auto vol up;
#X obj 859 69 metro 700;
#X obj 859 94 random 1000;
#X floatatom 877 124 5 0 0 0 - - -;
#X obj 768 152 random 200;
#X text 766 81 SOLO;
#X text 534 211 volume;
#X text 813 211 volume;
#X text 307 131 volume;
#X text 92 127 volume;
#X obj 746 153 bng 15 250 50 0 empty empty empty 17 7 0 10 -262144
-1 -1;
#X connect 1 0 0 0;
#X connect 1 0 0 1;
#X connect 2 0 1 0;
#X connect 3 0 2 0;
#X connect 4 0 6 0;
#X connect 5 0 4 0;
#X connect 6 0 3 0;
#X connect 7 0 0 0;
#X connect 7 0 0 1;
#X connect 8 0 7 0;
#X connect 9 0 8 0;
#X connect 10 0 12 0;
#X connect 11 0 10 0;
#X connect 12 0 9 0;
#X connect 13 0 19 0;
#X connect 14 0 19 1;
#X connect 15 0 11 0;
#X connect 16 0 18 0;
#X connect 17 0 7 1;
#X connect 18 0 17 0;
#X connect 19 0 49 0;
#X connect 20 0 1 1;
#X connect 21 0 20 0;
#X connect 22 0 12 1;
#X connect 23 0 22 0;
#X connect 24 0 6 1;
#X connect 25 0 24 0;
#X connect 26 0 5 0;
#X connect 27 0 10 0;
#X connect 28 0 0 0;
#X connect 28 0 0 1;
#X connect 29 0 28 0;
#X connect 30 0 29 0;
#X connect 31 0 33 0;
#X connect 32 0 31 0;
#X connect 33 0 30 0;
#X connect 34 0 36 0;
#X connect 35 0 28 1;
#X connect 36 0 35 0;
#X connect 37 0 33 1;
#X connect 38 0 37 0;
#X connect 39 0 32 0;
#X connect 44 0 45 0;
#X connect 45 0 48 0;
#X connect 47 0 51 0;
#X connect 48 0 47 0;
#X connect 49 0 15 0;
#X connect 50 0 21 0;
#X connect 51 0 50 0;
#X connect 52 0 92 0;
#X connect 53 0 55 0;
#X connect 54 0 18 0;
#X connect 55 0 54 0;
#X connect 58 0 53 0;
#X connect 59 0 60 0;
#X connect 60 0 62 0;
#X connect 61 0 64 0;
#X connect 62 0 61 0;
#X connect 63 0 36 0;
#X connect 64 0 63 0;
#X connect 69 0 0 0;
#X connect 69 0 0 1;
#X connect 70 0 69 0;
#X connect 71 0 70 0;
#X connect 72 0 74 0;
#X connect 73 0 72 0;
#X connect 74 0 71 0;
#X connect 75 0 80 0;
#X connect 76 0 73 0;
#X connect 77 0 79 0;
#X connect 78 0 69 1;
#X connect 79 0 78 0;
#X connect 80 0 98 0;
#X connect 80 0 104 0;
#X connect 81 0 74 1;
#X connect 82 0 81 0;
#X connect 83 0 72 0;
#X connect 85 0 86 0;
#X connect 86 0 91 0;
#X connect 87 0 89 0;
#X connect 88 0 79 0;
#X connect 89 0 88 0;
#X connect 91 0 87 0;
#X connect 92 0 58 0;
#X connect 93 0 95 0;
#X connect 95 0 96 0;
#X connect 96 0 80 1;
#X connect 96 0 97 0;
#X connect 98 0 76 0;
