#N canvas 113 53 1205 691 10;
#X obj 161 -74 tgl 15 0 empty empty empty 17 7 0 10 -262144 -1 -1 1
1;
#X obj 161 -30 bng 15 250 50 0 empty empty empty 17 7 0 10 -262144
-1 -1;
#X obj 163 81 cycle~ 100;
#X obj 163 128 *~ 10;
#X obj 171 152 +~ 100;
#X obj 239 208 osc~ 400;
#X floatatom 190 106 5 0 0 0 - - -;
#X floatatom 204 130 5 0 0 0 - - -;
#X obj 240 79 random 1000;
#X obj 250 109 random 1000;
#X obj 240 -12 tgl 15 0 empty empty empty 17 7 0 10 -262144 -1 -1 1
1;
#X obj 232 32 bng 15 250 50 0 empty empty empty 17 7 0 10 -262144 -1
-1;
#X obj 301 208 osc~ 400;
#X obj 240 53 t b b;
#X msg 161 25 \$1 1000;
#X obj 163 51 line~;
#X obj 347 -78 tgl 15 0 empty empty empty 17 7 0 10 -262144 -1 -1 1
1;
#X obj 347 -34 bng 15 250 50 0 empty empty empty 17 7 0 10 -262144
-1 -1;
#X obj 347 -7 random 1000;
#X obj 349 77 cycle~ 100;
#X obj 349 124 *~ 10;
#X obj 357 148 +~ 100;
#X floatatom 376 102 5 0 0 0 - - -;
#X floatatom 390 126 5 0 0 0 - - -;
#X obj 426 75 random 1000;
#X obj 436 105 random 1000;
#X obj 426 -16 tgl 15 0 empty empty empty 17 7 0 10 -262144 -1 -1 1
1;
#X obj 418 28 bng 15 250 50 0 empty empty empty 17 7 0 10 -262144 -1
-1;
#X obj 426 49 t b b;
#X obj 349 47 line~;
#X obj 161 -52 metro 6000;
#X obj 241 10 metro 6000;
#X obj 347 -56 metro 6000;
#X obj 426 6 metro 6000;
#X msg 346 20 \$1 3000;
#X obj 161 -3 random 3000;
#X obj 575 104 tgl 15 0 empty empty empty 17 7 0 10 -262144 -1 -1 1
1;
#X obj 575 126 metro 250;
#X obj 575 150 int;
#X obj 613 150 + 1;
#X obj 575 220 sel 0 1 2 3 4 5 6 7;
#X obj 575 174 % 8;
#X obj 514 422 dac~;
#X obj 575 286 cycle~;
#X obj 516 338 *~ 0.1;
#X floatatom 575 249 5 0 0 0 - - -;
#X floatatom 613 249 5 0 0 0 - - -;
#X floatatom 651 251 5 0 0 0 - - -;
#X floatatom 690 251 5 0 0 0 - - -;
#X floatatom 729 252 5 0 0 0 - - -;
#X floatatom 768 253 5 0 0 0 - - -;
#X floatatom 807 253 5 0 0 0 - - -;
#X floatatom 846 254 5 0 0 0 - - -;
#X obj 721 105 vsl 15 128 1 500 0 0 empty empty empty 0 -9 0 10 -262144
-1 -1 10511 1;
#X obj 742 105 vsl 15 128 1 500 0 0 empty empty empty 0 -9 0 10 -262144
-1 -1 3512 1;
#X obj 762 105 vsl 15 128 1 500 0 0 empty empty empty 0 -9 0 10 -262144
-1 -1 4556 1;
#X obj 782 105 vsl 15 128 1 500 0 0 empty empty empty 0 -9 0 10 -262144
-1 -1 8373 1;
#X obj 803 105 vsl 15 128 1 500 0 0 empty empty empty 0 -9 0 10 -262144
-1 -1 12115 1;
#X obj 822 105 vsl 15 128 1 500 0 0 empty empty empty 0 -9 0 10 -262144
-1 -1 9671 1;
#X obj 842 105 vsl 15 128 1 500 0 0 empty empty empty 0 -9 0 10 -262144
-1 -1 1527 1;
#X obj 862 105 vsl 15 128 1 500 0 0 empty empty empty 0 -9 0 10 -262144
-1 -1 3080 1;
#X obj 601 104 hsl 100 15 0 500 0 0 empty empty empty -2 -8 0 10 -262144
-1 -1 0 1;
#X floatatom 678 124 5 0 0 0 - - -;
#X text 718 84 1 - 500;
#X text 643 122 tempo;
#X obj 550 175 vsl 15 80 0 0.3 0 0 empty empty empty 0 -9 0 10 -262144
-1 -1 5300 1;
#X obj 668 -93 tgl 15 0 empty empty empty 17 7 0 10 -262144 -1 -1 1
1;
#X obj 666 -49 bng 15 250 50 0 empty empty empty 17 7 0 10 -262144
-1 -1;
#X obj 668 -2 random 500;
#X obj 697 21 random 500;
#X obj 732 44 random 500;
#X obj 761 67 random 500;
#X obj 749 -6 random 500;
#X obj 778 17 random 500;
#X obj 813 40 random 500;
#X obj 842 63 random 500;
#X obj 668 -28 t b b b b b b b b;
#X obj 668 -71 metro 2200;
#X text 524 169 vol;
#X text 669 87 tempo;
#X obj 384 296 *~ 0.1;
#X obj 448 202 vsl 15 80 0 0.3 0 0 empty empty empty 0 -9 0 10 -262144
-1 -1 4700 1;
#X text 422 196 vol;
#X connect 0 0 30 0;
#X connect 1 0 35 0;
#X connect 2 0 3 0;
#X connect 3 0 4 0;
#X connect 4 0 5 0;
#X connect 5 0 80 0;
#X connect 6 0 3 1;
#X connect 7 0 4 1;
#X connect 8 0 6 0;
#X connect 9 0 7 0;
#X connect 10 0 31 0;
#X connect 11 0 13 0;
#X connect 12 0 80 0;
#X connect 13 0 8 0;
#X connect 13 1 9 0;
#X connect 14 0 15 0;
#X connect 15 0 2 0;
#X connect 16 0 32 0;
#X connect 17 0 18 0;
#X connect 18 0 34 0;
#X connect 19 0 20 0;
#X connect 20 0 21 0;
#X connect 21 0 12 0;
#X connect 22 0 20 1;
#X connect 23 0 21 1;
#X connect 24 0 22 0;
#X connect 25 0 23 0;
#X connect 26 0 33 0;
#X connect 27 0 28 0;
#X connect 28 0 24 0;
#X connect 28 1 25 0;
#X connect 29 0 19 0;
#X connect 30 0 1 0;
#X connect 31 0 11 0;
#X connect 32 0 17 0;
#X connect 33 0 27 0;
#X connect 34 0 29 0;
#X connect 35 0 14 0;
#X connect 36 0 37 0;
#X connect 37 0 38 0;
#X connect 38 0 39 0;
#X connect 38 0 41 0;
#X connect 39 0 38 1;
#X connect 40 0 45 0;
#X connect 40 1 46 0;
#X connect 40 2 47 0;
#X connect 40 3 48 0;
#X connect 40 4 49 0;
#X connect 40 5 50 0;
#X connect 40 6 51 0;
#X connect 40 8 52 0;
#X connect 41 0 40 0;
#X connect 43 0 44 0;
#X connect 44 0 42 1;
#X connect 44 0 42 0;
#X connect 45 0 43 0;
#X connect 46 0 43 0;
#X connect 47 0 43 0;
#X connect 48 0 43 0;
#X connect 49 0 43 0;
#X connect 50 0 43 0;
#X connect 51 0 43 0;
#X connect 52 0 43 0;
#X connect 53 0 45 0;
#X connect 54 0 46 0;
#X connect 55 0 47 0;
#X connect 56 0 48 0;
#X connect 57 0 49 0;
#X connect 58 0 50 0;
#X connect 59 0 51 0;
#X connect 60 0 52 0;
#X connect 61 0 37 1;
#X connect 61 0 62 0;
#X connect 65 0 44 1;
#X connect 66 0 77 0;
#X connect 67 0 76 0;
#X connect 68 0 53 0;
#X connect 69 0 54 0;
#X connect 70 0 55 0;
#X connect 71 0 56 0;
#X connect 72 0 57 0;
#X connect 73 0 58 0;
#X connect 74 0 59 0;
#X connect 75 0 60 0;
#X connect 76 0 68 0;
#X connect 76 1 69 0;
#X connect 76 2 70 0;
#X connect 76 3 71 0;
#X connect 76 4 72 0;
#X connect 76 5 73 0;
#X connect 76 6 74 0;
#X connect 76 7 75 0;
#X connect 77 0 67 0;
#X connect 80 0 42 0;
#X connect 80 0 42 1;
#X connect 81 0 80 1;
