#N canvas 568 136 736 796 10;
#X obj 114 116 bng 16 250 50 0 empty empty empty 17 7 0 10 -262144
-1 -1;
#X obj 114 134 vsl 16 64 0 2500 0 0 empty empty empty 0 -9 0 10 -228856
-1 -1 0 1;
#X obj 115 207 knob 16 16 0 1000 0 0 empty empty empty 0 -8 0 8 -262144
-1 -1 0 1;
#X obj 130 116 bng 16 250 50 0 empty empty empty 17 7 0 10 -262144
-1 -1;
#X obj 130 134 vsl 16 64 0 2500 0 0 empty empty empty 0 -9 0 10 -262144
-1 -1 0 1;
#X obj 132 207 knob 16 16 0 1000 0 0 empty empty empty 0 -8 0 8 -262144
-1 -1 0 1;
#X floatatom 88 406 5 0 0 0 - - -;
#X floatatom 130 406 5 0 0 0 - - -;
#X obj 88 435 osc~;
#X obj 32 453 *~;
#X obj 130 435 / 767;
#X floatatom 130 461 5 0 0 0 - - -;
#X obj 31 477 *~ 1;
#X obj 31 502 dac~;
#X obj 33 406 readsf~;
#X floatatom 236 406 5 0 0 0 - - -;
#X floatatom 272 406 5 0 0 0 - - -;
#X obj 236 435 osc~;
#X obj 184 452 *~;
#X obj 272 435 / 767;
#X floatatom 272 460 5 0 0 0 - - -;
#X obj 183 476 *~ 1;
#X obj 183 501 dac~;
#X obj 185 405 readsf~;
#X msg 33 385 open s16.wav \, 1;
#X msg 185 384 open s16.wav \, 1;
#X obj 113 245 tgl 30 0 empty empty empty 17 7 0 10 -262144 -1 -1 0
1;
#X obj 115 29 metro 100;
#X floatatom 183 29 5 0 0 0 - - -;
#X obj 219 8 + 1;
#X obj 234 245 bng 30 250 50 0 empty empty empty 17 7 0 10 -262144
-1 -1;
#X obj 183 8 f;
#X obj 219 28 mod 16;
#X text 231 228 STEP;
#X obj 148 247 vsl 30 25 15 500 0 0 empty empty empty 0 -9 0 10 -262144
-1 -1 0 1;
#X text 145 227 TEMPO;
#X floatatom 123 10 5 0 0 0 - - -;
#X text 111 228 ONOFF;
#X obj 115 51 counter 0 15;
#X obj 115 75 sel 0 1 2 3 4 5 6 7 8 9 10 11 12 13 14 15;
#X obj 184 245 bng 30 250 50 0 empty empty empty 17 7 0 10 -262144
-1 -1;
#X msg 262 5 15;
#X obj 270 245 bng 30 250 50 0 empty empty empty 17 7 0 10 -262144
-1 -1;
#X text 182 227 REVERSE;
#X text 267 228 16 STEPS;
#X obj 146 116 bng 16 250 50 0 empty empty empty 17 7 0 10 -262144
-1 -1;
#X obj 146 134 vsl 16 64 0 2500 0 0 empty empty empty 0 -9 0 10 -262144
-1 -1 0 1;
#X obj 147 207 knob 16 16 0 1000 0 0 empty empty empty 0 -8 0 8 -262144
-1 -1 0 1;
#X obj 162 116 bng 16 250 50 0 empty empty empty 17 7 0 10 -262144
-1 -1;
#X obj 162 134 vsl 16 64 0 2500 0 0 empty empty empty 0 -9 0 10 -262144
-1 -1 0 1;
#X obj 164 207 knob 16 16 0 1000 0 0 empty empty empty 0 -8 0 8 -262144
-1 -1 0 1;
#X obj 182 116 bng 16 250 50 0 empty empty empty 17 7 0 10 -262144
-1 -1;
#X obj 182 134 vsl 16 64 0 2500 0 0 empty empty empty 0 -9 0 10 -228856
-1 -1 0 1;
#X obj 183 207 knob 16 16 0 1000 0 0 empty empty empty 0 -8 0 8 -262144
-1 -1 0 1;
#X obj 198 116 bng 16 250 50 0 empty empty empty 17 7 0 10 -262144
-1 -1;
#X obj 198 134 vsl 16 64 0 2500 0 0 empty empty empty 0 -9 0 10 -262144
-1 -1 0 1;
#X obj 200 207 knob 16 16 0 1000 0 0 empty empty empty 0 -8 0 8 -262144
-1 -1 0 1;
#X obj 214 116 bng 16 250 50 0 empty empty empty 17 7 0 10 -262144
-1 -1;
#X obj 214 134 vsl 16 64 0 2500 0 0 empty empty empty 0 -9 0 10 -262144
-1 -1 0 1;
#X obj 215 207 knob 16 16 0 1000 0 0 empty empty empty 0 -8 0 8 -262144
-1 -1 0 1;
#X obj 230 116 bng 16 250 50 0 empty empty empty 17 7 0 10 -262144
-1 -1;
#X obj 230 134 vsl 16 64 0 2500 0 0 empty empty empty 0 -9 0 10 -262144
-1 -1 0 1;
#X obj 232 207 knob 16 16 0 1000 0 0 empty empty empty 0 -8 0 8 -262144
-1 -1 0 1;
#X obj 251 116 bng 16 250 50 0 empty empty empty 17 7 0 10 -262144
-1 -1;
#X obj 251 134 vsl 16 64 0 2500 0 0 empty empty empty 0 -9 0 10 -228856
-1 -1 0 1;
#X obj 252 207 knob 16 16 0 1000 0 0 empty empty empty 0 -8 0 8 -262144
-1 -1 0 1;
#X obj 267 116 bng 16 250 50 0 empty empty empty 17 7 0 10 -262144
-1 -1;
#X obj 267 134 vsl 16 64 0 2500 0 0 empty empty empty 0 -9 0 10 -262144
-1 -1 0 1;
#X obj 269 207 knob 16 16 0 1000 0 0 empty empty empty 0 -8 0 8 -262144
-1 -1 0 1;
#X obj 283 116 bng 16 250 50 0 empty empty empty 17 7 0 10 -262144
-1 -1;
#X obj 283 134 vsl 16 64 0 2500 0 0 empty empty empty 0 -9 0 10 -262144
-1 -1 0 1;
#X obj 284 207 knob 16 16 0 1000 0 0 empty empty empty 0 -8 0 8 -262144
-1 -1 0 1;
#X obj 299 116 bng 16 250 50 0 empty empty empty 17 7 0 10 -262144
-1 -1;
#X obj 299 134 vsl 16 64 0 2500 0 0 empty empty empty 0 -9 0 10 -262144
-1 -1 0 1;
#X obj 301 207 knob 16 16 0 1000 0 0 empty empty empty 0 -8 0 8 -262144
-1 -1 0 1;
#X obj 320 116 bng 16 250 50 0 empty empty empty 17 7 0 10 -262144
-1 -1;
#X obj 320 134 vsl 16 64 0 2500 0 0 empty empty empty 0 -9 0 10 -228856
-1 -1 0 1;
#X obj 321 207 knob 16 16 0 1000 0 0 empty empty empty 0 -8 0 8 -262144
-1 -1 0 1;
#X obj 336 116 bng 16 250 50 0 empty empty empty 17 7 0 10 -262144
-1 -1;
#X obj 336 134 vsl 16 64 0 2500 0 0 empty empty empty 0 -9 0 10 -262144
-1 -1 0 1;
#X obj 338 207 knob 16 16 0 1000 0 0 empty empty empty 0 -8 0 8 -262144
-1 -1 0 1;
#X obj 352 116 bng 16 250 50 0 empty empty empty 17 7 0 10 -262144
-1 -1;
#X obj 352 134 vsl 16 64 0 2500 0 0 empty empty empty 0 -9 0 10 -262144
-1 -1 0 1;
#X obj 353 207 knob 16 16 0 1000 0 0 empty empty empty 0 -8 0 8 -262144
-1 -1 0 1;
#X obj 368 116 bng 16 250 50 0 empty empty empty 17 7 0 10 -262144
-1 -1;
#X obj 368 134 vsl 16 64 0 2500 0 0 empty empty empty 0 -9 0 10 -262144
-1 -1 0 1;
#X obj 370 207 knob 16 16 0 1000 0 0 empty empty empty 0 -8 0 8 -262144
-1 -1 0 1;
#X floatatom 371 408 5 0 0 0 - - -;
#X floatatom 407 408 5 0 0 0 - - -;
#X obj 371 437 osc~;
#X obj 319 454 *~;
#X obj 407 437 / 767;
#X floatatom 407 462 5 0 0 0 - - -;
#X obj 318 478 *~ 1;
#X obj 318 503 dac~;
#X obj 320 407 readsf~;
#X msg 320 386 open s16.wav \, 1;
#X floatatom 506 408 5 0 0 0 - - -;
#X floatatom 542 408 5 0 0 0 - - -;
#X obj 506 437 osc~;
#X obj 454 454 *~;
#X obj 542 437 / 767;
#X floatatom 542 462 5 0 0 0 - - -;
#X obj 453 478 *~ 1;
#X obj 453 503 dac~;
#X obj 455 407 readsf~;
#X msg 455 386 open s16.wav \, 1;
#X floatatom 644 410 5 0 0 0 - - -;
#X floatatom 680 410 5 0 0 0 - - -;
#X obj 644 439 osc~;
#X obj 592 456 *~;
#X obj 680 439 / 767;
#X floatatom 680 464 5 0 0 0 - - -;
#X obj 591 480 *~ 1;
#X obj 591 505 dac~;
#X obj 593 409 readsf~;
#X msg 593 388 open s16.wav \, 1;
#X floatatom 490 262 5 0 0 0 - - -;
#X floatatom 526 262 5 0 0 0 - - -;
#X obj 490 291 osc~;
#X obj 438 308 *~;
#X obj 526 291 / 767;
#X floatatom 526 316 5 0 0 0 - - -;
#X obj 437 332 *~ 1;
#X obj 437 357 dac~;
#X obj 439 261 readsf~;
#X msg 439 240 open s16.wav \, 1;
#X floatatom 80 556 5 0 0 0 - - -;
#X floatatom 116 556 5 0 0 0 - - -;
#X obj 80 585 osc~;
#X obj 28 602 *~;
#X obj 116 585 / 767;
#X floatatom 116 610 5 0 0 0 - - -;
#X obj 27 626 *~ 1;
#X obj 27 651 dac~;
#X obj 29 555 readsf~;
#X msg 29 534 open s16.wav \, 1;
#X floatatom 216 559 5 0 0 0 - - -;
#X floatatom 252 559 5 0 0 0 - - -;
#X obj 216 588 osc~;
#X obj 164 605 *~;
#X obj 252 588 / 767;
#X floatatom 252 613 5 0 0 0 - - -;
#X obj 163 629 *~ 1;
#X obj 163 654 dac~;
#X obj 165 558 readsf~;
#X msg 165 537 open s16.wav \, 1;
#X floatatom 359 557 5 0 0 0 - - -;
#X floatatom 395 557 5 0 0 0 - - -;
#X obj 359 586 osc~;
#X obj 307 603 *~;
#X obj 395 586 / 767;
#X floatatom 395 611 5 0 0 0 - - -;
#X obj 306 627 *~ 1;
#X obj 306 652 dac~;
#X obj 308 556 readsf~;
#X msg 308 535 open s16.wav \, 1;
#X floatatom 499 558 5 0 0 0 - - -;
#X floatatom 535 558 5 0 0 0 - - -;
#X obj 499 587 osc~;
#X obj 447 604 *~;
#X obj 535 587 / 767;
#X floatatom 535 612 5 0 0 0 - - -;
#X obj 446 628 *~ 1;
#X obj 446 653 dac~;
#X obj 448 557 readsf~;
#X msg 448 536 open s16.wav \, 1;
#X floatatom 641 559 5 0 0 0 - - -;
#X floatatom 677 559 5 0 0 0 - - -;
#X obj 641 588 osc~;
#X obj 589 605 *~;
#X obj 677 588 / 767;
#X floatatom 677 613 5 0 0 0 - - -;
#X obj 588 629 *~ 1;
#X obj 588 654 dac~;
#X obj 590 558 readsf~;
#X msg 590 537 open s16.wav \, 1;
#X floatatom 632 266 5 0 0 0 - - -;
#X floatatom 668 266 5 0 0 0 - - -;
#X obj 632 295 osc~;
#X obj 580 312 *~;
#X obj 668 295 / 767;
#X floatatom 668 320 5 0 0 0 - - -;
#X obj 579 336 *~ 1;
#X obj 579 361 dac~;
#X obj 581 265 readsf~;
#X msg 581 244 open s16.wav \, 1;
#X floatatom 494 -33 5 0 0 0 - - -;
#X floatatom 530 -33 5 0 0 0 - - -;
#X obj 494 -4 osc~;
#X obj 442 13 *~;
#X obj 530 -4 / 767;
#X floatatom 530 21 5 0 0 0 - - -;
#X obj 441 37 *~ 1;
#X obj 441 62 dac~;
#X obj 443 -34 readsf~;
#X msg 443 -55 open s16.wav \, 1;
#X floatatom 633 -33 5 0 0 0 - - -;
#X floatatom 669 -33 5 0 0 0 - - -;
#X obj 633 -4 osc~;
#X obj 581 13 *~;
#X obj 669 -4 / 767;
#X floatatom 669 21 5 0 0 0 - - -;
#X obj 580 37 *~ 1;
#X obj 580 62 dac~;
#X obj 582 -34 readsf~;
#X msg 582 -55 open s16.wav \, 1;
#X floatatom 491 122 5 0 0 0 - - -;
#X floatatom 527 122 5 0 0 0 - - -;
#X obj 491 151 osc~;
#X obj 439 168 *~;
#X obj 527 151 / 767;
#X floatatom 527 176 5 0 0 0 - - -;
#X obj 438 192 *~ 1;
#X obj 438 217 dac~;
#X obj 440 121 readsf~;
#X msg 440 100 open s16.wav \, 1;
#X floatatom 633 122 5 0 0 0 - - -;
#X floatatom 669 122 5 0 0 0 - - -;
#X obj 633 151 osc~;
#X obj 581 168 *~;
#X obj 669 151 / 767;
#X floatatom 669 176 5 0 0 0 - - -;
#X obj 580 192 *~ 1;
#X obj 580 217 dac~;
#X obj 582 121 readsf~;
#X msg 582 100 open s16.wav \, 1;
#X text 139 384 1;
#X text 288 382 2;
#X text 423 386 3;
#X text 554 387 4;
#X text 694 387 5;
#X text 128 534 6;
#X text 267 538 7;
#X text 408 534 8;
#X text 548 535 9;
#X text 690 538 10;
#X text 545 -56 11;
#X text 684 -53 12;
#X text 538 101 13;
#X text 683 97 14;
#X text 539 241 15;
#X text 681 245 16;
#X connect 0 0 24 0;
#X connect 1 0 6 0;
#X connect 2 0 7 0;
#X connect 3 0 25 0;
#X connect 4 0 15 0;
#X connect 5 0 16 0;
#X connect 6 0 8 0;
#X connect 7 0 10 0;
#X connect 8 0 9 1;
#X connect 9 0 12 0;
#X connect 10 0 11 0;
#X connect 11 0 12 1;
#X connect 12 0 13 0;
#X connect 12 0 13 1;
#X connect 14 0 9 0;
#X connect 15 0 17 0;
#X connect 16 0 19 0;
#X connect 17 0 18 1;
#X connect 18 0 21 0;
#X connect 19 0 20 0;
#X connect 20 0 21 1;
#X connect 21 0 22 0;
#X connect 21 0 22 1;
#X connect 23 0 18 0;
#X connect 24 0 14 0;
#X connect 25 0 23 0;
#X connect 26 0 27 0;
#X connect 27 0 38 0;
#X connect 28 0 38 4;
#X connect 29 0 32 0;
#X connect 30 0 31 0;
#X connect 31 0 28 0;
#X connect 31 0 29 0;
#X connect 32 0 31 1;
#X connect 34 0 27 1;
#X connect 34 0 36 0;
#X connect 38 0 39 0;
#X connect 39 0 0 0;
#X connect 39 1 3 0;
#X connect 39 2 45 0;
#X connect 39 3 48 0;
#X connect 39 4 51 0;
#X connect 39 5 54 0;
#X connect 39 6 57 0;
#X connect 39 7 60 0;
#X connect 39 8 63 0;
#X connect 39 9 66 0;
#X connect 39 10 69 0;
#X connect 39 11 72 0;
#X connect 39 12 75 0;
#X connect 39 13 78 0;
#X connect 39 14 81 0;
#X connect 39 15 84 0;
#X connect 40 0 38 1;
#X connect 41 0 38 4;
#X connect 42 0 41 0;
#X connect 45 0 96 0;
#X connect 46 0 87 0;
#X connect 47 0 88 0;
#X connect 48 0 106 0;
#X connect 49 0 97 0;
#X connect 50 0 98 0;
#X connect 51 0 116 0;
#X connect 52 0 107 0;
#X connect 53 0 108 0;
#X connect 54 0 136 0;
#X connect 55 0 127 0;
#X connect 56 0 128 0;
#X connect 57 0 146 0;
#X connect 58 0 137 0;
#X connect 59 0 138 0;
#X connect 60 0 156 0;
#X connect 61 0 147 0;
#X connect 62 0 148 0;
#X connect 63 0 166 0;
#X connect 64 0 157 0;
#X connect 65 0 158 0;
#X connect 66 0 176 0;
#X connect 67 0 167 0;
#X connect 68 0 168 0;
#X connect 69 0 196 0;
#X connect 70 0 187 0;
#X connect 71 0 188 0;
#X connect 72 0 206 0;
#X connect 73 0 197 0;
#X connect 74 0 198 0;
#X connect 75 0 216 0;
#X connect 76 0 207 0;
#X connect 77 0 208 0;
#X connect 78 0 226 0;
#X connect 79 0 217 0;
#X connect 80 0 218 0;
#X connect 81 0 126 0;
#X connect 82 0 117 0;
#X connect 83 0 118 0;
#X connect 84 0 186 0;
#X connect 85 0 177 0;
#X connect 86 0 178 0;
#X connect 87 0 89 0;
#X connect 88 0 91 0;
#X connect 89 0 90 1;
#X connect 90 0 93 0;
#X connect 91 0 92 0;
#X connect 92 0 93 1;
#X connect 93 0 94 0;
#X connect 93 0 94 1;
#X connect 95 0 90 0;
#X connect 96 0 95 0;
#X connect 97 0 99 0;
#X connect 98 0 101 0;
#X connect 99 0 100 1;
#X connect 100 0 103 0;
#X connect 101 0 102 0;
#X connect 102 0 103 1;
#X connect 103 0 104 0;
#X connect 103 0 104 1;
#X connect 105 0 100 0;
#X connect 106 0 105 0;
#X connect 107 0 109 0;
#X connect 108 0 111 0;
#X connect 109 0 110 1;
#X connect 110 0 113 0;
#X connect 111 0 112 0;
#X connect 112 0 113 1;
#X connect 113 0 114 0;
#X connect 113 0 114 1;
#X connect 115 0 110 0;
#X connect 116 0 115 0;
#X connect 117 0 119 0;
#X connect 118 0 121 0;
#X connect 119 0 120 1;
#X connect 120 0 123 0;
#X connect 121 0 122 0;
#X connect 122 0 123 1;
#X connect 123 0 124 0;
#X connect 123 0 124 1;
#X connect 125 0 120 0;
#X connect 126 0 125 0;
#X connect 127 0 129 0;
#X connect 128 0 131 0;
#X connect 129 0 130 1;
#X connect 130 0 133 0;
#X connect 131 0 132 0;
#X connect 132 0 133 1;
#X connect 133 0 134 0;
#X connect 133 0 134 1;
#X connect 135 0 130 0;
#X connect 136 0 135 0;
#X connect 137 0 139 0;
#X connect 138 0 141 0;
#X connect 139 0 140 1;
#X connect 140 0 143 0;
#X connect 141 0 142 0;
#X connect 142 0 143 1;
#X connect 143 0 144 0;
#X connect 143 0 144 1;
#X connect 145 0 140 0;
#X connect 146 0 145 0;
#X connect 147 0 149 0;
#X connect 148 0 151 0;
#X connect 149 0 150 1;
#X connect 150 0 153 0;
#X connect 151 0 152 0;
#X connect 152 0 153 1;
#X connect 153 0 154 0;
#X connect 153 0 154 1;
#X connect 155 0 150 0;
#X connect 156 0 155 0;
#X connect 157 0 159 0;
#X connect 158 0 161 0;
#X connect 159 0 160 1;
#X connect 160 0 163 0;
#X connect 161 0 162 0;
#X connect 162 0 163 1;
#X connect 163 0 164 0;
#X connect 163 0 164 1;
#X connect 165 0 160 0;
#X connect 166 0 165 0;
#X connect 167 0 169 0;
#X connect 168 0 171 0;
#X connect 169 0 170 1;
#X connect 170 0 173 0;
#X connect 171 0 172 0;
#X connect 172 0 173 1;
#X connect 173 0 174 0;
#X connect 173 0 174 1;
#X connect 175 0 170 0;
#X connect 176 0 175 0;
#X connect 177 0 179 0;
#X connect 178 0 181 0;
#X connect 179 0 180 1;
#X connect 180 0 183 0;
#X connect 181 0 182 0;
#X connect 182 0 183 1;
#X connect 183 0 184 0;
#X connect 183 0 184 1;
#X connect 185 0 180 0;
#X connect 186 0 185 0;
#X connect 187 0 189 0;
#X connect 188 0 191 0;
#X connect 189 0 190 1;
#X connect 190 0 193 0;
#X connect 191 0 192 0;
#X connect 192 0 193 1;
#X connect 193 0 194 0;
#X connect 193 0 194 1;
#X connect 195 0 190 0;
#X connect 196 0 195 0;
#X connect 197 0 199 0;
#X connect 198 0 201 0;
#X connect 199 0 200 1;
#X connect 200 0 203 0;
#X connect 201 0 202 0;
#X connect 202 0 203 1;
#X connect 203 0 204 0;
#X connect 203 0 204 1;
#X connect 205 0 200 0;
#X connect 206 0 205 0;
#X connect 207 0 209 0;
#X connect 208 0 211 0;
#X connect 209 0 210 1;
#X connect 210 0 213 0;
#X connect 211 0 212 0;
#X connect 212 0 213 1;
#X connect 213 0 214 0;
#X connect 213 0 214 1;
#X connect 215 0 210 0;
#X connect 216 0 215 0;
#X connect 217 0 219 0;
#X connect 218 0 221 0;
#X connect 219 0 220 1;
#X connect 220 0 223 0;
#X connect 221 0 222 0;
#X connect 222 0 223 1;
#X connect 223 0 224 0;
#X connect 223 0 224 1;
#X connect 225 0 220 0;
#X connect 226 0 225 0;
#X coords 0 -1 1 1 300 190 2 100 100;
