#N canvas 90 70 1215 655 10;
#N canvas -1787 415 1388 1063 play 0;
#N canvas 0 23 450 278 (subpatch) 0;
#X array L1 390696 float 2;
#X coords 0 1 390696 -1 200 140 1 0 0;
#X restore 373 30 graph;
#X obj 201 144 bng 26 250 50 0 empty empty empty 17 7 0 10 -262144
-258113 -1;
#X obj 201 32 vsl 26 60 0 2 0 0 empty empty empty 0 -9 0 10 -262144
-258113 -66577 0 1;
#X obj 85 30 bng 26 250 50 0 empty empty empty 17 7 0 10 -258113 -1
-1;
#X obj 85 70 bng 26 250 50 0 empty empty empty 17 7 0 10 -262144 -1
-1;
#X obj 85 105 bng 26 250 50 0 empty empty empty 17 7 0 10 -4034 -1
-1;
#N canvas -1342 308 406 434 sound1 0;
#X obj 71 213 writesf~;
#X obj 37 169 *~ 1;
#X obj 38 141 adc~;
#X msg 104 177 stop;
#X obj 75 20 inlet;
#X text 82 34 rec;
#X obj 123 19 inlet;
#X text 128 34 rec stop;
#X msg 76 83 open dv01.wav \, start;
#X connect 1 0 0 0;
#X connect 2 0 1 0;
#X connect 3 0 0 0;
#X connect 4 0 8 0;
#X connect 6 0 3 0;
#X connect 8 0 0 0;
#X restore 26 351 pd sound1;
#X obj 201 105 tgl 26 0 empty empty empty 17 7 0 10 -262144 -258113
-1 0 1;
#X obj 299 32 vsl 26 60 100 2000 0 0 empty empty empty 0 -9 0 10 -262144
-258113 -66577 0 1;
#X obj 299 107 vsl 26 60 -1 1 0 0 empty empty empty 0 -9 0 10 -262144
-258113 -66577 0 1;
#X obj 85 144 bng 26 250 50 0 empty empty empty 17 7 0 10 -262144 -1
-1;
#X text 235 156 SPEED;
#X text 330 119 SPEED;
#X text 235 117 METRO;
#X text 328 40 SPEED;
#X text 328 29 Metro;
#X obj 34 30 tgl 26 0 empty empty empty 17 7 0 10 -262144 -1 -1 0 1
;
#X obj 91 351 s play1;
#X obj 91 374 s stop1;
#X obj 145 351 s vol1;
#X obj 198 350 s playmetro1;
#X obj 281 349 s metrospeed1;
#X obj 199 373 s normalspeed1;
#X obj 290 372 s playspeed1;
#X obj 372 349 r speedvidim1;
#X obj 26 373 s start1;
#X obj 456 253 bng 15 250 50 0 empty empty empty 17 7 0 10 -262144
-1 -1;
#X obj 459 349 s resetmetro1;
#X text 118 29 RECORD;
#X text 118 43 NEW SAMPLE;
#X text 118 70 STOP;
#X text 118 83 RECORD;
#X text 117 104 PLAY;
#X text 117 116 SAMPLE;
#X text 117 143 STOP;
#X text 117 156 SAMPLE;
#X text 234 32 VOL;
#X text 34 62 ON /;
#X text 35 74 OFF;
#X text 234 103 START;
#X text 235 142 NORMAL;
#X text 300 124 ___;
#X text 330 107 SAMPLE;
#X obj 110 199 loadbang;
#X connect 1 0 22 0;
#X connect 2 0 19 0;
#X connect 3 0 6 0;
#X connect 4 0 6 1;
#X connect 4 0 17 0;
#X connect 5 0 17 0;
#X connect 7 0 20 0;
#X connect 8 0 21 0;
#X connect 9 0 23 0;
#X connect 10 0 18 0;
#X connect 16 0 25 0;
#X connect 24 0 9 0;
#X connect 26 0 27 0;
#X connect 43 0 5 0;
#X coords 0 -1 1 1 565 160 2 20 20;
#X restore 33 32 pd play;
#N canvas 0 455 463 466 play 0;
#X obj 22 329 dac~;
#X obj 22 299 *~;
#X msg 50 298 0.5;
#X obj 50 276 r start1;
#X obj 43 39 vsl 40 102 0 1 0 0 empty empty empty 0 -9 0 10 -262144
-1 -1 0 1;
#X text 44 144 Master;
#X text 44 155 VOLUME;
#N canvas 0 263 629 724 sound1 0;
#X obj 336 383 tgl 15 0 empty empty empty 17 7 0 10 -262144 -1 -1 0
1;
#X msg 336 409 \; pd dsp \$1;
#X obj 176 149 soundfiler;
#X floatatom 207 171 10 0 0 0 - - -;
#X floatatom 213 245 10 0 0 0 - - -;
#X obj 177 365 phasor~;
#X obj 177 406 *~;
#X obj 207 198 s sampleSize;
#X obj 233 389 r sampleSize;
#X obj 177 478 tabread~ L1;
#X obj 209 449 tabread~ R1;
#X obj 229 329 hsl 128 15 -1 1 0 0 empty empty empty -2 -8 0 10 -262144
-1 -1 0 1;
#X text 263 343 Dir/Speed;
#X obj 315 292 f;
#X text 283 248 Default Speed;
#X obj 117 568 *~;
#X obj 158 550 *~;
#X obj 68 406 metro 50;
#X obj 68 423 snapshot~;
#X floatatom 68 440 10 0 0 0 - - -;
#X obj 60 603 hsl 195 15 0 1 0 0 empty empty empty -2 -8 0 10 -262144
-1 -1 6014 1;
#X obj 83 461 r sampleSize;
#X obj 68 487 /;
#X obj 264 148 bng 15 250 50 0 empty empty empty 17 7 0 10 -262144
-1 -1;
#X obj 322 576 *~;
#X obj 185 513 tgl 15 0 empty empty empty 17 7 0 10 -204800 -1 -1 0
1;
#X obj 89 246 bng 15 250 50 0 empty empty empty 17 7 0 10 -262130 -1
-1;
#X floatatom 89 313 10 0 0 0 - - -;
#X obj 89 295 / 1000;
#X obj 89 278 - 1000;
#X obj 89 261 random 2000;
#X obj 345 474 loadbang;
#X msg 345 491 1;
#X obj 345 508 s loadon;
#X obj 68 375 r loadon;
#X obj 177 221 expr 44100 / $f1;
#X msg 309 88 stop;
#X floatatom 236 353 5 0 0 0 - - -;
#N canvas 0 22 450 278 (subpatch) 0;
#X array R1 390696 float 2;
#X coords 0 1 390696 -1 20 20 1 0 0;
#X restore 416 416 graph;
#X obj 72 202 metro 500;
#X msg 248 287 1;
#X msg 180 120 read -resize \$1 L1 R1;
#X obj 419 81 r play1;
#X obj 419 105 r stop1;
#X obj 419 129 r vol1;
#X obj 419 154 r playmetro1;
#X obj 419 178 r normalspeed1;
#X obj 420 202 r metrospeed1;
#X obj 420 224 r playspeed1;
#X obj 420 247 s speedvidim1;
#X obj 422 270 r start1;
#X obj 321 629 outlet~;
#X msg 298 495 0.5;
#X obj 504 154 r resetmetro1;
#X msg 114 159 500;
#X msg 418 51 open sample01.wav;
#X connect 0 0 1 0;
#X connect 2 0 3 0;
#X connect 2 0 35 0;
#X connect 3 0 7 0;
#X connect 4 0 13 1;
#X connect 5 0 6 0;
#X connect 6 0 9 0;
#X connect 6 0 10 0;
#X connect 6 0 18 0;
#X connect 8 0 6 1;
#X connect 9 0 15 0;
#X connect 10 0 16 0;
#X connect 11 0 5 0;
#X connect 11 0 37 0;
#X connect 13 0 11 0;
#X connect 15 0 24 0;
#X connect 17 0 18 0;
#X connect 18 0 19 0;
#X connect 19 0 22 0;
#X connect 21 0 22 1;
#X connect 22 0 20 0;
#X connect 23 0 3 0;
#X connect 24 0 51 0;
#X connect 25 0 15 1;
#X connect 25 0 16 1;
#X connect 26 0 30 0;
#X connect 27 0 11 0;
#X connect 27 0 49 0;
#X connect 28 0 27 0;
#X connect 29 0 28 0;
#X connect 30 0 29 0;
#X connect 31 0 32 0;
#X connect 32 0 33 0;
#X connect 34 0 17 0;
#X connect 35 0 4 0;
#X connect 35 0 5 0;
#X connect 36 0 41 0;
#X connect 39 0 26 0;
#X connect 40 0 11 0;
#X connect 41 0 2 0;
#X connect 42 0 55 0;
#X connect 43 0 36 0;
#X connect 44 0 24 1;
#X connect 45 0 39 0;
#X connect 46 0 40 0;
#X connect 47 0 39 1;
#X connect 48 0 11 0;
#X connect 50 0 25 0;
#X connect 50 0 52 0;
#X connect 52 0 24 1;
#X connect 53 0 54 0;
#X connect 54 0 39 1;
#X connect 55 0 41 0;
#X restore 23 208 pd sound1;
#N canvas 0 263 808 724 sound2 0;
#X obj 336 383 tgl 15 0 empty empty empty 17 7 0 10 -262144 -1 -1 0
1;
#X msg 336 409 \; pd dsp \$1;
#X obj 176 149 soundfiler;
#X floatatom 207 171 10 0 0 0 - - -;
#X floatatom 213 245 10 0 0 0 - - -;
#X obj 177 365 phasor~;
#X obj 177 406 *~;
#X obj 233 389 r sampleSize;
#X obj 229 329 hsl 128 15 -1 1 0 0 empty empty empty -2 -8 0 10 -262144
-1 -1 0 1;
#X text 263 343 Dir/Speed;
#X obj 315 292 f;
#X text 283 248 Default Speed;
#X obj 117 568 *~;
#X obj 158 550 *~;
#X obj 68 406 metro 50;
#X obj 68 423 snapshot~;
#X floatatom 68 440 10 0 0 0 - - -;
#X obj 60 603 hsl 195 15 0 1 0 0 empty empty empty -2 -8 0 10 -262144
-1 -1 17193 1;
#X obj 68 487 /;
#X obj 264 148 bng 15 250 50 0 empty empty empty 17 7 0 10 -262144
-1 -1;
#X obj 322 576 *~;
#X obj 185 513 tgl 15 0 empty empty empty 17 7 0 10 -204800 -1 -1 0
1;
#X obj 89 246 bng 15 250 50 0 empty empty empty 17 7 0 10 -262130 -1
-1;
#X floatatom 89 313 10 0 0 0 - - -;
#X obj 89 295 / 1000;
#X obj 89 278 - 1000;
#X obj 89 261 random 2000;
#X obj 345 474 loadbang;
#X msg 345 491 1;
#X obj 345 508 s loadon;
#X obj 68 375 r loadon;
#X obj 177 221 expr 44100 / $f1;
#X msg 309 88 stop;
#X floatatom 236 353 5 0 0 0 - - -;
#N canvas 0 22 450 278 (subpatch) 0;
#X array R2 251490 float 2;
#X coords 0 1 251490 -1 20 20 1 0 0;
#X restore 518 119 graph;
#X obj 72 202 metro 500;
#X msg 248 287 1;
#X obj 321 629 outlet~;
#X msg 298 495 0.5;
#X obj 419 81 r play2;
#X obj 419 105 r stop2;
#X obj 419 129 r vol2;
#X obj 419 178 r normalspeed2;
#X obj 420 202 r metrospeed2;
#X obj 420 224 r playspeed2;
#X obj 420 247 s speedvidim2;
#X obj 422 270 r start2;
#X msg 180 120 read -resize \$1 L2 R2;
#X obj 419 297 tabread~ R2;
#X obj 418 323 tabread~ L2;
#X obj 516 50 s sampleSize2;
#X obj 518 76 r sampleSize2;
#X msg 99 152 500;
#X obj 612 48 r resetmetro2;
#X obj 420 156 r playmetro2;
#X msg 417 51 open sample02.wav;
#X connect 0 0 1 0;
#X connect 2 0 3 0;
#X connect 2 0 31 0;
#X connect 3 0 50 0;
#X connect 4 0 10 1;
#X connect 5 0 6 0;
#X connect 6 0 15 0;
#X connect 6 0 48 0;
#X connect 6 0 49 0;
#X connect 7 0 6 1;
#X connect 8 0 5 0;
#X connect 8 0 33 0;
#X connect 10 0 8 0;
#X connect 12 0 20 0;
#X connect 14 0 15 0;
#X connect 15 0 16 0;
#X connect 16 0 18 0;
#X connect 18 0 17 0;
#X connect 19 0 3 0;
#X connect 20 0 37 0;
#X connect 21 0 12 1;
#X connect 21 0 13 1;
#X connect 22 0 26 0;
#X connect 23 0 8 0;
#X connect 23 0 45 0;
#X connect 24 0 23 0;
#X connect 25 0 24 0;
#X connect 26 0 25 0;
#X connect 27 0 28 0;
#X connect 28 0 29 0;
#X connect 30 0 14 0;
#X connect 31 0 4 0;
#X connect 31 0 5 0;
#X connect 32 0 47 0;
#X connect 35 0 22 0;
#X connect 36 0 8 0;
#X connect 38 0 20 1;
#X connect 39 0 55 0;
#X connect 40 0 32 0;
#X connect 41 0 20 1;
#X connect 42 0 36 0;
#X connect 43 0 35 1;
#X connect 44 0 8 0;
#X connect 46 0 21 0;
#X connect 46 0 38 0;
#X connect 47 0 2 0;
#X connect 48 0 13 0;
#X connect 49 0 12 0;
#X connect 51 0 18 1;
#X connect 52 0 35 1;
#X connect 53 0 52 0;
#X connect 54 0 35 0;
#X connect 55 0 47 0;
#X restore 86 208 pd sound2;
#N canvas 0 263 808 724 sound3 0;
#X obj 336 383 tgl 15 0 empty empty empty 17 7 0 10 -262144 -1 -1 0
1;
#X msg 336 409 \; pd dsp \$1;
#X obj 176 149 soundfiler;
#X floatatom 207 171 10 0 0 0 - - -;
#X floatatom 213 245 10 0 0 0 - - -;
#X obj 177 365 phasor~;
#X obj 177 406 *~;
#X obj 233 389 r sampleSize;
#X obj 229 329 hsl 128 15 -1 1 0 0 empty empty empty -2 -8 0 10 -262144
-1 -1 0 1;
#X text 263 343 Dir/Speed;
#X obj 315 292 f;
#X text 283 248 Default Speed;
#X obj 117 568 *~;
#X obj 158 550 *~;
#X obj 68 406 metro 50;
#X obj 68 423 snapshot~;
#X floatatom 68 440 10 0 0 0 - - -;
#X obj 60 603 hsl 195 15 0 1 0 0 empty empty empty -2 -8 0 10 -262144
-1 -1 11280 1;
#X obj 68 487 /;
#X obj 209 65 bng 15 250 50 0 empty empty empty 17 7 0 10 -262144 -1
-1;
#X obj 322 576 *~;
#X obj 219 517 tgl 15 0 empty empty empty 17 7 0 10 -204800 -1 -1 0
1;
#X obj 89 246 bng 15 250 50 0 empty empty empty 17 7 0 10 -262130 -1
-1;
#X floatatom 89 313 10 0 0 0 - - -;
#X obj 89 295 / 1000;
#X obj 89 278 - 1000;
#X obj 89 261 random 2000;
#X obj 345 474 loadbang;
#X msg 345 491 1;
#X obj 345 508 s loadon;
#X obj 68 375 r loadon;
#X obj 177 221 expr 44100 / $f1;
#X msg 309 88 stop;
#X floatatom 236 353 5 0 0 0 - - -;
#N canvas 0 22 450 278 (subpatch) 0;
#X array R3 352800 float 2;
#X coords 0 1 352800 -1 20 20 1 0 0;
#X restore 518 119 graph;
#X obj 72 202 metro 500;
#X msg 248 287 1;
#X obj 321 629 outlet~;
#X msg 298 495 0.5;
#X msg 99 152 500;
#X obj 419 81 r play3;
#X obj 419 105 r stop3;
#X obj 419 129 r vol3;
#X msg 180 120 read -resize \$1 L3 R3;
#X obj 419 178 r normalspeed3;
#X obj 420 202 r metrospeed3;
#X obj 420 224 r playspeed3;
#X obj 420 247 s speedvidim3;
#X obj 422 270 r start3;
#X obj 536 50 s sampleSize3;
#X obj 538 76 r sampleSize3;
#X obj 423 296 tabread~ R3;
#X obj 422 322 tabread~ L3;
#X obj 632 48 r resetmetro3;
#X obj 419 156 r playmetro3;
#X msg 417 51 open sample03.wav;
#X connect 0 0 1 0;
#X connect 2 0 3 0;
#X connect 2 0 31 0;
#X connect 3 0 49 0;
#X connect 4 0 10 1;
#X connect 5 0 6 0;
#X connect 6 0 15 0;
#X connect 6 0 51 0;
#X connect 6 0 52 0;
#X connect 7 0 6 1;
#X connect 8 0 5 0;
#X connect 8 0 33 0;
#X connect 10 0 8 0;
#X connect 12 0 20 0;
#X connect 14 0 15 0;
#X connect 15 0 16 0;
#X connect 16 0 18 0;
#X connect 18 0 17 0;
#X connect 19 0 3 0;
#X connect 20 0 37 0;
#X connect 21 0 12 1;
#X connect 21 0 13 1;
#X connect 22 0 26 0;
#X connect 23 0 8 0;
#X connect 23 0 47 0;
#X connect 24 0 23 0;
#X connect 25 0 24 0;
#X connect 26 0 25 0;
#X connect 27 0 28 0;
#X connect 28 0 29 0;
#X connect 30 0 14 0;
#X connect 31 0 4 0;
#X connect 31 0 5 0;
#X connect 32 0 43 0;
#X connect 35 0 22 0;
#X connect 36 0 8 0;
#X connect 38 0 20 1;
#X connect 39 0 35 1;
#X connect 40 0 55 0;
#X connect 41 0 32 0;
#X connect 42 0 20 1;
#X connect 43 0 2 0;
#X connect 44 0 36 0;
#X connect 45 0 35 1;
#X connect 46 0 8 0;
#X connect 48 0 21 0;
#X connect 48 0 38 0;
#X connect 50 0 18 1;
#X connect 51 0 13 0;
#X connect 52 0 12 0;
#X connect 53 0 39 0;
#X connect 54 0 35 0;
#X connect 55 0 43 0;
#X restore 155 209 pd sound3;
#N canvas 872 117 808 724 sound4 0;
#X obj 336 383 tgl 15 0 empty empty empty 17 7 0 10 -262144 -1 -1 0
1;
#X msg 336 409 \; pd dsp \$1;
#X obj 176 149 soundfiler;
#X floatatom 207 171 10 0 0 0 - - -;
#X floatatom 213 245 10 0 0 0 - - -;
#X obj 177 365 phasor~;
#X obj 177 406 *~;
#X obj 233 389 r sampleSize;
#X obj 229 329 hsl 128 15 -1 1 0 0 empty empty empty -2 -8 0 10 -262144
-1 -1 0 1;
#X text 263 343 Dir/Speed;
#X obj 315 292 f;
#X text 283 248 Default Speed;
#X obj 117 568 *~;
#X obj 158 550 *~;
#X obj 68 406 metro 50;
#X obj 68 423 snapshot~;
#X floatatom 68 440 10 0 0 0 - - -;
#X obj 60 603 hsl 195 15 0 1 0 0 empty empty empty -2 -8 0 10 -262144
-1 -1 3746 1;
#X obj 68 487 /;
#X obj 264 148 bng 15 250 50 0 empty empty empty 17 7 0 10 -262144
-1 -1;
#X obj 322 576 *~;
#X obj 185 513 tgl 15 0 empty empty empty 17 7 0 10 -204800 -1 -1 0
1;
#X obj 89 246 bng 15 250 50 0 empty empty empty 17 7 0 10 -262130 -1
-1;
#X floatatom 89 313 10 0 0 0 - - -;
#X obj 89 295 / 1000;
#X obj 89 278 - 1000;
#X obj 89 261 random 2000;
#X obj 345 474 loadbang;
#X msg 345 491 1;
#X obj 345 508 s loadon;
#X obj 68 375 r loadon;
#X obj 177 221 expr 44100 / $f1;
#X msg 309 88 stop;
#X floatatom 236 353 5 0 0 0 - - -;
#N canvas 0 22 450 278 (subpatch) 0;
#X array R4 984911 float 2;
#X coords 0 1 984911 -1 20 20 1 0 0;
#X restore 518 119 graph;
#X obj 72 202 metro 500;
#X msg 248 287 1;
#X obj 321 629 outlet~;
#X msg 298 495 0.5;
#X msg 99 152 500;
#X obj 419 81 r play4;
#X obj 419 105 r stop4;
#X msg 180 120 read -resize \$1 L4 R4;
#X obj 419 129 r vol4;
#X obj 419 178 r normalspeed4;
#X obj 420 202 r metrospeed4;
#X obj 420 224 r playspeed4;
#X obj 420 247 s speedvidim4;
#X obj 420 269 r start4;
#X obj 516 50 s sampleSize4;
#X obj 518 76 r sampleSize4;
#X obj 533 153 tabread~ R4;
#X obj 532 179 tabread~ L4;
#X obj 612 48 r resetmetro4;
#X obj 421 156 r playmetro4;
#X msg 417 50 open sample04.wav;
#X connect 0 0 1 0;
#X connect 2 0 3 0;
#X connect 2 0 31 0;
#X connect 3 0 49 0;
#X connect 4 0 10 1;
#X connect 5 0 6 0;
#X connect 6 0 15 0;
#X connect 6 0 51 0;
#X connect 6 0 52 0;
#X connect 7 0 6 1;
#X connect 8 0 5 0;
#X connect 8 0 33 0;
#X connect 10 0 8 0;
#X connect 12 0 20 0;
#X connect 14 0 15 0;
#X connect 15 0 16 0;
#X connect 16 0 18 0;
#X connect 18 0 17 0;
#X connect 19 0 3 0;
#X connect 20 0 37 0;
#X connect 21 0 12 1;
#X connect 21 0 13 1;
#X connect 22 0 26 0;
#X connect 23 0 8 0;
#X connect 23 0 47 0;
#X connect 24 0 23 0;
#X connect 25 0 24 0;
#X connect 26 0 25 0;
#X connect 27 0 28 0;
#X connect 28 0 29 0;
#X connect 30 0 14 0;
#X connect 31 0 4 0;
#X connect 31 0 5 0;
#X connect 32 0 42 0;
#X connect 35 0 22 0;
#X connect 36 0 8 0;
#X connect 38 0 20 1;
#X connect 39 0 35 1;
#X connect 40 0 55 0;
#X connect 41 0 32 0;
#X connect 42 0 2 0;
#X connect 43 0 20 1;
#X connect 44 0 36 0;
#X connect 45 0 35 1;
#X connect 46 0 8 0;
#X connect 48 0 21 0;
#X connect 48 0 38 0;
#X connect 50 0 18 1;
#X connect 51 0 13 0;
#X connect 52 0 12 0;
#X connect 53 0 39 0;
#X connect 54 0 35 0;
#X connect 55 0 42 0;
#X restore 223 210 pd sound4;
#N canvas 218 118 967 558 outrc 0;
#X obj 31 304 writesf~ 2;
#X obj -15 21 inlet~;
#X obj 47 22 inlet~;
#X obj -8 304 dac~;
#X obj 218 113 bng 15 250 50 0 empty empty R 6 9 0 8 -258113 -1 -1
;
#X msg 65 193 stop;
#X obj 200 113 bng 15 250 50 0 empty empty S 5 8 0 8 -262144 -1 -262144
;
#X msg 122 22 color 1;
#X msg 211 19 color 0;
#X obj -89 90 line~;
#X obj -39 186 *~;
#X obj 22 172 *~;
#X obj -24 100 hip~ 3;
#X obj 32 102 hip~ 3;
#X obj -76 38 *;
#X obj -65 11 t f f;
#X obj -94 61 pack 0 30;
#X obj 291 245 symbol;
#X obj 314 129 t b b;
#X obj 102 114 nbx 3 14 0 999 0 1 empty empty empty 0 -8 0 10 -262144
-1 -1 100 256;
#X obj 50 139 / 100;
#X symbolatom 141 114 9 0 0 0 - - -;
#X obj 357 200 random 1000;
#X text 440 207 append a random nr to minimize the risk of overwriting
old recordings;
#X msg 271 322 open -bytes 4 rec_\$1_\$2.wav \, start;
#X obj 301 276 pack s f;
#X obj 395 25 loadbang;
#X msg 367 72 symbol modular;
#X text -4 -5 audio-in 1/2;
#X obj 50 161 moses 1;
#X obj 195 102 cnv 8 8 8 empty empty l 0 5 0 8 -262144 -4160 0;
#X obj 290 102 cnv 8 8 8 empty empty r 0 5 0 8 -262144 -4160 0;
#X obj 130 102 cnv 9 60 9 empty empty out/recorder 0 5 0 9 -262144
-13381 0;
#X obj 621 34 int;
#X obj 664 108 mod 60;
#X obj 589 71 div 60;
#X obj 620 107 mod 60;
#X obj 569 105 div 60;
#X obj 654 37 + 1;
#X msg 606 -14 0;
#X obj 654 -17 metro 1000;
#X obj 585 -42 t b b;
#X symbolatom 236 113 10 0 0 0 - - -;
#X msg 373 103 symbol 00:00:00;
#X msg 538 171 set symbol \$3:\$2:\$1;
#X obj 543 148 pack f f f;
#X text 88 -39 audio out and recorder \, level \, filename \, stop/start
\, saves in the current working-directory \, displays eleapsed time
during recording;
#X obj -78 -81 inlet~;
#X text -75 -99 mono in;
#X obj -31 -44 *~ 0.5;
#X obj 102 102 cnv 8 8 8 empty empty mono 0 5 0 8 -262144 -4160 0;
#X text 553 269 http://www.martin-brinkmann.de/pd-patches.html;
#X text 552 256 patch from martin brinkmann;
#X connect 1 0 12 0;
#X connect 2 0 13 0;
#X connect 4 0 7 0;
#X connect 4 0 18 0;
#X connect 4 0 41 0;
#X connect 5 0 0 0;
#X connect 6 0 5 0;
#X connect 6 0 8 0;
#X connect 7 0 6 0;
#X connect 8 0 6 0;
#X connect 9 0 11 0;
#X connect 9 0 10 0;
#X connect 10 0 3 0;
#X connect 10 0 0 0;
#X connect 11 0 3 1;
#X connect 11 0 0 1;
#X connect 12 0 10 1;
#X connect 13 0 11 1;
#X connect 14 0 16 0;
#X connect 15 0 14 0;
#X connect 15 1 14 1;
#X connect 16 0 9 0;
#X connect 17 0 25 0;
#X connect 18 0 17 0;
#X connect 18 1 22 0;
#X connect 19 0 20 0;
#X connect 20 0 29 0;
#X connect 21 0 17 1;
#X connect 22 0 25 1;
#X connect 24 0 0 0;
#X connect 25 0 24 0;
#X connect 26 0 27 0;
#X connect 26 0 43 0;
#X connect 27 0 21 0;
#X connect 29 0 15 0;
#X connect 29 1 16 0;
#X connect 33 0 35 0;
#X connect 33 0 34 0;
#X connect 33 0 38 0;
#X connect 34 0 45 0;
#X connect 35 0 36 0;
#X connect 35 0 37 0;
#X connect 36 0 45 1;
#X connect 37 0 45 2;
#X connect 38 0 33 1;
#X connect 39 0 33 1;
#X connect 40 0 33 0;
#X connect 41 0 40 0;
#X connect 41 1 39 0;
#X connect 43 0 42 0;
#X connect 44 0 42 0;
#X connect 45 0 44 0;
#X connect 47 0 49 0;
#X connect 49 0 12 0;
#X connect 49 0 13 0;
#X coords 0 -1 1 1 200 35 2 100 100;
#X restore 95 110 pd outrc;
#X connect 1 0 11 1;
#X connect 1 0 11 2;
#X connect 2 0 1 1;
#X connect 3 0 2 0;
#X connect 4 0 1 1;
#X connect 7 0 1 0;
#X connect 8 0 1 0;
#X connect 9 0 1 0;
#X connect 10 0 1 0;
#X coords 0 -1 1 1 300 160 2 20 20;
#X restore 39 432 pd play;
#N canvas -1786 413 1388 1063 play 0;
#N canvas 0 23 450 278 (subpatch) 0;
#X array L2 251490 float 2;
#X coords 0 1 251490 -1 200 140 1 0 0;
#X restore 373 30 graph;
#X obj 201 144 bng 26 250 50 0 empty empty empty 17 7 0 10 -262144
-258113 -1;
#X obj 201 32 vsl 26 60 0 2 0 0 empty empty empty 0 -9 0 10 -262144
-258113 -66577 0 1;
#X obj 85 30 bng 26 250 50 0 empty empty empty 17 7 0 10 -258113 -1
-1;
#X obj 85 70 bng 26 250 50 0 empty empty empty 17 7 0 10 -262144 -1
-1;
#X obj 85 105 bng 26 250 50 0 empty empty empty 17 7 0 10 -4034 -1
-1;
#X obj 201 105 tgl 26 0 empty empty empty 17 7 0 10 -262144 -258113
-1 0 1;
#X obj 299 32 vsl 26 60 100 2000 0 0 empty empty empty 0 -9 0 10 -262144
-258113 -66577 0 1;
#X obj 299 107 vsl 26 60 -1 1 0 0 empty empty empty 0 -9 0 10 -262144
-258113 -66577 0 1;
#X obj 85 144 bng 26 250 50 0 empty empty empty 17 7 0 10 -262144 -1
-1;
#X text 235 156 SPEED;
#X text 330 119 SPEED;
#X text 235 117 METRO;
#X text 328 40 SPEED;
#X text 328 29 Metro;
#X obj 34 30 tgl 26 0 empty empty empty 17 7 0 10 -262144 -1 -1 0 1
;
#X obj 456 253 bng 15 250 50 0 empty empty empty 17 7 0 10 -262144
-1 -1;
#X text 118 29 RECORD;
#X text 118 43 NEW SAMPLE;
#X text 118 70 STOP;
#X text 118 83 RECORD;
#X text 117 104 PLAY;
#X text 117 116 SAMPLE;
#X text 117 143 STOP;
#X text 117 156 SAMPLE;
#X text 234 32 VOL;
#X text 34 62 ON /;
#X text 35 74 OFF;
#X text 234 103 START;
#X text 235 142 NORMAL;
#X text 300 124 ___;
#X text 330 107 SAMPLE;
#N canvas -1342 308 406 434 sound2 0;
#X obj 71 213 writesf~;
#X obj 37 169 *~ 1;
#X obj 38 141 adc~;
#X msg 104 177 stop;
#X obj 75 20 inlet;
#X text 82 34 rec;
#X obj 123 19 inlet;
#X text 128 34 rec stop;
#X msg 76 83 open dv02.wav \, start;
#X connect 1 0 0 0;
#X connect 2 0 1 0;
#X connect 3 0 0 0;
#X connect 4 0 8 0;
#X connect 6 0 3 0;
#X connect 8 0 0 0;
#X restore 26 351 pd sound2;
#X obj 91 351 s play2;
#X obj 26 373 s start2;
#X obj 91 374 s stop2;
#X obj 145 351 s vol2;
#X obj 198 350 s playmetro2;
#X obj 281 349 s metrospeed2;
#X obj 372 349 r speedvidim2;
#X obj 459 349 s resetmetro2;
#X obj 290 371 s playspeed2;
#X obj 199 373 s normalspeed2;
#X obj 110 199 loadbang;
#X connect 1 0 42 0;
#X connect 2 0 36 0;
#X connect 3 0 32 0;
#X connect 4 0 32 1;
#X connect 4 0 33 0;
#X connect 5 0 33 0;
#X connect 6 0 37 0;
#X connect 7 0 38 0;
#X connect 8 0 41 0;
#X connect 9 0 35 0;
#X connect 15 0 34 0;
#X connect 16 0 40 0;
#X connect 39 0 8 0;
#X connect 43 0 5 0;
#X coords 0 -1 1 1 565 160 2 20 20;
#X restore 34 201 pd play;
#N canvas -1786 413 1388 1063 play 0;
#N canvas 0 23 450 278 (subpatch) 0;
#X array L3 352800 float 2;
#X coords 0 1 352800 -1 200 140 1 0 0;
#X restore 373 30 graph;
#X obj 201 144 bng 26 250 50 0 empty empty empty 17 7 0 10 -262144
-258113 -1;
#X obj 201 32 vsl 26 60 0 2 0 0 empty empty empty 0 -9 0 10 -262144
-258113 -66577 0 1;
#X obj 85 30 bng 26 250 50 0 empty empty empty 17 7 0 10 -258113 -1
-1;
#X obj 85 70 bng 26 250 50 0 empty empty empty 17 7 0 10 -262144 -1
-1;
#X obj 85 105 bng 26 250 50 0 empty empty empty 17 7 0 10 -4034 -1
-1;
#X obj 201 105 tgl 26 0 empty empty empty 17 7 0 10 -262144 -258113
-1 0 1;
#X obj 299 32 vsl 26 60 100 2000 0 0 empty empty empty 0 -9 0 10 -262144
-258113 -66577 0 1;
#X obj 299 107 vsl 26 60 -1 1 0 0 empty empty empty 0 -9 0 10 -262144
-258113 -66577 0 1;
#X obj 85 144 bng 26 250 50 0 empty empty empty 17 7 0 10 -262144 -1
-1;
#X text 235 156 SPEED;
#X text 330 119 SPEED;
#X text 235 117 METRO;
#X text 328 40 SPEED;
#X text 328 29 Metro;
#X obj 34 30 tgl 26 0 empty empty empty 17 7 0 10 -262144 -1 -1 0 1
;
#X obj 456 253 bng 15 250 50 0 empty empty empty 17 7 0 10 -262144
-1 -1;
#X text 118 29 RECORD;
#X text 118 43 NEW SAMPLE;
#X text 118 70 STOP;
#X text 118 83 RECORD;
#X text 117 104 PLAY;
#X text 117 116 SAMPLE;
#X text 117 143 STOP;
#X text 117 156 SAMPLE;
#X text 234 32 VOL;
#X text 34 62 ON /;
#X text 35 74 OFF;
#X text 234 103 START;
#X text 235 142 NORMAL;
#X text 300 124 ___;
#X text 330 107 SAMPLE;
#N canvas -1342 308 406 434 sound3 0;
#X obj 71 213 writesf~;
#X obj 37 169 *~ 1;
#X obj 38 141 adc~;
#X msg 104 177 stop;
#X obj 75 20 inlet;
#X text 82 34 rec;
#X obj 123 19 inlet;
#X text 128 34 rec stop;
#X msg 76 83 open dv03.wav \, start;
#X connect 1 0 0 0;
#X connect 2 0 1 0;
#X connect 3 0 0 0;
#X connect 4 0 8 0;
#X connect 6 0 3 0;
#X connect 8 0 0 0;
#X restore 26 351 pd sound3;
#X obj 26 373 s start3;
#X obj 91 374 s stop3;
#X obj 91 351 s play3;
#X obj 145 351 s vol3;
#X obj 198 350 s playmetro3;
#X obj 199 373 s normalspeed3;
#X obj 290 371 s playspeed3;
#X obj 281 349 s metrospeed3;
#X obj 372 349 r speedvidim3;
#X obj 458 349 s resetmetro3;
#X obj 110 199 loadbang;
#X connect 1 0 38 0;
#X connect 2 0 36 0;
#X connect 3 0 32 0;
#X connect 4 0 32 1;
#X connect 4 0 35 0;
#X connect 5 0 35 0;
#X connect 6 0 37 0;
#X connect 7 0 40 0;
#X connect 8 0 39 0;
#X connect 9 0 34 0;
#X connect 15 0 33 0;
#X connect 16 0 42 0;
#X connect 41 0 8 0;
#X connect 43 0 5 0;
#X coords 0 -1 1 1 565 160 2 20 20;
#X restore 612 31 pd play;
#N canvas -1611 664 1388 1063 play 0;
#N canvas 0 23 450 278 (subpatch) 0;
#X array L4 984911 float 2;
#X coords 0 1 984911 -1 200 140 1 0 0;
#X restore 373 30 graph;
#X obj 201 144 bng 26 250 50 0 empty empty empty 17 7 0 10 -262144
-258113 -1;
#X obj 201 32 vsl 26 60 0 2 0 0 empty empty empty 0 -9 0 10 -262144
-258113 -66577 0 1;
#X obj 85 30 bng 26 250 50 0 empty empty empty 17 7 0 10 -258113 -1
-1;
#X obj 85 70 bng 26 250 50 0 empty empty empty 17 7 0 10 -262144 -1
-1;
#X obj 85 105 bng 26 250 50 0 empty empty empty 17 7 0 10 -4034 -1
-1;
#X obj 201 105 tgl 26 0 empty empty empty 17 7 0 10 -262144 -258113
-1 0 1;
#X obj 299 32 vsl 26 60 100 2000 0 0 empty empty empty 0 -9 0 10 -262144
-258113 -66577 0 1;
#X obj 299 107 vsl 26 60 -1 1 0 0 empty empty empty 0 -9 0 10 -262144
-258113 -66577 0 1;
#X obj 85 144 bng 26 250 50 0 empty empty empty 17 7 0 10 -262144 -1
-1;
#X text 235 156 SPEED;
#X text 330 119 SPEED;
#X text 235 117 METRO;
#X text 328 40 SPEED;
#X text 328 29 Metro;
#X obj 34 30 tgl 26 0 empty empty empty 17 7 0 10 -262144 -1 -1 0 1
;
#X obj 456 253 bng 15 250 50 0 empty empty empty 17 7 0 10 -262144
-1 -1;
#X text 118 29 RECORD;
#X text 118 43 NEW SAMPLE;
#X text 118 70 STOP;
#X text 118 83 RECORD;
#X text 117 104 PLAY;
#X text 117 116 SAMPLE;
#X text 117 143 STOP;
#X text 117 156 SAMPLE;
#X text 234 32 VOL;
#X text 34 62 ON /;
#X text 35 74 OFF;
#X text 234 103 START;
#X text 235 142 NORMAL;
#X text 300 124 ___;
#X text 330 107 SAMPLE;
#N canvas -1835 1180 406 434 sound4 0;
#X obj 71 213 writesf~;
#X obj 37 169 *~ 1;
#X obj 38 141 adc~;
#X msg 104 177 stop;
#X obj 75 20 inlet;
#X text 82 34 rec;
#X obj 123 19 inlet;
#X text 128 34 rec stop;
#X msg 76 83 open dv04.wav \, start;
#X connect 1 0 0 0;
#X connect 2 0 1 0;
#X connect 3 0 0 0;
#X connect 4 0 8 0;
#X connect 6 0 3 0;
#X connect 8 0 0 0;
#X restore 26 350 pd sound4;
#X obj 26 373 s start4;
#X obj 92 351 s play4;
#X obj 90 374 s stop4;
#X obj 145 351 s vol4;
#X obj 198 350 s playmetro4;
#X obj 199 373 s normalspeed4;
#X obj 281 349 s metrospeed4;
#X obj 290 372 s playspeed4;
#X obj 372 349 r speedvidim4;
#X obj 458 349 s resetmetro4;
#X obj 110 199 loadbang;
#X connect 1 0 38 0;
#X connect 2 0 36 0;
#X connect 3 0 32 0;
#X connect 4 0 32 1;
#X connect 4 0 34 0;
#X connect 5 0 34 0;
#X connect 6 0 37 0;
#X connect 7 0 39 0;
#X connect 8 0 40 0;
#X connect 9 0 35 0;
#X connect 15 0 33 0;
#X connect 16 0 42 0;
#X connect 41 0 8 0;
#X connect 43 0 5 0;
#X coords 0 -1 1 1 565 160 2 20 20;
#X restore 612 201 pd play;
#X text 1103 591 lomz 2019;
