#N canvas 289 0 1208 683 10;
#X obj 299 805 dac~;
#X obj 295 27 ~start;
#X obj 295 106 ~seq1;
#X obj 299 645 ~mixer;
#X obj 301 323 ~sound1;
#X obj 299 540 ~fx;
#X obj 269 106 bng 24 250 50 0 empty empty empty 17 7 0 10 -262144
-1 -1;
#X obj 235 112 s t1;
#X obj 269 133 bng 24 250 50 0 empty empty empty 17 7 0 10 -262144
-1 -1;
#X obj 235 139 s t2;
#X obj 295 79 ~seq2;
#X obj 269 160 bng 24 250 50 0 empty empty empty 17 7 0 10 -262144
-1 -1;
#X obj 235 166 s t3;
#X obj 269 187 bng 24 250 50 0 empty empty empty 17 7 0 10 -262144
-1 -1;
#X obj 235 193 s t4;
#X obj 269 214 bng 24 250 50 0 empty empty empty 17 7 0 10 -262144
-1 -1;
#X obj 269 241 bng 24 250 50 0 empty empty empty 17 7 0 10 -262144
-1 -1;
#X obj 269 268 bng 24 250 50 0 empty empty empty 17 7 0 10 -262144
-1 -1;
#X obj 269 295 bng 24 250 50 0 empty empty empty 17 7 0 10 -262144
-1 -1;
#X obj 235 220 s t5;
#X obj 235 247 s t6;
#X obj 235 274 s t7;
#X obj 235 301 s t8;
#X obj 389 323 ~sound2;
#X obj 477 323 ~sound3;
#X obj 565 323 ~sound4;
#X obj 301 426 ~sound5;
#X obj 389 426 ~sound6;
#X obj 477 426 ~sound7;
#X obj 565 426 ~sound8;
#X obj 295 133 ~seq1;
#X obj 295 160 ~seq1;
#X obj 295 187 ~seq1;
#X obj 295 214 ~seq1;
#X obj 295 241 ~seq1;
#X obj 295 268 ~seq1;
#X obj 295 295 ~seq1;
#X msg 893 701 start;
#X msg 900 725 stop;
#X obj 786 752 writesf~ 2;
#X text 915 558 Create file;
#X text 932 700 Start Recording;
#X text 931 723 Stop Recording;
#X obj 893 669 r rec;
#X obj 945 664 r stop;
#X obj 786 537 bng 15 250 50 0 empty empty empty 17 7 0 10 -262144
-1 -1;
#X obj 786 514 r recset;
#X obj 744 720 *~ 0.9;
#X obj 792 719 *~ 0.9;
#X obj 792 417 bng 15 250 50 0 empty empty empty 17 7 0 10 -258113
-1 -1;
#X obj 891 414 bng 15 250 50 0 empty empty empty 17 7 0 10 -262144
-1 -1;
#X text 811 414 record audio;
#X text 910 411 stop;
#X obj 735 443 s recset;
#X obj 735 416 bng 15 250 50 0 empty empty empty 17 7 0 10 -262144
-1 -1;
#X text 752 414 reset;
#X msg 786 556 open Song.wav;
#X connect 1 0 2 0;
#X connect 1 0 10 0;
#X connect 1 0 30 0;
#X connect 1 0 31 0;
#X connect 1 0 32 0;
#X connect 1 0 33 0;
#X connect 1 0 34 0;
#X connect 1 0 35 0;
#X connect 1 0 36 0;
#X connect 2 0 6 0;
#X connect 3 0 0 0;
#X connect 3 0 0 1;
#X connect 3 0 0 0;
#X connect 3 0 0 1;
#X connect 3 0 47 0;
#X connect 3 0 48 0;
#X connect 4 0 5 0;
#X connect 5 0 3 0;
#X connect 6 0 7 0;
#X connect 8 0 9 0;
#X connect 11 0 12 0;
#X connect 13 0 14 0;
#X connect 15 0 19 0;
#X connect 16 0 20 0;
#X connect 17 0 21 0;
#X connect 18 0 22 0;
#X connect 23 0 5 0;
#X connect 24 0 5 0;
#X connect 25 0 5 0;
#X connect 26 0 5 0;
#X connect 27 0 5 0;
#X connect 28 0 5 0;
#X connect 29 0 5 0;
#X connect 30 0 8 0;
#X connect 31 0 11 0;
#X connect 32 0 13 0;
#X connect 33 0 15 0;
#X connect 34 0 16 0;
#X connect 35 0 17 0;
#X connect 36 0 18 0;
#X connect 37 0 39 0;
#X connect 38 0 39 0;
#X connect 43 0 37 0;
#X connect 44 0 38 0;
#X connect 45 0 56 0;
#X connect 46 0 45 0;
#X connect 47 0 39 0;
#X connect 48 0 39 1;
#X connect 49 0 37 0;
#X connect 50 0 38 0;
#X connect 54 0 53 0;
#X connect 56 0 39 0;
