#N canvas 570 108 1118 773 10;
#X obj 161 159 bng 20 250 50 0 empty empty empty 17 7 0 10 -258113
-1 -1;
#X obj 161 179 bng 20 250 50 0 empty empty empty 17 7 0 10 -262144
-1 -1;
#X obj 103 159 bng 20 250 50 0 empty empty empty 17 7 0 10 -4034 -1
-1;
#X obj 103 179 bng 20 250 50 0 empty empty empty 17 7 0 10 -262144
-1 -1;
#X obj 126 161 vsl 15 35 0 15 0 0 empty empty empty 0 -9 0 10 -262144
-1 -1 2267 1;
#X text 11 101 rec/play;
#X text 32 119 stop;
#X obj 305 357 writesf~;
#X obj 271 313 *~ 1;
#X obj 272 285 adc~;
#X msg 338 321 stop;
#X text 308 205 rec;
#X text 333 303 rec stop;
#X msg 116 242 stop;
#X obj 106 266 readsf~;
#X obj 106 325 *~;
#X obj 105 375 outlet~;
#X obj 485 24 loadbang;
#X msg 172 41 10;
#N canvas 5 50 866 516 record-sample 0;
#X msg 201 290 bang;
#X obj 471 41 r aux;
#X obj 263 232 r~ inL;
#X obj 322 231 r~ inR;
#X obj 307 413 tabwrite~ newsample;
#X msg 46 328 \; newsample normalize 1;
#X obj 531 42 r fs;
#X obj 521 306 s led;
#X msg 543 271 0;
#X obj 471 90 sel 1 0;
#X obj 614 261 timer;
#X obj 614 344 s dur;
#X obj 614 291 * 44.1;
#X obj 306 170 t b b;
#X obj 306 359 *~;
#X obj 362 319 line~;
#X msg 383 235 1 1;
#X msg 437 235 0 2;
#X obj 201 255 delay 1;
#X obj 614 319 expr if($f1 > 88200 \, 88200 \, $f1);
#X obj 46 296 delay 2100;
#X msg 506 270 1;
#X text 601 383 time length of recording in samples;
#X text 16 25 records as long as aux button or foot switch are held
down;
#X text 82 46 max 2 seconds;
#X text 43 387 normalize when done;
#X connect 0 0 4 0;
#X connect 1 0 9 0;
#X connect 2 0 14 0;
#X connect 3 0 14 0;
#X connect 6 0 9 0;
#X connect 8 0 7 0;
#X connect 9 0 10 0;
#X connect 9 0 21 0;
#X connect 9 0 13 0;
#X connect 9 1 10 1;
#X connect 9 1 8 0;
#X connect 9 1 17 0;
#X connect 10 0 12 0;
#X connect 12 0 19 0;
#X connect 13 0 18 0;
#X connect 13 0 20 0;
#X connect 13 1 16 0;
#X connect 14 0 4 0;
#X connect 15 0 14 1;
#X connect 16 0 15 0;
#X connect 17 0 15 0;
#X connect 18 0 0 0;
#X connect 19 0 11 0;
#X connect 20 0 5 0;
#X connect 21 0 7 0;
#X restore 1121 220 pd record-sample;
#N canvas 5 50 866 516 record-sample 0;
#X msg 201 290 bang;
#X obj 471 41 r aux;
#X obj 263 232 r~ inL;
#X obj 322 231 r~ inR;
#X obj 307 413 tabwrite~ newsample;
#X msg 46 328 \; newsample normalize 1;
#X obj 531 42 r fs;
#X obj 521 306 s led;
#X msg 543 271 0;
#X obj 471 90 sel 1 0;
#X obj 614 261 timer;
#X obj 614 344 s dur;
#X obj 614 291 * 44.1;
#X obj 306 170 t b b;
#X obj 306 359 *~;
#X obj 362 319 line~;
#X msg 383 235 1 1;
#X msg 437 235 0 2;
#X obj 201 255 delay 1;
#X obj 614 319 expr if($f1 > 88200 \, 88200 \, $f1);
#X obj 46 296 delay 2100;
#X msg 506 270 1;
#X text 601 383 time length of recording in samples;
#X text 16 25 records as long as aux button or foot switch are held
down;
#X text 82 46 max 2 seconds;
#X text 43 387 normalize when done;
#X connect 0 0 4 0;
#X connect 1 0 9 0;
#X connect 2 0 14 0;
#X connect 3 0 14 0;
#X connect 6 0 9 0;
#X connect 8 0 7 0;
#X connect 9 0 10 0;
#X connect 9 0 21 0;
#X connect 9 0 13 0;
#X connect 9 1 10 1;
#X connect 9 1 8 0;
#X connect 9 1 17 0;
#X connect 10 0 12 0;
#X connect 12 0 19 0;
#X connect 13 0 18 0;
#X connect 13 0 20 0;
#X connect 13 1 16 0;
#X connect 14 0 4 0;
#X connect 15 0 14 1;
#X connect 16 0 15 0;
#X connect 17 0 15 0;
#X connect 18 0 0 0;
#X connect 19 0 11 0;
#X connect 20 0 5 0;
#X connect 21 0 7 0;
#X restore 1131 230 pd record-sample;
#N canvas 5 50 866 516 record-sample 0;
#X msg 201 290 bang;
#X obj 471 41 r aux;
#X obj 263 232 r~ inL;
#X obj 322 231 r~ inR;
#X obj 307 413 tabwrite~ newsample;
#X msg 46 328 \; newsample normalize 1;
#X obj 531 42 r fs;
#X obj 521 306 s led;
#X msg 543 271 0;
#X obj 471 90 sel 1 0;
#X obj 614 261 timer;
#X obj 614 344 s dur;
#X obj 614 291 * 44.1;
#X obj 306 170 t b b;
#X obj 306 359 *~;
#X obj 362 319 line~;
#X msg 383 235 1 1;
#X msg 437 235 0 2;
#X obj 201 255 delay 1;
#X obj 614 319 expr if($f1 > 88200 \, 88200 \, $f1);
#X obj 46 296 delay 2100;
#X msg 506 270 1;
#X text 601 383 time length of recording in samples;
#X text 16 25 records as long as aux button or foot switch are held
down;
#X text 82 46 max 2 seconds;
#X text 43 387 normalize when done;
#X connect 0 0 4 0;
#X connect 1 0 9 0;
#X connect 2 0 14 0;
#X connect 3 0 14 0;
#X connect 6 0 9 0;
#X connect 8 0 7 0;
#X connect 9 0 10 0;
#X connect 9 0 21 0;
#X connect 9 0 13 0;
#X connect 9 1 10 1;
#X connect 9 1 8 0;
#X connect 9 1 17 0;
#X connect 10 0 12 0;
#X connect 12 0 19 0;
#X connect 13 0 18 0;
#X connect 13 0 20 0;
#X connect 13 1 16 0;
#X connect 14 0 4 0;
#X connect 15 0 14 1;
#X connect 16 0 15 0;
#X connect 17 0 15 0;
#X connect 18 0 0 0;
#X connect 19 0 11 0;
#X connect 20 0 5 0;
#X connect 21 0 7 0;
#X restore 1141 240 pd record-sample;
#N canvas 5 50 866 516 record-sample 0;
#X msg 201 290 bang;
#X obj 471 41 r aux;
#X obj 263 232 r~ inL;
#X obj 322 231 r~ inR;
#X obj 307 413 tabwrite~ newsample;
#X msg 46 328 \; newsample normalize 1;
#X obj 531 42 r fs;
#X obj 521 306 s led;
#X msg 543 271 0;
#X obj 471 90 sel 1 0;
#X obj 614 261 timer;
#X obj 614 344 s dur;
#X obj 614 291 * 44.1;
#X obj 306 170 t b b;
#X obj 306 359 *~;
#X obj 362 319 line~;
#X msg 383 235 1 1;
#X msg 437 235 0 2;
#X obj 201 255 delay 1;
#X obj 614 319 expr if($f1 > 88200 \, 88200 \, $f1);
#X obj 46 296 delay 2100;
#X msg 506 270 1;
#X text 601 383 time length of recording in samples;
#X text 16 25 records as long as aux button or foot switch are held
down;
#X text 82 46 max 2 seconds;
#X text 43 387 normalize when done;
#X connect 0 0 4 0;
#X connect 1 0 9 0;
#X connect 2 0 14 0;
#X connect 3 0 14 0;
#X connect 6 0 9 0;
#X connect 8 0 7 0;
#X connect 9 0 10 0;
#X connect 9 0 21 0;
#X connect 9 0 13 0;
#X connect 9 1 10 1;
#X connect 9 1 8 0;
#X connect 9 1 17 0;
#X connect 10 0 12 0;
#X connect 12 0 19 0;
#X connect 13 0 18 0;
#X connect 13 0 20 0;
#X connect 13 1 16 0;
#X connect 14 0 4 0;
#X connect 15 0 14 1;
#X connect 16 0 15 0;
#X connect 17 0 15 0;
#X connect 18 0 0 0;
#X connect 19 0 11 0;
#X connect 20 0 5 0;
#X connect 21 0 7 0;
#X restore 1151 250 pd record-sample;
#N canvas 5 50 866 516 record-sample 0;
#X msg 201 290 bang;
#X obj 471 41 r aux;
#X obj 263 232 r~ inL;
#X obj 322 231 r~ inR;
#X obj 307 413 tabwrite~ newsample;
#X msg 46 328 \; newsample normalize 1;
#X obj 531 42 r fs;
#X obj 521 306 s led;
#X msg 543 271 0;
#X obj 471 90 sel 1 0;
#X obj 614 261 timer;
#X obj 614 344 s dur;
#X obj 614 291 * 44.1;
#X obj 306 170 t b b;
#X obj 306 359 *~;
#X obj 362 319 line~;
#X msg 383 235 1 1;
#X msg 437 235 0 2;
#X obj 201 255 delay 1;
#X obj 614 319 expr if($f1 > 88200 \, 88200 \, $f1);
#X obj 46 296 delay 2100;
#X msg 506 270 1;
#X text 601 383 time length of recording in samples;
#X text 16 25 records as long as aux button or foot switch are held
down;
#X text 82 46 max 2 seconds;
#X text 43 387 normalize when done;
#X connect 0 0 4 0;
#X connect 1 0 9 0;
#X connect 2 0 14 0;
#X connect 3 0 14 0;
#X connect 6 0 9 0;
#X connect 8 0 7 0;
#X connect 9 0 10 0;
#X connect 9 0 21 0;
#X connect 9 0 13 0;
#X connect 9 1 10 1;
#X connect 9 1 8 0;
#X connect 9 1 17 0;
#X connect 10 0 12 0;
#X connect 12 0 19 0;
#X connect 13 0 18 0;
#X connect 13 0 20 0;
#X connect 13 1 16 0;
#X connect 14 0 4 0;
#X connect 15 0 14 1;
#X connect 16 0 15 0;
#X connect 17 0 15 0;
#X connect 18 0 0 0;
#X connect 19 0 11 0;
#X connect 20 0 5 0;
#X connect 21 0 7 0;
#X restore 1121 220 pd record-sample;
#N canvas 5 50 866 516 record-sample 0;
#X msg 201 290 bang;
#X obj 471 41 r aux;
#X obj 263 232 r~ inL;
#X obj 322 231 r~ inR;
#X obj 307 413 tabwrite~ newsample;
#X msg 46 328 \; newsample normalize 1;
#X obj 531 42 r fs;
#X obj 521 306 s led;
#X msg 543 271 0;
#X obj 471 90 sel 1 0;
#X obj 614 261 timer;
#X obj 614 344 s dur;
#X obj 614 291 * 44.1;
#X obj 306 170 t b b;
#X obj 306 359 *~;
#X obj 362 319 line~;
#X msg 383 235 1 1;
#X msg 437 235 0 2;
#X obj 201 255 delay 1;
#X obj 614 319 expr if($f1 > 88200 \, 88200 \, $f1);
#X obj 46 296 delay 2100;
#X msg 506 270 1;
#X text 601 383 time length of recording in samples;
#X text 16 25 records as long as aux button or foot switch are held
down;
#X text 82 46 max 2 seconds;
#X text 43 387 normalize when done;
#X connect 0 0 4 0;
#X connect 1 0 9 0;
#X connect 2 0 14 0;
#X connect 3 0 14 0;
#X connect 6 0 9 0;
#X connect 8 0 7 0;
#X connect 9 0 10 0;
#X connect 9 0 21 0;
#X connect 9 0 13 0;
#X connect 9 1 10 1;
#X connect 9 1 8 0;
#X connect 9 1 17 0;
#X connect 10 0 12 0;
#X connect 12 0 19 0;
#X connect 13 0 18 0;
#X connect 13 0 20 0;
#X connect 13 1 16 0;
#X connect 14 0 4 0;
#X connect 15 0 14 1;
#X connect 16 0 15 0;
#X connect 17 0 15 0;
#X connect 18 0 0 0;
#X connect 19 0 11 0;
#X connect 20 0 5 0;
#X connect 21 0 7 0;
#X restore 1131 230 pd record-sample;
#N canvas 5 50 866 516 record-sample 0;
#X msg 201 290 bang;
#X obj 471 41 r aux;
#X obj 263 232 r~ inL;
#X obj 322 231 r~ inR;
#X obj 307 413 tabwrite~ newsample;
#X msg 46 328 \; newsample normalize 1;
#X obj 531 42 r fs;
#X obj 521 306 s led;
#X msg 543 271 0;
#X obj 471 90 sel 1 0;
#X obj 614 261 timer;
#X obj 614 344 s dur;
#X obj 614 291 * 44.1;
#X obj 306 170 t b b;
#X obj 306 359 *~;
#X obj 362 319 line~;
#X msg 383 235 1 1;
#X msg 437 235 0 2;
#X obj 201 255 delay 1;
#X obj 614 319 expr if($f1 > 88200 \, 88200 \, $f1);
#X obj 46 296 delay 2100;
#X msg 506 270 1;
#X text 601 383 time length of recording in samples;
#X text 16 25 records as long as aux button or foot switch are held
down;
#X text 82 46 max 2 seconds;
#X text 43 387 normalize when done;
#X connect 0 0 4 0;
#X connect 1 0 9 0;
#X connect 2 0 14 0;
#X connect 3 0 14 0;
#X connect 6 0 9 0;
#X connect 8 0 7 0;
#X connect 9 0 10 0;
#X connect 9 0 21 0;
#X connect 9 0 13 0;
#X connect 9 1 10 1;
#X connect 9 1 8 0;
#X connect 9 1 17 0;
#X connect 10 0 12 0;
#X connect 12 0 19 0;
#X connect 13 0 18 0;
#X connect 13 0 20 0;
#X connect 13 1 16 0;
#X connect 14 0 4 0;
#X connect 15 0 14 1;
#X connect 16 0 15 0;
#X connect 17 0 15 0;
#X connect 18 0 0 0;
#X connect 19 0 11 0;
#X connect 20 0 5 0;
#X connect 21 0 7 0;
#X restore 1141 240 pd record-sample;
#N canvas 5 50 866 516 record-sample 0;
#X msg 201 290 bang;
#X obj 471 41 r aux;
#X obj 263 232 r~ inL;
#X obj 322 231 r~ inR;
#X obj 307 413 tabwrite~ newsample;
#X msg 46 328 \; newsample normalize 1;
#X obj 531 42 r fs;
#X obj 521 306 s led;
#X msg 543 271 0;
#X obj 471 90 sel 1 0;
#X obj 614 261 timer;
#X obj 614 344 s dur;
#X obj 614 291 * 44.1;
#X obj 306 170 t b b;
#X obj 306 359 *~;
#X obj 362 319 line~;
#X msg 383 235 1 1;
#X msg 437 235 0 2;
#X obj 201 255 delay 1;
#X obj 614 319 expr if($f1 > 88200 \, 88200 \, $f1);
#X obj 46 296 delay 2100;
#X msg 506 270 1;
#X text 601 383 time length of recording in samples;
#X text 16 25 records as long as aux button or foot switch are held
down;
#X text 82 46 max 2 seconds;
#X text 43 387 normalize when done;
#X connect 0 0 4 0;
#X connect 1 0 9 0;
#X connect 2 0 14 0;
#X connect 3 0 14 0;
#X connect 6 0 9 0;
#X connect 8 0 7 0;
#X connect 9 0 10 0;
#X connect 9 0 21 0;
#X connect 9 0 13 0;
#X connect 9 1 10 1;
#X connect 9 1 8 0;
#X connect 9 1 17 0;
#X connect 10 0 12 0;
#X connect 12 0 19 0;
#X connect 13 0 18 0;
#X connect 13 0 20 0;
#X connect 13 1 16 0;
#X connect 14 0 4 0;
#X connect 15 0 14 1;
#X connect 16 0 15 0;
#X connect 17 0 15 0;
#X connect 18 0 0 0;
#X connect 19 0 11 0;
#X connect 20 0 5 0;
#X connect 21 0 7 0;
#X restore 1151 250 pd record-sample;
#N canvas 5 50 866 516 record-sample 0;
#X msg 201 290 bang;
#X obj 471 41 r aux;
#X obj 263 232 r~ inL;
#X obj 322 231 r~ inR;
#X obj 307 413 tabwrite~ newsample;
#X msg 46 328 \; newsample normalize 1;
#X obj 531 42 r fs;
#X obj 521 306 s led;
#X msg 543 271 0;
#X obj 471 90 sel 1 0;
#X obj 614 261 timer;
#X obj 614 344 s dur;
#X obj 614 291 * 44.1;
#X obj 306 170 t b b;
#X obj 306 359 *~;
#X obj 362 319 line~;
#X msg 383 235 1 1;
#X msg 437 235 0 2;
#X obj 201 255 delay 1;
#X obj 614 319 expr if($f1 > 88200 \, 88200 \, $f1);
#X obj 46 296 delay 2100;
#X msg 506 270 1;
#X text 601 383 time length of recording in samples;
#X text 16 25 records as long as aux button or foot switch are held
down;
#X text 82 46 max 2 seconds;
#X text 43 387 normalize when done;
#X connect 0 0 4 0;
#X connect 1 0 9 0;
#X connect 2 0 14 0;
#X connect 3 0 14 0;
#X connect 6 0 9 0;
#X connect 8 0 7 0;
#X connect 9 0 10 0;
#X connect 9 0 21 0;
#X connect 9 0 13 0;
#X connect 9 1 10 1;
#X connect 9 1 8 0;
#X connect 9 1 17 0;
#X connect 10 0 12 0;
#X connect 12 0 19 0;
#X connect 13 0 18 0;
#X connect 13 0 20 0;
#X connect 13 1 16 0;
#X connect 14 0 4 0;
#X connect 15 0 14 1;
#X connect 16 0 15 0;
#X connect 17 0 15 0;
#X connect 18 0 0 0;
#X connect 19 0 11 0;
#X connect 20 0 5 0;
#X connect 21 0 7 0;
#X restore 1161 260 pd record-sample;
#X floatatom 156 291 5 0 0 0 - - -;
#X floatatom 156 335 5 0 0 0 - - -;
#X obj 106 351 *~ 1;
#X obj 143 161 vsl 15 35 0 2500 0 0 empty empty empty 0 -9 0 10 -262144
-1 -1 0 1;
#X obj 122 291 osc~;
#X obj 156 313 / 15;
#X obj 485 370 soundfiler;
#X obj 485 205 bng 15 250 50 0 empty empty empty 17 7 0 10 -262144
-1 -1;
#X obj 485 319 pack s;
#N canvas 0 50 450 250 (subpatch) 0;
#X array sound7 33024 float 2;
#X coords 0 1 33024 -1 78 40 1 0 0;
#X restore 103 116 graph;
#X obj 68 -7 r t7;
#X msg 485 233 symbol sound7.wav;
#X msg 485 344 read -resize \$1 sound7;
#X msg 307 227 open sound7.wav \, start;
#X msg 106 220 open sound7.wav \, start;
#X connect 0 0 41 0;
#X connect 1 0 10 0;
#X connect 1 0 35 0;
#X connect 2 0 42 0;
#X connect 3 0 13 0;
#X connect 4 0 28 0;
#X connect 8 0 7 0;
#X connect 9 0 8 0;
#X connect 10 0 7 0;
#X connect 13 0 14 0;
#X connect 14 0 15 0;
#X connect 15 0 30 0;
#X connect 17 0 18 0;
#X connect 17 0 35 0;
#X connect 18 0 4 0;
#X connect 28 0 33 0;
#X connect 29 0 30 1;
#X connect 30 0 16 0;
#X connect 31 0 32 0;
#X connect 32 0 15 1;
#X connect 33 0 29 0;
#X connect 35 0 39 0;
#X connect 36 0 40 0;
#X connect 38 0 2 0;
#X connect 39 0 36 0;
#X connect 40 0 34 0;
#X connect 41 0 7 0;
#X connect 42 0 14 0;
#X coords 0 -1 1 1 85 103 2 100 100;
