#N canvas 777 152 450 300 10;
#X msg 41 92 10;
#X msg 79 91 5;
#X obj 41 121 +;
#X obj 41 37 bng 15 250 50 0 empty empty empty 17 7 0 10 -262144 -1
-1;
#X obj 41 63 t b b;
#X floatatom 41 149 5 0 0 0 - - -;
#X text 41 204 www.lomz.net;
#X connect 0 0 2 0;
#X connect 1 0 2 1;
#X connect 2 0 5 0;
#X connect 3 0 4 0;
#X connect 4 0 0 0;
#X connect 4 1 1 0;
