#N canvas 395 269 328 302 10;
#X obj 40 118 metro 500;
#X obj 40 143 bng 15 250 50 0 empty empty empty 17 7 0 10 -262144 -1
-1;
#X msg 120 88 1;
#X msg 154 88 0;
#X msg 40 88 bang;
#X msg 80 88 stop;
#X text 38 169 www.lomz.net;
#X connect 0 0 1 0;
#X connect 2 0 0 0;
#X connect 3 0 0 0;
#X connect 4 0 0 0;
#X connect 5 0 0 0;
