#N canvas 43 71 612 475 10;
#X obj 221 242 metro;
#X msg 240 99 60000;
#X floatatom 306 98 5 0 0 0 - - -;
#X obj 241 145 /;
#X obj 227 50 t b b b;
#X obj 226 20 bng 15 250 50 0 empty empty empty 17 7 0 10 -262144 -1
-1;
#X floatatom 298 161 5 0 0 0 - - -;
#X obj 239 186 i;
#X floatatom 298 204 5 0 0 0 - - -;
#X msg 131 28 0;
#X msg 303 60 60;
#X obj 303 19 loadbang;
#X obj 220 295 i;
#X obj 268 298 + 1;
#X floatatom 173 277 5 0 0 0 - - -;
#X floatatom 218 329 5 0 0 0 - - -;
#X obj 218 360 % 8;
#X floatatom 217 408 5 0 0 0 - - -;
#X msg 242 269 0;
#X text 96 30 STOP;
#X text 278 269 RESET BROJANJA;
#X text 520 445 www.lomz.net;
#X connect 0 0 12 0;
#X connect 0 0 14 0;
#X connect 1 0 3 0;
#X connect 2 0 3 1;
#X connect 3 0 6 0;
#X connect 3 0 7 0;
#X connect 4 0 0 0;
#X connect 4 1 1 0;
#X connect 4 2 2 0;
#X connect 5 0 4 0;
#X connect 7 0 8 0;
#X connect 7 0 0 1;
#X connect 9 0 0 0;
#X connect 10 0 2 0;
#X connect 11 0 10 0;
#X connect 12 0 13 0;
#X connect 12 0 15 0;
#X connect 13 0 12 1;
#X connect 15 0 16 0;
#X connect 16 0 17 0;
#X connect 18 0 12 1;
