#N canvas 30 64 654 556 10;
#X obj 154 5 bng 15 250 50 0 empty empty empty 17 7 0 10 -262144 -1
-1;
#X obj 245 81 f;
#X obj 280 81 + 1;
#X obj 245 106 % 4;
#X floatatom 245 132 5 0 0 0 - - -;
#X obj 240 158 select 0 1 2 3;
#X obj 240 186 bng 15 250 50 0 empty empty empty 17 7 0 10 -262144
-1 -1;
#X obj 260 186 bng 15 250 50 0 empty empty empty 17 7 0 10 -262144
-1 -1;
#X obj 280 186 bng 15 250 50 0 empty empty empty 17 7 0 10 -262144
-1 -1;
#X obj 300 186 bng 15 250 50 0 empty empty empty 17 7 0 10 -262144
-1 -1;
#X floatatom 240 357 5 0 0 0 - - -;
#X floatatom 281 357 5 0 0 0 - - -;
#X floatatom 325 357 5 0 0 0 - - -;
#X floatatom 367 358 5 0 0 0 - - -;
#X msg 182 8 stop;
#X obj 277 408 osc~;
#X obj 277 457 dac~;
#X obj 240 217 vsl 15 128 110 440 0 0 empty empty empty 0 -9 0 10 -258113
-1 -1 5000 1;
#X obj 155 35 metro 600;
#X obj 240 3 bng 15 250 50 0 empty empty empty 17 7 0 10 -262144 -1
-1;
#X msg 268 6 stop;
#X obj 241 33 metro 900;
#X obj 321 -2 bng 15 250 50 0 empty empty empty 17 7 0 10 -262144 -1
-1;
#X msg 349 1 stop;
#X obj 323 28 metro 300;
#X msg 241 -37 stop;
#X text 284 -36 master stop;
#X obj 261 217 vsl 15 128 110 440 0 0 empty empty empty 0 -9 0 10 -258113
-1 -1 2000 1;
#X obj 282 217 vsl 15 128 110 440 0 0 empty empty empty 0 -9 0 10 -258113
-1 -1 9300 1;
#X obj 303 217 vsl 15 128 110 440 0 0 empty empty empty 0 -9 0 10 -258113
-1 -1 5800 1;
#X connect 0 0 18 0;
#X connect 1 0 2 0;
#X connect 1 0 3 0;
#X connect 2 0 1 1;
#X connect 3 0 4 0;
#X connect 4 0 5 0;
#X connect 5 0 6 0;
#X connect 5 1 7 0;
#X connect 5 2 8 0;
#X connect 5 3 9 0;
#X connect 6 0 17 0;
#X connect 7 0 27 0;
#X connect 8 0 28 0;
#X connect 9 0 29 0;
#X connect 10 0 15 0;
#X connect 11 0 15 0;
#X connect 12 0 15 0;
#X connect 13 0 15 0;
#X connect 14 0 18 0;
#X connect 15 0 16 0;
#X connect 15 0 16 1;
#X connect 17 0 10 0;
#X connect 18 0 1 0;
#X connect 19 0 21 0;
#X connect 20 0 21 0;
#X connect 21 0 1 0;
#X connect 22 0 24 0;
#X connect 23 0 24 0;
#X connect 24 0 1 0;
#X connect 25 0 18 0;
#X connect 25 0 21 0;
#X connect 25 0 24 0;
#X connect 27 0 11 0;
#X connect 28 0 12 0;
#X connect 29 0 13 0;
