#N canvas 27 41 619 556 10;
#X obj 122 245 vu 15 120 empty empty -1 -8 0 10 -66577 -1 1 0;
#X text 74 91;
#X msg 79 91 440;
#X obj 78 129 osc~;
#X obj 79 162 *~ 0.1;
#X obj 136 55 vsl 15 128 0 1 0 0 empty empty empty 0 -9 0 10 -262144
-1 -1 1700 1;
#X obj 80 212 dac~;
#X obj 121 210 pvu~;
#X text 192 237 <- object VU;
#X connect 2 0 3 0;
#X connect 3 0 4 0;
#X connect 4 0 6 0;
#X connect 4 0 6 1;
#X connect 4 0 7 0;
#X connect 5 0 4 1;
#X connect 7 0 0 0;
