#N canvas 220 170 385 388 10;
#X obj 21 40 tgl 15 0 empty empty empty 17 7 0 10 -262144 -1 -1 1 1
;
#X msg 21 62 \; pd dsp \$1;
#X floatatom 54 40 5 0 0 0 - - -;
#X msg 182 84 start;
#X msg 182 106 stop;
#X obj 243 161 dac~ 1 2;
#X obj 242 109 readsf~ 2;
#X obj 346 152 bng 15 250 50 0 empty empty empty 17 7 0 10 -262144
-1 -1;
#X msg 242 83 open \$1;
#X obj 243 50 openpanel;
#X obj 244 19 bng 15 250 50 0 empty empty empty 17 7 0 10 -262144 -1
-1;
#X obj 141 161 env~;
#X obj 181 161 env~;
#X obj 44 221 vu 15 120 empty empty -1 -8 0 10 -66577 -1 1 0;
#X obj 112 221 vu 15 120 empty empty -1 -8 0 10 -66577 -1 1 0;
#X obj 135 189 - 100;
#X obj 183 187 - 100;
#X text 266 18 OPEN;
#X text 193 218 <-- VU object;
#X text 19 18 DSP on/off;
#X connect 0 0 2 0;
#X connect 0 0 1 0;
#X connect 3 0 6 0;
#X connect 4 0 6 0;
#X connect 6 0 5 0;
#X connect 6 0 11 0;
#X connect 6 1 5 1;
#X connect 6 1 12 0;
#X connect 6 2 7 0;
#X connect 8 0 6 0;
#X connect 9 0 8 0;
#X connect 10 0 9 0;
#X connect 11 0 15 0;
#X connect 12 0 16 0;
#X connect 15 0 13 0;
#X connect 16 0 14 1;
