#N canvas 17 24 596 613 10;
#X obj 245 24 tgl 15 0 empty empty empty 17 7 0 10 -262144 -1 -1 1
1;
#X msg 245 46 \; pd dsp \$1;
#X floatatom 278 24 5 0 0 0 - - -;
#X obj 243 283 osc~ 440;
#X obj 186 307 *~;
#X obj 309 314 *~;
#X obj 180 344 *~ 0.1;
#X obj 309 342 *~ 0.1;
#X obj 122 361 env~;
#X obj 122 386 - 100;
#X obj 377 369 env~;
#X obj 377 394 - 100;
#X obj 233 413 dac~ 1 2;
#X obj 342 196 osc~ 2;
#X obj 341 223 *~;
#X text 245 268 Izvor;
#X text 283 195 modulator;
#X obj 377 223 hsl 30 15 0 1 0 0 empty empty empty -2 -8 0 10 -262144
-1 -1 2600 1;
#X obj 340 146 knob 32 32 0 10 0 0 empty empty empty 0 -8 0 8 -262144
-1 -1 1200 1;
#X text 309 141 rate;
#X text 373 237 depth;
#X obj 174 203 osc~ 2;
#X obj 173 230 *~;
#X text 111 203 modulator;
#X obj 209 230 hsl 30 15 0 1 0 0 empty empty empty -2 -8 0 10 -262144
-1 -1 1700 1;
#X obj 177 155 knob 32 32 0 10 0 0 empty empty empty 0 -8 0 8 -262144
-1 -1 2500 1;
#X text 141 148 rate;
#X obj 72 320 vu 15 120 empty empty -1 -8 0 10 -66577 -1 1 0;
#X obj 436 319 vu 15 120 empty empty -1 -8 0 10 -66577 -1 1 0;
#X connect 0 0 2 0;
#X connect 0 0 1 0;
#X connect 3 0 4 0;
#X connect 3 0 5 0;
#X connect 4 0 6 0;
#X connect 5 0 7 0;
#X connect 6 0 12 0;
#X connect 6 0 8 0;
#X connect 7 0 12 1;
#X connect 7 0 10 0;
#X connect 8 0 9 0;
#X connect 9 0 27 0;
#X connect 10 0 11 0;
#X connect 11 0 28 0;
#X connect 13 0 14 0;
#X connect 14 0 5 1;
#X connect 17 0 14 1;
#X connect 18 0 13 0;
#X connect 21 0 22 0;
#X connect 22 0 4 1;
#X connect 24 0 22 1;
#X connect 25 0 21 0;
