#N canvas 186 44 700 341 10;
#X obj 51 -173 tgl 15 0 empty empty empty 17 7 0 10 -262144 -1 -1 1
1;
#X msg 51 -151 \; pd dsp \$1;
#X floatatom 84 -173 5 0 0 0 - - -;
#X obj 174 39 dac~ 1 2;
#X obj 260 -46 knob 32 32 0 0.5 0 0 empty empty empty 0 -8 0 8 -262144
-1 -1 2400 1;
#X obj 259 19 line~;
#X msg 260 -3 \$1 500;
#X obj 174 -5 *~;
#X obj 173 -52 osc~ 440;
#X obj 53 -72 vu 15 120 empty empty -1 -8 0 10 -66577 -1 1 0;
#X obj 112 -77 env~;
#X obj 112 -51 - 100;
#X text 294 -26 volume;
#X obj 173 -83 +~;
#X floatatom 173 -108 5 0 0 0 - - -;
#X text 171 -126 corrier;
#X obj 232 -124 osc~;
#X floatatom 232 -148 5 0 0 0 - - -;
#X obj 231 -99 *~;
#X floatatom 272 -115 5 0 0 0 - - -;
#X text 232 -168 modulator Freq;
#X text 272 -133 mod index;
#X text 315 0 The [line~] object generates linear ramps whose levels
and timing are determined by messages you send it. The messages may
be a single target value (causing the output to jump to the target)
or a target and a time in milliseconds (to start a new ramp).;
#X connect 0 0 2 0;
#X connect 0 0 1 0;
#X connect 4 0 6 0;
#X connect 5 0 7 1;
#X connect 6 0 5 0;
#X connect 7 0 3 0;
#X connect 7 0 3 1;
#X connect 7 0 10 0;
#X connect 8 0 7 0;
#X connect 10 0 11 0;
#X connect 11 0 9 1;
#X connect 13 0 8 0;
#X connect 14 0 13 0;
#X connect 16 0 18 0;
#X connect 17 0 16 0;
#X connect 18 0 13 1;
#X connect 19 0 18 1;
