#N canvas 33 65 620 465 10;
#X obj 115 -103 tgl 15 0 empty empty empty 17 7 0 10 -262144 -1 -1
1 1;
#X msg 115 -81 \; pd dsp \$1;
#X floatatom 148 -103 5 0 0 0 - - -;
#X obj 186 143 dac~ 1 2;
#X obj 278 91 knob 32 32 0 0.5 0 0 empty empty empty 0 -8 0 8 -262144
-1 -1 2700 1;
#X obj 283 165 line~;
#X msg 283 141 \$1 500;
#X obj 186 99 *~;
#X obj 185 52 osc~ 440;
#X obj 119 39 vu 15 120 empty empty -1 -8 0 10 -66577 -1 1 0;
#X obj 129 -25 env~;
#X obj 129 1 - 100;
#X text 314 116 volume;
#X obj 185 21 +~;
#X floatatom 185 -4 5 0 0 0 - - -;
#X text 183 -22 corrier;
#X obj 244 -20 osc~;
#X floatatom 244 -44 5 0 0 0 - - -;
#X obj 243 5 *~;
#X floatatom 284 -11 5 0 0 0 - - -;
#X text 251 -64 modulator Freq;
#X text 282 3 mod index;
#X obj 423 -78 tgl 15 0 empty empty empty 17 7 0 10 -262144 -1 -1 1
1;
#X obj 423 -58 metro 125;
#X obj 423 -32 random 200;
#X obj 423 -5 s ndx;
#X obj 284 -38 r ndx;
#X obj 243 -123 random 200;
#X obj 243 -92 + 200;
#X text 464 -5 S send \, ndx;
#X text 328 -40 r risive ndx;
#X floatatom 387 -5 5 0 0 0 - - -;
#X text 443 -80 <- START RANDOM;
#X connect 0 0 2 0;
#X connect 0 0 1 0;
#X connect 4 0 6 0;
#X connect 5 0 7 1;
#X connect 6 0 5 0;
#X connect 7 0 3 0;
#X connect 7 0 3 1;
#X connect 7 0 10 0;
#X connect 8 0 7 0;
#X connect 10 0 11 0;
#X connect 11 0 9 1;
#X connect 13 0 8 0;
#X connect 14 0 13 0;
#X connect 16 0 18 0;
#X connect 17 0 16 0;
#X connect 18 0 13 1;
#X connect 19 0 18 1;
#X connect 22 0 23 0;
#X connect 23 0 24 0;
#X connect 23 0 27 0;
#X connect 24 0 25 0;
#X connect 24 0 31 0;
#X connect 26 0 19 0;
#X connect 27 0 28 0;
#X connect 28 0 17 0;
