#N canvas 61 36 731 565 10;
#X obj 303 44 tgl 15 0 empty empty empty 17 7 0 10 -262144 -1 -1 1
1;
#X obj 303 66 metro 250;
#X obj 303 90 int;
#X obj 341 90 + 1;
#X obj 303 138 sel 0 1 2 3 4 5 6 7;
#X obj 295 276 dac~;
#X msg 248 172 500;
#X msg 368 172 500;
#X msg 399 172 500;
#X msg 428 172 500;
#X msg 459 172 500;
#X obj 296 217 cycle~;
#X obj 295 243 *~ 0.1;
#X msg 279 172 700;
#X msg 308 172 800;
#X msg 339 172 900;
#X obj 303 114 % 8;
#X connect 0 0 1 0;
#X connect 1 0 2 0;
#X connect 2 0 3 0;
#X connect 2 0 16 0;
#X connect 3 0 2 1;
#X connect 4 0 6 0;
#X connect 4 1 13 0;
#X connect 4 2 14 0;
#X connect 4 3 15 0;
#X connect 4 4 7 0;
#X connect 4 5 8 0;
#X connect 4 6 9 0;
#X connect 4 7 10 0;
#X connect 6 0 11 0;
#X connect 7 0 11 0;
#X connect 8 0 11 0;
#X connect 9 0 11 0;
#X connect 10 0 11 0;
#X connect 11 0 12 0;
#X connect 12 0 5 0;
#X connect 12 0 5 1;
#X connect 13 0 11 0;
#X connect 14 0 11 0;
#X connect 15 0 11 0;
#X connect 16 0 4 0;
