#N canvas 114 86 450 300 10;
#X obj 61 49 phasor~ 0.125;
#X obj 60 108 expr~ ($v1+3)^((($v1*5)^($v1>>7|$v1*3|$v1>>1/8))|$v1>>$v2)
;
#X obj 60 160 expr~ ($v1%$v2)/$v2;
#X obj 59 188 dac~;
#X obj 170 134 expr~ pow(2 \, 9);
#X obj 282 78 expr~ if($v1%2 \, 0 \, 4);
#X obj 276 50 expr~ floor($v1*64 \, 0);
#X obj 60 78 expr~ floor ($v1*pow(2 \, 17) \, 0);
#X connect 0 0 7 0;
#X connect 1 0 2 0;
#X connect 2 0 3 0;
#X connect 4 0 2 1;
#X connect 5 0 1 1;
#X connect 6 0 5 0;
#X connect 7 0 1 0;
