#N canvas 772 83 674 736 10;
#X obj 47 315 bng 32 250 50 0 empty empty empty 17 7 0 10 -262144 -1
-1;
#X obj 335 606 dac~;
#N canvas 990 255 450 300 q 0;
#X floatatom 121 143 5 0 0 0 - - -;
#X floatatom 163 143 5 0 0 0 - - -;
#X obj 121 172 osc~;
#X obj 99 199 *~;
#X obj 163 172 / 767;
#X floatatom 163 198 5 0 0 0 - - -;
#X obj 98 223 *~ 1;
#X msg 96 87 open Atari_2600_No_Env_163.wav \, 1;
#X obj 97 112 readsf~;
#X obj 91 50 inlet;
#X obj 132 50 inlet;
#X obj 173 50 inlet;
#X obj 98 251 outlet~;
#X connect 0 0 2 0;
#X connect 1 0 4 0;
#X connect 2 0 3 1;
#X connect 3 0 6 0;
#X connect 4 0 5 0;
#X connect 5 0 6 1;
#X connect 6 0 12 0;
#X connect 7 0 8 0;
#X connect 8 0 3 0;
#X connect 9 0 7 0;
#X connect 10 0 0 0;
#X connect 11 0 1 0;
#X restore 46 528 pd q;
#X obj 47 349 vsl 32 128 0 2500 0 0 empty empty empty 0 -9 0 10 -262144
-1 -1 0 1;
#X obj 200 18 tgl 30 0 empty empty empty 17 7 0 10 -262144 -1 -1 0
1;
#X obj 200 158 metro 100;
#X floatatom 268 158 5 0 0 0 - - -;
#X obj 304 137 + 1;
#X obj 268 16 bng 30 250 50 0 empty empty empty 17 7 0 10 -262144 -1
-1;
#X obj 268 137 f;
#X obj 304 157 mod 16;
#X text 268 0 STEP;
#X obj 234 5 vsl 30 40 15 500 0 0 empty empty empty 0 -9 0 10 -262144
-1 -1 1900 1;
#X text 232 -15 TEMPO;
#X floatatom 208 139 5 0 0 0 - - -;
#X text 198 1 ONOFF;
#X obj 200 180 counter 0 15;
#X obj 195 236 sel 0 1 2 3 4 5 6 7 8 9 10 11 12 13 14 15;
#X obj 48 485 knob 32 32 0 1000 0 0 empty empty empty 0 -8 0 8 -262144
-1 -1 0 1;
#X obj 79 315 bng 32 250 50 0 empty empty empty 17 7 0 10 -262144 -1
-1;
#N canvas 316 423 450 300 q 0;
#X floatatom 111 133 5 0 0 0 - - -;
#X floatatom 153 133 5 0 0 0 - - -;
#X obj 111 162 osc~;
#X obj 89 189 *~;
#X obj 153 162 / 767;
#X floatatom 153 188 5 0 0 0 - - -;
#X obj 88 213 *~ 1;
#X msg 86 77 open Atari_2600_No_Env_163.wav \, 1;
#X obj 87 102 readsf~;
#X obj 81 40 inlet;
#X obj 122 40 inlet;
#X obj 163 40 inlet;
#X obj 88 241 outlet~;
#X connect 0 0 2 0;
#X connect 1 0 4 0;
#X connect 2 0 3 1;
#X connect 3 0 6 0;
#X connect 4 0 5 0;
#X connect 5 0 6 1;
#X connect 6 0 12 0;
#X connect 7 0 8 0;
#X connect 8 0 3 0;
#X connect 9 0 7 0;
#X connect 10 0 0 0;
#X connect 11 0 1 0;
#X restore 78 528 pd q;
#X obj 79 349 vsl 32 128 0 2500 0 0 empty empty empty 0 -9 0 10 -262144
-1 -1 0 1;
#X obj 83 486 knob 32 32 0 1000 0 0 empty empty empty 0 -8 0 8 -262144
-1 -1 0 1;
#X obj 111 315 bng 32 250 50 0 empty empty empty 17 7 0 10 -262144
-1 -1;
#N canvas 316 423 450 300 q 0;
#X floatatom 111 133 5 0 0 0 - - -;
#X floatatom 153 133 5 0 0 0 - - -;
#X obj 111 162 osc~;
#X obj 89 189 *~;
#X obj 153 162 / 767;
#X floatatom 153 188 5 0 0 0 - - -;
#X obj 88 213 *~ 1;
#X msg 86 77 open Atari_2600_No_Env_163.wav \, 1;
#X obj 87 102 readsf~;
#X obj 81 40 inlet;
#X obj 122 40 inlet;
#X obj 163 40 inlet;
#X obj 88 241 outlet~;
#X connect 0 0 2 0;
#X connect 1 0 4 0;
#X connect 2 0 3 1;
#X connect 3 0 6 0;
#X connect 4 0 5 0;
#X connect 5 0 6 1;
#X connect 6 0 12 0;
#X connect 7 0 8 0;
#X connect 8 0 3 0;
#X connect 9 0 7 0;
#X connect 10 0 0 0;
#X connect 11 0 1 0;
#X restore 110 528 pd q;
#X obj 111 349 vsl 32 128 0 2500 0 0 empty empty empty 0 -9 0 10 -262144
-1 -1 0 1;
#X obj 112 485 knob 32 32 0 1000 0 0 empty empty empty 0 -8 0 8 -262144
-1 -1 0 1;
#X obj 143 315 bng 32 250 50 0 empty empty empty 17 7 0 10 -262144
-1 -1;
#N canvas 316 423 450 300 q 0;
#X floatatom 111 133 5 0 0 0 - - -;
#X floatatom 153 133 5 0 0 0 - - -;
#X obj 111 162 osc~;
#X obj 89 189 *~;
#X obj 153 162 / 767;
#X floatatom 153 188 5 0 0 0 - - -;
#X obj 88 213 *~ 1;
#X msg 86 77 open Atari_2600_No_Env_163.wav \, 1;
#X obj 87 102 readsf~;
#X obj 81 40 inlet;
#X obj 122 40 inlet;
#X obj 163 40 inlet;
#X obj 88 241 outlet~;
#X connect 0 0 2 0;
#X connect 1 0 4 0;
#X connect 2 0 3 1;
#X connect 3 0 6 0;
#X connect 4 0 5 0;
#X connect 5 0 6 1;
#X connect 6 0 12 0;
#X connect 7 0 8 0;
#X connect 8 0 3 0;
#X connect 9 0 7 0;
#X connect 10 0 0 0;
#X connect 11 0 1 0;
#X restore 142 528 pd q;
#X obj 143 349 vsl 32 128 0 2500 0 0 empty empty empty 0 -9 0 10 -262144
-1 -1 0 1;
#X obj 144 485 knob 32 32 0 1000 0 0 empty empty empty 0 -8 0 8 -262144
-1 -1 0 1;
#X obj 192 315 bng 32 250 50 0 empty empty empty 17 7 0 10 -262144
-1 -1;
#N canvas 316 423 450 300 q 0;
#X floatatom 111 133 5 0 0 0 - - -;
#X floatatom 153 133 5 0 0 0 - - -;
#X obj 111 162 osc~;
#X obj 89 189 *~;
#X obj 153 162 / 767;
#X floatatom 153 188 5 0 0 0 - - -;
#X obj 88 213 *~ 1;
#X obj 87 102 readsf~;
#X obj 81 40 inlet;
#X obj 122 40 inlet;
#X obj 163 40 inlet;
#X obj 88 241 outlet~;
#X msg 86 77 open Atari_2600_No_Env_163.wav \, 1;
#X connect 0 0 2 0;
#X connect 1 0 4 0;
#X connect 2 0 3 1;
#X connect 3 0 6 0;
#X connect 4 0 5 0;
#X connect 5 0 6 1;
#X connect 6 0 11 0;
#X connect 7 0 3 0;
#X connect 8 0 12 0;
#X connect 9 0 0 0;
#X connect 10 0 1 0;
#X connect 12 0 7 0;
#X restore 191 528 pd q;
#X obj 192 349 vsl 32 128 0 2500 0 0 empty empty empty 0 -9 0 10 -262144
-1 -1 0 1;
#X obj 193 485 knob 32 32 0 1000 0 0 empty empty empty 0 -8 0 8 -262144
-1 -1 0 1;
#X obj 224 315 bng 32 250 50 0 empty empty empty 17 7 0 10 -262144
-1 -1;
#N canvas 316 423 450 300 q 0;
#X floatatom 111 133 5 0 0 0 - - -;
#X floatatom 153 133 5 0 0 0 - - -;
#X obj 111 162 osc~;
#X obj 89 189 *~;
#X obj 153 162 / 767;
#X floatatom 153 188 5 0 0 0 - - -;
#X obj 88 213 *~ 1;
#X msg 86 77 open Atari_2600_No_Env_163.wav \, 1;
#X obj 87 102 readsf~;
#X obj 81 40 inlet;
#X obj 122 40 inlet;
#X obj 163 40 inlet;
#X obj 88 241 outlet~;
#X connect 0 0 2 0;
#X connect 1 0 4 0;
#X connect 2 0 3 1;
#X connect 3 0 6 0;
#X connect 4 0 5 0;
#X connect 5 0 6 1;
#X connect 6 0 12 0;
#X connect 7 0 8 0;
#X connect 8 0 3 0;
#X connect 9 0 7 0;
#X connect 10 0 0 0;
#X connect 11 0 1 0;
#X restore 223 528 pd q;
#X obj 224 349 vsl 32 128 0 2500 0 0 empty empty empty 0 -9 0 10 -262144
-1 -1 0 1;
#X obj 225 485 knob 32 32 0 1000 0 0 empty empty empty 0 -8 0 8 -262144
-1 -1 0 1;
#X obj 256 315 bng 32 250 50 0 empty empty empty 17 7 0 10 -262144
-1 -1;
#N canvas 316 423 450 300 q 0;
#X floatatom 111 133 5 0 0 0 - - -;
#X floatatom 153 133 5 0 0 0 - - -;
#X obj 111 162 osc~;
#X obj 89 189 *~;
#X obj 153 162 / 767;
#X floatatom 153 188 5 0 0 0 - - -;
#X obj 88 213 *~ 1;
#X msg 86 77 open Atari_2600_No_Env_163.wav \, 1;
#X obj 87 102 readsf~;
#X obj 81 40 inlet;
#X obj 122 40 inlet;
#X obj 163 40 inlet;
#X obj 88 241 outlet~;
#X connect 0 0 2 0;
#X connect 1 0 4 0;
#X connect 2 0 3 1;
#X connect 3 0 6 0;
#X connect 4 0 5 0;
#X connect 5 0 6 1;
#X connect 6 0 12 0;
#X connect 7 0 8 0;
#X connect 8 0 3 0;
#X connect 9 0 7 0;
#X connect 10 0 0 0;
#X connect 11 0 1 0;
#X restore 255 528 pd q;
#X obj 256 349 vsl 32 128 0 2500 0 0 empty empty empty 0 -9 0 10 -262144
-1 -1 0 1;
#X obj 257 485 knob 32 32 0 1000 0 0 empty empty empty 0 -8 0 8 -262144
-1 -1 0 1;
#X obj 288 315 bng 32 250 50 0 empty empty empty 17 7 0 10 -262144
-1 -1;
#N canvas 316 423 450 300 q 0;
#X floatatom 111 133 5 0 0 0 - - -;
#X floatatom 153 133 5 0 0 0 - - -;
#X obj 111 162 osc~;
#X obj 89 189 *~;
#X obj 153 162 / 767;
#X floatatom 153 188 5 0 0 0 - - -;
#X obj 88 213 *~ 1;
#X msg 86 77 open Atari_2600_No_Env_163.wav \, 1;
#X obj 87 102 readsf~;
#X obj 81 40 inlet;
#X obj 122 40 inlet;
#X obj 163 40 inlet;
#X obj 88 241 outlet~;
#X connect 0 0 2 0;
#X connect 1 0 4 0;
#X connect 2 0 3 1;
#X connect 3 0 6 0;
#X connect 4 0 5 0;
#X connect 5 0 6 1;
#X connect 6 0 12 0;
#X connect 7 0 8 0;
#X connect 8 0 3 0;
#X connect 9 0 7 0;
#X connect 10 0 0 0;
#X connect 11 0 1 0;
#X restore 287 528 pd q;
#X obj 288 349 vsl 32 128 0 2500 0 0 empty empty empty 0 -9 0 10 -262144
-1 -1 0 1;
#X obj 289 485 knob 32 32 0 1000 0 0 empty empty empty 0 -8 0 8 -262144
-1 -1 0 1;
#X obj 337 315 bng 32 250 50 0 empty empty empty 17 7 0 10 -262144
-1 -1;
#N canvas 316 423 450 300 q 0;
#X floatatom 111 133 5 0 0 0 - - -;
#X floatatom 153 133 5 0 0 0 - - -;
#X obj 111 162 osc~;
#X obj 89 189 *~;
#X obj 153 162 / 767;
#X floatatom 153 188 5 0 0 0 - - -;
#X obj 88 213 *~ 1;
#X msg 86 77 open Atari_2600_No_Env_163.wav \, 1;
#X obj 87 102 readsf~;
#X obj 81 40 inlet;
#X obj 122 40 inlet;
#X obj 163 40 inlet;
#X obj 88 241 outlet~;
#X connect 0 0 2 0;
#X connect 1 0 4 0;
#X connect 2 0 3 1;
#X connect 3 0 6 0;
#X connect 4 0 5 0;
#X connect 5 0 6 1;
#X connect 6 0 12 0;
#X connect 7 0 8 0;
#X connect 8 0 3 0;
#X connect 9 0 7 0;
#X connect 10 0 0 0;
#X connect 11 0 1 0;
#X restore 336 528 pd q;
#X obj 337 349 vsl 32 128 0 2500 0 0 empty empty empty 0 -9 0 10 -262144
-1 -1 0 1;
#X obj 338 485 knob 32 32 0 1000 0 0 empty empty empty 0 -8 0 8 -262144
-1 -1 0 1;
#X obj 369 315 bng 32 250 50 0 empty empty empty 17 7 0 10 -262144
-1 -1;
#N canvas 316 423 450 300 q 0;
#X floatatom 111 133 5 0 0 0 - - -;
#X floatatom 153 133 5 0 0 0 - - -;
#X obj 111 162 osc~;
#X obj 89 189 *~;
#X obj 153 162 / 767;
#X floatatom 153 188 5 0 0 0 - - -;
#X obj 88 213 *~ 1;
#X msg 86 77 open Atari_2600_No_Env_163.wav \, 1;
#X obj 87 102 readsf~;
#X obj 81 40 inlet;
#X obj 122 40 inlet;
#X obj 163 40 inlet;
#X obj 88 241 outlet~;
#X connect 0 0 2 0;
#X connect 1 0 4 0;
#X connect 2 0 3 1;
#X connect 3 0 6 0;
#X connect 4 0 5 0;
#X connect 5 0 6 1;
#X connect 6 0 12 0;
#X connect 7 0 8 0;
#X connect 8 0 3 0;
#X connect 9 0 7 0;
#X connect 10 0 0 0;
#X connect 11 0 1 0;
#X restore 368 528 pd q;
#X obj 369 349 vsl 32 128 0 2500 0 0 empty empty empty 0 -9 0 10 -262144
-1 -1 0 1;
#X obj 370 485 knob 32 32 0 1000 0 0 empty empty empty 0 -8 0 8 -262144
-1 -1 0 1;
#X obj 401 315 bng 32 250 50 0 empty empty empty 17 7 0 10 -262144
-1 -1;
#N canvas 316 423 450 300 q 0;
#X floatatom 111 133 5 0 0 0 - - -;
#X floatatom 153 133 5 0 0 0 - - -;
#X obj 111 162 osc~;
#X obj 89 189 *~;
#X obj 153 162 / 767;
#X floatatom 153 188 5 0 0 0 - - -;
#X obj 88 213 *~ 1;
#X msg 86 77 open Atari_2600_No_Env_163.wav \, 1;
#X obj 87 102 readsf~;
#X obj 81 40 inlet;
#X obj 122 40 inlet;
#X obj 163 40 inlet;
#X obj 88 241 outlet~;
#X connect 0 0 2 0;
#X connect 1 0 4 0;
#X connect 2 0 3 1;
#X connect 3 0 6 0;
#X connect 4 0 5 0;
#X connect 5 0 6 1;
#X connect 6 0 12 0;
#X connect 7 0 8 0;
#X connect 8 0 3 0;
#X connect 9 0 7 0;
#X connect 10 0 0 0;
#X connect 11 0 1 0;
#X restore 400 528 pd q;
#X obj 401 349 vsl 32 128 0 2500 0 0 empty empty empty 0 -9 0 10 -262144
-1 -1 0 1;
#X obj 402 485 knob 32 32 0 1000 0 0 empty empty empty 0 -8 0 8 -262144
-1 -1 0 1;
#X obj 433 315 bng 32 250 50 0 empty empty empty 17 7 0 10 -262144
-1 -1;
#N canvas 316 423 450 300 q 0;
#X floatatom 111 133 5 0 0 0 - - -;
#X floatatom 153 133 5 0 0 0 - - -;
#X obj 111 162 osc~;
#X obj 89 189 *~;
#X obj 153 162 / 767;
#X floatatom 153 188 5 0 0 0 - - -;
#X obj 88 213 *~ 1;
#X msg 86 77 open Atari_2600_No_Env_163.wav \, 1;
#X obj 87 102 readsf~;
#X obj 81 40 inlet;
#X obj 122 40 inlet;
#X obj 163 40 inlet;
#X obj 88 241 outlet~;
#X connect 0 0 2 0;
#X connect 1 0 4 0;
#X connect 2 0 3 1;
#X connect 3 0 6 0;
#X connect 4 0 5 0;
#X connect 5 0 6 1;
#X connect 6 0 12 0;
#X connect 7 0 8 0;
#X connect 8 0 3 0;
#X connect 9 0 7 0;
#X connect 10 0 0 0;
#X connect 11 0 1 0;
#X restore 432 528 pd q;
#X obj 433 349 vsl 32 128 0 2500 0 0 empty empty empty 0 -9 0 10 -262144
-1 -1 0 1;
#X obj 434 485 knob 32 32 0 1000 0 0 empty empty empty 0 -8 0 8 -262144
-1 -1 0 1;
#X obj 482 315 bng 32 250 50 0 empty empty empty 17 7 0 10 -262144
-1 -1;
#N canvas 316 423 450 300 q 0;
#X floatatom 111 133 5 0 0 0 - - -;
#X floatatom 153 133 5 0 0 0 - - -;
#X obj 111 162 osc~;
#X obj 89 189 *~;
#X obj 153 162 / 767;
#X floatatom 153 188 5 0 0 0 - - -;
#X obj 88 213 *~ 1;
#X msg 86 77 open Atari_2600_No_Env_163.wav \, 1;
#X obj 87 102 readsf~;
#X obj 81 40 inlet;
#X obj 122 40 inlet;
#X obj 163 40 inlet;
#X obj 88 241 outlet~;
#X connect 0 0 2 0;
#X connect 1 0 4 0;
#X connect 2 0 3 1;
#X connect 3 0 6 0;
#X connect 4 0 5 0;
#X connect 5 0 6 1;
#X connect 6 0 12 0;
#X connect 7 0 8 0;
#X connect 8 0 3 0;
#X connect 9 0 7 0;
#X connect 10 0 0 0;
#X connect 11 0 1 0;
#X restore 481 528 pd q;
#X obj 482 349 vsl 32 128 0 2500 0 0 empty empty empty 0 -9 0 10 -262144
-1 -1 0 1;
#X obj 483 485 knob 32 32 0 1000 0 0 empty empty empty 0 -8 0 8 -262144
-1 -1 0 1;
#X obj 514 315 bng 32 250 50 0 empty empty empty 17 7 0 10 -262144
-1 -1;
#N canvas 316 423 450 300 q 0;
#X floatatom 111 133 5 0 0 0 - - -;
#X floatatom 153 133 5 0 0 0 - - -;
#X obj 111 162 osc~;
#X obj 89 189 *~;
#X obj 153 162 / 767;
#X floatatom 153 188 5 0 0 0 - - -;
#X obj 88 213 *~ 1;
#X msg 86 77 open Atari_2600_No_Env_163.wav \, 1;
#X obj 87 102 readsf~;
#X obj 81 40 inlet;
#X obj 122 40 inlet;
#X obj 163 40 inlet;
#X obj 88 241 outlet~;
#X connect 0 0 2 0;
#X connect 1 0 4 0;
#X connect 2 0 3 1;
#X connect 3 0 6 0;
#X connect 4 0 5 0;
#X connect 5 0 6 1;
#X connect 6 0 12 0;
#X connect 7 0 8 0;
#X connect 8 0 3 0;
#X connect 9 0 7 0;
#X connect 10 0 0 0;
#X connect 11 0 1 0;
#X restore 513 528 pd q;
#X obj 514 349 vsl 32 128 0 2500 0 0 empty empty empty 0 -9 0 10 -262144
-1 -1 0 1;
#X obj 515 485 knob 32 32 0 1000 0 0 empty empty empty 0 -8 0 8 -262144
-1 -1 0 1;
#X obj 546 315 bng 32 250 50 0 empty empty empty 17 7 0 10 -262144
-1 -1;
#N canvas 316 423 450 300 q 0;
#X floatatom 111 133 5 0 0 0 - - -;
#X floatatom 153 133 5 0 0 0 - - -;
#X obj 111 162 osc~;
#X obj 89 189 *~;
#X obj 153 162 / 767;
#X floatatom 153 188 5 0 0 0 - - -;
#X obj 88 213 *~ 1;
#X msg 86 77 open Atari_2600_No_Env_163.wav \, 1;
#X obj 87 102 readsf~;
#X obj 81 40 inlet;
#X obj 122 40 inlet;
#X obj 163 40 inlet;
#X obj 88 241 outlet~;
#X connect 0 0 2 0;
#X connect 1 0 4 0;
#X connect 2 0 3 1;
#X connect 3 0 6 0;
#X connect 4 0 5 0;
#X connect 5 0 6 1;
#X connect 6 0 12 0;
#X connect 7 0 8 0;
#X connect 8 0 3 0;
#X connect 9 0 7 0;
#X connect 10 0 0 0;
#X connect 11 0 1 0;
#X restore 545 528 pd q;
#X obj 546 349 vsl 32 128 0 2500 0 0 empty empty empty 0 -9 0 10 -262144
-1 -1 0 1;
#X obj 547 485 knob 32 32 0 1000 0 0 empty empty empty 0 -8 0 8 -262144
-1 -1 0 1;
#X obj 578 315 bng 32 250 50 0 empty empty empty 17 7 0 10 -262144
-1 -1;
#N canvas 316 423 450 300 q 0;
#X floatatom 111 133 5 0 0 0 - - -;
#X floatatom 153 133 5 0 0 0 - - -;
#X obj 111 162 osc~;
#X obj 89 189 *~;
#X obj 153 162 / 767;
#X floatatom 153 188 5 0 0 0 - - -;
#X obj 88 213 *~ 1;
#X msg 86 77 open Atari_2600_No_Env_163.wav \, 1;
#X obj 87 102 readsf~;
#X obj 81 40 inlet;
#X obj 122 40 inlet;
#X obj 163 40 inlet;
#X obj 88 241 outlet~;
#X connect 0 0 2 0;
#X connect 1 0 4 0;
#X connect 2 0 3 1;
#X connect 3 0 6 0;
#X connect 4 0 5 0;
#X connect 5 0 6 1;
#X connect 6 0 12 0;
#X connect 7 0 8 0;
#X connect 8 0 3 0;
#X connect 9 0 7 0;
#X connect 10 0 0 0;
#X connect 11 0 1 0;
#X restore 577 528 pd q;
#X obj 578 349 vsl 32 128 0 2500 0 0 empty empty empty 0 -9 0 10 -262144
-1 -1 0 1;
#X obj 579 485 knob 32 32 0 1000 0 0 empty empty empty 0 -8 0 8 -262144
-1 -1 0 1;
#X text 619 493 vol;
#X connect 0 0 2 0;
#X connect 3 0 2 1;
#X connect 4 0 5 0;
#X connect 5 0 16 0;
#X connect 6 0 16 4;
#X connect 7 0 10 0;
#X connect 8 0 9 0;
#X connect 9 0 6 0;
#X connect 9 0 7 0;
#X connect 10 0 9 1;
#X connect 12 0 5 1;
#X connect 12 0 14 0;
#X connect 16 0 17 0;
#X connect 17 0 0 0;
#X connect 17 1 19 0;
#X connect 17 2 23 0;
#X connect 17 3 27 0;
#X connect 17 4 31 0;
#X connect 17 5 35 0;
#X connect 17 6 39 0;
#X connect 17 7 43 0;
#X connect 17 8 47 0;
#X connect 17 9 51 0;
#X connect 17 10 55 0;
#X connect 17 11 59 0;
#X connect 17 12 63 0;
#X connect 17 13 67 0;
#X connect 17 14 71 0;
#X connect 17 15 75 0;
#X connect 18 0 2 2;
#X connect 19 0 20 0;
#X connect 20 0 1 0;
#X connect 20 0 1 1;
#X connect 21 0 20 1;
#X connect 22 0 20 2;
#X connect 23 0 24 0;
#X connect 24 0 1 0;
#X connect 24 0 1 1;
#X connect 25 0 24 1;
#X connect 26 0 24 2;
#X connect 27 0 28 0;
#X connect 28 0 1 0;
#X connect 28 0 1 1;
#X connect 29 0 28 1;
#X connect 30 0 28 2;
#X connect 31 0 32 0;
#X connect 32 0 1 0;
#X connect 32 0 1 1;
#X connect 33 0 32 1;
#X connect 34 0 32 2;
#X connect 35 0 36 0;
#X connect 36 0 1 0;
#X connect 36 0 1 1;
#X connect 37 0 36 1;
#X connect 38 0 36 2;
#X connect 39 0 40 0;
#X connect 40 0 1 0;
#X connect 40 0 1 1;
#X connect 41 0 40 1;
#X connect 42 0 40 2;
#X connect 43 0 44 0;
#X connect 44 0 1 0;
#X connect 44 0 1 1;
#X connect 45 0 44 1;
#X connect 46 0 44 2;
#X connect 47 0 48 0;
#X connect 48 0 1 0;
#X connect 48 0 1 1;
#X connect 49 0 48 1;
#X connect 50 0 48 2;
#X connect 51 0 52 0;
#X connect 52 0 1 0;
#X connect 52 0 1 1;
#X connect 53 0 52 1;
#X connect 54 0 52 2;
#X connect 55 0 56 0;
#X connect 56 0 1 0;
#X connect 56 0 1 1;
#X connect 57 0 56 1;
#X connect 58 0 56 2;
#X connect 59 0 60 0;
#X connect 60 0 1 0;
#X connect 60 0 1 1;
#X connect 61 0 60 1;
#X connect 62 0 60 2;
#X connect 63 0 64 0;
#X connect 64 0 1 0;
#X connect 64 0 1 1;
#X connect 65 0 64 1;
#X connect 66 0 64 2;
#X connect 67 0 68 0;
#X connect 68 0 1 0;
#X connect 68 0 1 1;
#X connect 69 0 68 1;
#X connect 70 0 68 2;
#X connect 71 0 72 0;
#X connect 72 0 1 0;
#X connect 72 0 1 1;
#X connect 73 0 72 1;
#X connect 74 0 72 2;
#X connect 75 0 76 0;
#X connect 76 0 1 0;
#X connect 76 0 1 1;
#X connect 77 0 76 1;
#X connect 78 0 76 2;
