#N canvas 242 332 450 300 10;
#X floatatom 54 67 4 0 0 0 - - -;
#X floatatom 110 66 4 0 0 0 - - -;
#X floatatom 54 120 4 0 0 0 - - -;
#X floatatom 107 120 4 0 0 0 - - -;
#X obj 54 93 moses 10;
#X connect 0 0 4 0;
#X connect 1 0 4 1;
#X connect 4 0 2 0;
#X connect 4 1 3 0;
