#N canvas 257 167 1159 677 10;
#X obj 276 98 metro 300;
#X obj 326 121 + 1;
#X floatatom 276 146 5 0 0 0 - - -;
#X obj 276 266 vsl 15 128 0 127 0 0 empty empty empty 0 -9 0 10 -262144
-1 -1 4500 1;
#X obj 298 266 vsl 15 128 0 127 0 0 empty empty empty 0 -9 0 10 -262144
-1 -1 6500 1;
#X obj 321 266 vsl 15 128 0 127 0 0 empty empty empty 0 -9 0 10 -262144
-1 -1 4300 1;
#X obj 343 266 vsl 15 128 0 127 0 0 empty empty empty 0 -9 0 10 -262144
-1 -1 6500 1;
#X obj 249 436 mtof;
#X floatatom 249 460 5 0 0 0 - - -;
#X obj 276 243 bng 15 250 50 0 empty empty empty 17 7 0 10 -262144
-1 -1;
#X obj 298 243 bng 15 250 50 0 empty empty empty 17 7 0 10 -262144
-1 -1;
#X obj 321 243 bng 15 250 50 0 empty empty empty 17 7 0 10 -262144
-1 -1;
#X obj 343 243 bng 15 250 50 0 empty empty empty 17 7 0 10 -262144
-1 -1;
#X obj 249 482 osc~;
#X obj 249 504 dac~;
#X obj 353 149 bng 15 250 50 0 empty empty empty 17 7 0 10 -262144
-1 -1;
#X obj 276 76 tgl 15 0 empty empty empty 17 7 0 10 -262144 -1 -1 1
1;
#X obj 636 110 hradio 15 1 0 8 empty empty empty 0 -8 0 10 -262144
-1 -1 2;
#X obj 551 41 float;
#X obj 601 40 + 1;
#X floatatom 551 64 5 0 0 0 - - -;
#X obj 276 167 mod 8;
#X obj 367 266 vsl 15 128 0 127 0 0 empty empty empty 0 -9 0 10 -262144
-1 -1 5400 1;
#X obj 389 266 vsl 15 128 0 127 0 0 empty empty empty 0 -9 0 10 -262144
-1 -1 6300 1;
#X obj 412 266 vsl 15 128 0 127 0 0 empty empty empty 0 -9 0 10 -262144
-1 -1 5300 1;
#X obj 434 266 vsl 15 128 0 127 0 0 empty empty empty 0 -9 0 10 -262144
-1 -1 3400 1;
#X obj 367 243 bng 15 250 50 0 empty empty empty 17 7 0 10 -262144
-1 -1;
#X obj 389 243 bng 15 250 50 0 empty empty empty 17 7 0 10 -262144
-1 -1;
#X obj 412 243 bng 15 250 50 0 empty empty empty 17 7 0 10 -262144
-1 -1;
#X obj 434 243 bng 15 250 50 0 empty empty empty 17 7 0 10 -262144
-1 -1;
#X obj 276 191 select 0 1 2 3 4 5 6;
#X obj 551 85 mod 8;
#X obj 249 414 float;
#X obj 249 258 bng 15 250 50 0 empty empty empty 17 7 0 10 -262144
-1 -1;
#X obj 83 382 gate 3;
#X floatatom 58 415 5 0 0 0 - - -;
#X floatatom 94 415 5 0 0 0 - - -;
#X floatatom 131 415 5 0 0 0 - - -;
#X obj 208 76 hradio 15 1 0 4 empty empty empty 0 -6 0 8 -262144 -1
-1 1;
#X obj 779 60 hradio 15 1 0 8 empty empty empty 0 -8 0 10 -262144 -1
-1 5;
#X obj 780 37 select 0 1 2 3 4 5 6;
#X text 226 75 1;
#X text 256 75 3;
#X text 241 75 2;
#X obj 354 169 s temp1;
#X obj 551 19 r temp1;
#X obj 638 185 s temp2;
#X obj 327 74 r temp2;
#X obj 551 107 s temp3;
#X obj 153 357 r temp3;
#X obj 779 139 s temp2;
#X obj 779 98 random 1000;
#X floatatom 793 119 5 0 0 0 - - -;
#X obj 276 122 int;
#X msg 639 155 70;
#X msg 670 155 40;
#X msg 702 132 50;
#X msg 734 131 80;
#X msg 734 154 100;
#X floatatom 336 98 5 0 0 0 - - -;
#X msg 638 132 100;
#X obj 58 436 s temp4;
#X obj 637 13 r temp4;
#X obj 94 456 s temp5;
#X obj 779 13 r temp5;
#X obj 779 79 bng 15 250 50 0 empty empty empty 17 7 0 10 -262144 -1
-1;
#X obj 638 37 select 0 1 2 3 4 5 6;
#X msg 637 281 50 60 50 60 50 60 50 60;
#X obj 222 214 unpack i i i i i i i i;
#X obj 222 193 r temp6;
#X obj 637 307 s temp6;
#X obj 208 99 s temp7;
#X obj 83 360 r temp7;
#X msg 637 260 54 56 47 44 74 87 96 64;
#X msg 702 154 150;
#X msg 670 132 230;
#X msg 637 238 54 56 52 51 58 56 55 57;
#X msg 637 217 45 65 43 65 54 63 53 34;
#X text 276 56 1;
#X text 225 56 2;
#X text 620 280 3;
#X connect 0 0 53 0;
#X connect 1 0 53 1;
#X connect 2 0 21 0;
#X connect 3 0 32 1;
#X connect 4 0 32 1;
#X connect 5 0 32 1;
#X connect 6 0 32 1;
#X connect 7 0 8 0;
#X connect 8 0 13 0;
#X connect 9 0 3 0;
#X connect 9 0 33 0;
#X connect 10 0 4 0;
#X connect 10 0 33 0;
#X connect 11 0 5 0;
#X connect 11 0 33 0;
#X connect 12 0 6 0;
#X connect 12 0 33 0;
#X connect 13 0 14 0;
#X connect 13 0 14 1;
#X connect 15 0 44 0;
#X connect 16 0 0 0;
#X connect 18 0 19 0;
#X connect 18 0 20 0;
#X connect 19 0 18 1;
#X connect 20 0 31 0;
#X connect 21 0 30 0;
#X connect 22 0 32 1;
#X connect 23 0 32 1;
#X connect 24 0 32 1;
#X connect 25 0 32 1;
#X connect 26 0 22 0;
#X connect 26 0 33 0;
#X connect 27 0 23 0;
#X connect 27 0 33 0;
#X connect 28 0 24 0;
#X connect 28 0 33 0;
#X connect 29 0 25 0;
#X connect 29 0 33 0;
#X connect 30 0 9 0;
#X connect 30 0 15 0;
#X connect 30 1 10 0;
#X connect 30 1 15 0;
#X connect 30 2 11 0;
#X connect 30 2 15 0;
#X connect 30 3 12 0;
#X connect 30 3 15 0;
#X connect 30 4 15 0;
#X connect 30 4 26 0;
#X connect 30 5 27 0;
#X connect 30 5 15 0;
#X connect 30 6 28 0;
#X connect 30 6 15 0;
#X connect 30 7 29 0;
#X connect 30 7 15 0;
#X connect 31 0 48 0;
#X connect 32 0 7 0;
#X connect 33 0 32 0;
#X connect 34 0 35 0;
#X connect 34 1 36 0;
#X connect 34 2 37 0;
#X connect 35 0 61 0;
#X connect 36 0 63 0;
#X connect 38 0 71 0;
#X connect 39 0 65 0;
#X connect 45 0 18 0;
#X connect 47 0 0 1;
#X connect 47 0 59 0;
#X connect 49 0 34 1;
#X connect 51 0 50 0;
#X connect 51 0 52 0;
#X connect 53 0 1 0;
#X connect 53 0 2 0;
#X connect 54 0 46 0;
#X connect 55 0 46 0;
#X connect 56 0 46 0;
#X connect 57 0 46 0;
#X connect 58 0 46 0;
#X connect 60 0 46 0;
#X connect 62 0 17 0;
#X connect 62 0 66 0;
#X connect 64 0 40 0;
#X connect 64 0 39 0;
#X connect 65 0 51 0;
#X connect 66 0 60 0;
#X connect 66 1 54 0;
#X connect 66 2 75 0;
#X connect 66 3 55 0;
#X connect 66 4 56 0;
#X connect 66 5 74 0;
#X connect 66 6 57 0;
#X connect 66 7 58 0;
#X connect 67 0 70 0;
#X connect 68 0 3 0;
#X connect 68 1 4 0;
#X connect 68 2 5 0;
#X connect 68 3 6 0;
#X connect 68 4 22 0;
#X connect 68 5 23 0;
#X connect 68 6 24 0;
#X connect 68 7 25 0;
#X connect 69 0 68 0;
#X connect 72 0 34 0;
#X connect 73 0 70 0;
#X connect 74 0 46 0;
#X connect 75 0 46 0;
#X connect 76 0 70 0;
#X connect 77 0 70 0;
