#N canvas 716 309 450 300 10;
#X obj 25 95 snapshot~;
#X obj 36 48 tgl 15 0 empty empty empty 17 7 0 10 -262144 -1 -1 1 1
;
#X obj 28 26 hsl 128 15 0 127 0 0 empty empty empty -2 -8 0 10 -262144
-1 -1 7300 1;
#X floatatom 25 119 5 0 0 0 - - -;
#X obj 35 68 metro 300;
#X connect 0 0 3 0;
#X connect 1 0 4 0;
#X connect 2 0 0 0;
#X connect 4 0 0 0;
