#N canvas 905 283 551 342 10;
#X floatatom 78 133 5 0 0 0 - - -;
#X floatatom 120 133 5 0 0 0 - - -;
#X obj 78 109 MouseState;
#X msg 78 84 poll;
#X floatatom 162 133 5 0 0 0 - - -;
#X floatatom 202 132 5 0 0 0 - - -;
#X obj 44 135 tgl 15 0 empty empty empty 17 7 0 10 -262144 -1 -1 0
1;
#X obj 314 89 key;
#X floatatom 314 117 3 0 0 0 - - -;
#X floatatom 342 115 3 0 0 0 - - -;
#X obj 342 89 keyup;
#X floatatom 381 115 3 0 0 0 - - -;
#X obj 381 89 keyname;
#X symbolatom 425 116 10 0 0 0 - - -;
#X obj 78 157 osc~;
#X obj 79 221 dac~;
#X obj 79 198 *~;
#X obj 120 157 / 1078;
#X floatatom 119 182 5 0 0 0 - - -;
#X connect 0 0 14 0;
#X connect 1 0 17 0;
#X connect 2 0 6 0;
#X connect 2 1 0 0;
#X connect 2 2 1 0;
#X connect 2 3 4 0;
#X connect 2 4 5 0;
#X connect 3 0 2 0;
#X connect 7 0 8 0;
#X connect 10 0 9 0;
#X connect 12 0 11 0;
#X connect 12 1 13 0;
#X connect 14 0 16 0;
#X connect 16 0 15 0;
#X connect 16 0 15 1;
#X connect 17 0 18 0;
#X connect 18 0 16 1;
