#N canvas 570 150 896 747 10;
#X obj 31 262 osc~;
#X obj 9 289 *~;
#X obj -2 262 adc~;
#X obj 100 249 / 767;
#X floatatom 100 275 5 0 0 0 - - -;
#X obj 8 313 *~ 1;
#X obj 31 169 ctlin 74;
#X floatatom 30 190 5 0 0 0 - - -;
#X floatatom 31 229 5 0 0 0 - - -;
#X obj 31 209 * 10;
#X floatatom 100 189 5 0 0 0 - - -;
#X floatatom 100 229 5 0 0 0 - - -;
#X obj 100 209 * 10;
#X obj 100 169 ctlin 7;
#X obj 3 361 freeverb~;
#X msg 159 223 roomsize \$1;
#X msg 159 280 damping \$1;
#X msg 158 335 width \$1;
#X msg 156 389 wet \$1;
#X msg 159 167 bypass \$1;
#X text 157 122 Reverb on/off;
#X obj 162 187 hsl 60 30 0 1 0 0 empty empty empty -2 -8 0 10 -262144
-1 -1 5900 1;
#X obj 162 245 hsl 60 30 0 1 0 0 empty empty empty -2 -8 0 10 -262144
-1 -1 400 1;
#X obj 161 301 hsl 60 30 0 1 0 0 empty empty empty -2 -8 0 10 -262144
-1 -1 3700 1;
#X obj 159 356 hsl 60 30 0 1 0 0 empty empty empty -2 -8 0 10 -262144
-1 -1 4600 1;
#X msg 157 445 dry \$1;
#X obj 160 411 hsl 60 30 0 1 0 0 empty empty empty -2 -8 0 10 -262144
-1 -1 0 1;
#X msg 159 137 0;
#X msg 201 138 1;
#X text 225 193 Roomsize;
#X text 225 250 Damping;
#X text 224 305 Width;
#X text 222 360 Wet;
#X text 222 416 Dry;
#X msg 252 529 start;
#X msg 252 550 stop;
#X obj 162 576 writesf~ 2;
#X text 8 443 Mixer;
#X text 284 509 Create file;
#X text 294 528 Start Recording;
#X text 294 549 Stop Recording;
#X obj 2 468 dac~;
#X floatatom 310 125 5 0 0 0 - - -;
#X floatatom 310 165 5 0 0 0 - - -;
#X obj 310 105 ctlin 71;
#X obj 310 145 * 0.008;
#X floatatom 371 124 5 0 0 0 - - -;
#X floatatom 371 164 5 0 0 0 - - -;
#X obj 371 144 * 0.008;
#X obj 371 104 ctlin 91;
#X floatatom 310 215 5 0 0 0 - - -;
#X floatatom 310 255 5 0 0 0 - - -;
#X obj 310 235 * 0.008;
#X obj 310 195 ctlin 93;
#X floatatom 372 215 5 0 0 0 - - -;
#X floatatom 372 255 5 0 0 0 - - -;
#X obj 372 235 * 0.008;
#X obj 372 195 ctlin 73;
#X floatatom 307 301 5 0 0 0 - - -;
#X floatatom 307 341 5 0 0 0 - - -;
#X obj 307 321 * 0.008;
#X obj 306 281 ctlin 72;
#X obj 162 531 *~ 0.5;
#X obj 162 552 *~ 0.5;
#X msg 161 509 open sound1.wav;
#X connect 0 0 1 1;
#X connect 1 0 5 0;
#X connect 2 0 1 0;
#X connect 3 0 4 0;
#X connect 4 0 5 1;
#X connect 5 0 14 0;
#X connect 5 0 14 1;
#X connect 6 0 7 0;
#X connect 7 0 9 0;
#X connect 8 0 0 0;
#X connect 9 0 8 0;
#X connect 10 0 12 0;
#X connect 11 0 3 0;
#X connect 12 0 11 0;
#X connect 13 0 10 0;
#X connect 14 0 41 0;
#X connect 14 0 63 0;
#X connect 14 1 41 1;
#X connect 14 1 62 0;
#X connect 15 0 14 0;
#X connect 16 0 14 0;
#X connect 17 0 14 0;
#X connect 18 0 14 0;
#X connect 19 0 14 0;
#X connect 21 0 15 0;
#X connect 22 0 16 0;
#X connect 23 0 17 0;
#X connect 24 0 18 0;
#X connect 25 0 14 0;
#X connect 26 0 25 0;
#X connect 27 0 19 0;
#X connect 28 0 19 0;
#X connect 34 0 36 0;
#X connect 35 0 36 0;
#X connect 42 0 45 0;
#X connect 43 0 21 0;
#X connect 44 0 42 0;
#X connect 45 0 43 0;
#X connect 46 0 48 0;
#X connect 47 0 22 0;
#X connect 48 0 47 0;
#X connect 49 0 46 0;
#X connect 50 0 52 0;
#X connect 51 0 23 0;
#X connect 52 0 51 0;
#X connect 53 0 50 0;
#X connect 54 0 56 0;
#X connect 55 0 24 0;
#X connect 56 0 55 0;
#X connect 57 0 54 0;
#X connect 58 0 60 0;
#X connect 59 0 26 0;
#X connect 60 0 59 0;
#X connect 61 0 58 0;
#X connect 62 0 36 1;
#X connect 63 0 36 0;
#X connect 64 0 36 0;
