#N canvas -8 -8 1024 695 10;
#N canvas 91 155 450 300 gemwin 0;
#X obj 138 199 gemwin;
#X obj 67 89 outlet;
#X obj 67 10 inlet;
#X msg 67 70 set destroy;
#X msg 132 112 create \, 1;
#X msg 198 112 destroy;
#X msg 156 71 set create;
#X obj 67 41 route create;
#X msg 294 112 dimen 800 600;
#X connect 2 0 7 0;
#X connect 3 0 1 0;
#X connect 4 0 0 0;
#X connect 5 0 0 0;
#X connect 6 0 1 0;
#X connect 7 0 3 0;
#X connect 7 0 4 0;
#X connect 7 1 6 0;
#X connect 7 1 5 0;
#X connect 8 0 0 0;
#X restore 23 98 pd gemwin;
#X msg 23 74 create;
#X text 22 53 kreiranje kamere;
#X obj 199 92 gemhead 50;
#X obj 199 115 pix_video;
#X obj 199 169 pix_texture;
#X obj 199 194 rectangle 5.33 4;
#X msg 270 91 device 0;
#X obj 271 112 t a a;
#N canvas 166 121 570 420 device 0;
#X obj 204 60 cnv 20 20 20 empty \$0-open-canvas 0 4 10 0 16 -233017
-1 0;
#X obj 60 61 hradio 18 1 0 8 empty empty empty 0 -6 0 8 -225271 -1
-1 0;
#X obj 60 13 inlet;
#X msg 160 254 label \$1;
#X obj 160 232 makefilename %d;
#X obj 60 108 int;
#X obj 60 337 outlet;
#X obj 160 277 send \$0-open-canvas;
#X msg 130 170 device \$1;
#X obj 60 130 t b f;
#X obj 130 192 t a a;
#X obj 130 298 list prepend set;
#X obj 130 320 list trim;
#X obj 160 211 route device;
#X obj 130 116 loadbang;
#X msg 130 138 0;
#X connect 1 0 5 0;
#X connect 2 0 1 0;
#X connect 3 0 7 0;
#X connect 4 0 3 0;
#X connect 5 0 9 0;
#X connect 8 0 10 0;
#X connect 9 0 6 0;
#X connect 9 1 8 0;
#X connect 10 0 11 0;
#X connect 10 1 13 0;
#X connect 11 0 12 0;
#X connect 12 0 6 0;
#X connect 13 0 4 0;
#X connect 14 0 15 0;
#X connect 15 0 8 0;
#X coords 0 -1 1 1 165 20 1 60 60;
#X restore 270 67 pd device;
#X obj 230 407 pix_texture;
#X obj 261 509 rectangle 6 4;
#X obj 261 476 translateXYZ;
#X obj 261 445 rotateXYZ;
#X msg 336 410 0;
#X obj 751 161 adc~;
#X obj 682 218 env~;
#X obj 729 215 Level~;
#X floatatom 792 416 5 0 0 0 - - -;
#X obj 792 501 line;
#X floatatom 792 523 5 0 0 0 - - -;
#X msg 792 473 \$1 100;
#X text 162 443 brojevi 1 - 100;
#X obj 735 449 * 0.01;
#X obj 735 502 line;
#X floatatom 735 529 5 0 0 0 - - -;
#X text 211 471 brojevi;
#X text 214 483 0 - 1;
#X obj 230 307 pix_gain;
#X msg 252 266 1;
#X obj 230 357 pix_threshold;
#X text 189 358 0 - 1;
#X text 260 338 0 \, 1;
#X text 315 351 reset u 1;
#X text 75 306 srednji gornji reset u 1;
#X obj 690 450 * 0.1;
#X floatatom 690 474 5 0 0 0 - - -;
#X obj 362 267 bondo 3;
#X floatatom 362 246 5 0 0 0 - - -;
#X floatatom 397 245 5 0 0 0 - - -;
#X obj 362 290 pack f f f;
#X text 363 226 r;
#X text 403 224 g;
#X floatatom 434 246 5 0 0 0 - - -;
#X text 439 225 b;
#X floatatom 635 474 5 0 0 0 - - -;
#X obj 635 450 * 0.04;
#X obj 683 282 - 5;
#X text 679 299 tiho;
#X msg 294 330 0;
#X obj 701 125 hsl 128 15 0 50 0 0 1 empty empty 0 -2 0 4 -3 -262144
-1 0 0;
#X text 695 104 0;
#X text 803 105 - 50;
#X text 697 90 tiho;
#X text 790 89 glasno;
#X text 524 448 dobar za rgb gain;
#X msg 735 472 \$1 40;
#X obj 638 544 - 1;
#X floatatom 636 568 5 0 0 0 - - -;
#X obj 729 564 * 2;
#X floatatom 689 562 5 0 0 0 - - -;
#X obj 50 356 hsl 128 15 0 1 0 0 empty empty empty -2 -8 0 10 -262144
-1 -1 0 1;
#X msg 500 250 1;
#X text 498 267 reset;
#X msg 415 191 -8;
#X msg 445 189 -1.79;
#X msg 494 190 0;
#X text 268 21 0 integrisana kamera;
#X text 268 35 ostali brojevi su ostali USB portovi na kompjuteru;
#X obj 179 233 hsl 128 15 0 1 0 0 empty empty empty -2 -8 0 10 -262144
-1 -1 12700 1;
#X connect 0 0 1 0;
#X connect 1 0 0 0;
#X connect 3 0 4 0;
#X connect 4 0 5 0;
#X connect 5 0 6 0;
#X connect 6 0 28 0;
#X connect 7 0 8 0;
#X connect 8 0 4 0;
#X connect 9 0 7 0;
#X connect 10 0 13 0;
#X connect 12 0 11 0;
#X connect 13 0 12 0;
#X connect 14 0 12 3;
#X connect 14 0 12 2;
#X connect 14 0 12 1;
#X connect 14 0 13 3;
#X connect 14 0 13 2;
#X connect 14 0 13 1;
#X connect 15 0 16 0;
#X connect 15 0 17 0;
#X connect 15 1 17 1;
#X connect 16 0 47 0;
#X connect 18 0 21 0;
#X connect 18 0 23 0;
#X connect 18 0 35 0;
#X connect 18 0 46 0;
#X connect 19 0 20 0;
#X connect 21 0 19 0;
#X connect 23 0 56 0;
#X connect 24 0 25 0;
#X connect 24 0 57 0;
#X connect 25 0 59 0;
#X connect 28 0 30 0;
#X connect 29 0 28 1;
#X connect 30 0 10 0;
#X connect 35 0 36 0;
#X connect 37 0 40 0;
#X connect 37 1 40 1;
#X connect 37 2 40 2;
#X connect 38 0 37 0;
#X connect 39 0 37 1;
#X connect 40 0 28 2;
#X connect 43 0 37 2;
#X connect 46 0 45 0;
#X connect 47 0 18 0;
#X connect 49 0 30 1;
#X connect 50 0 47 1;
#X connect 56 0 24 0;
#X connect 57 0 58 0;
#X connect 59 0 60 0;
#X connect 61 0 30 1;
#X connect 62 0 37 0;
#X connect 62 0 37 1;
#X connect 62 0 37 2;
#X connect 64 0 38 0;
#X connect 65 0 39 0;
#X connect 66 0 43 0;
#X connect 69 0 28 1;
