#N canvas -8 -8 1024 685 10;
#N canvas 91 155 450 300 gemwin 0;
#X obj 138 199 gemwin;
#X obj 67 89 outlet;
#X obj 67 10 inlet;
#X msg 67 70 set destroy;
#X msg 132 112 create \, 1;
#X msg 198 112 destroy;
#X msg 156 71 set create;
#X obj 67 41 route create;
#X msg 294 112 dimen 800 600;
#X connect 2 0 7 0;
#X connect 3 0 1 0;
#X connect 4 0 0 0;
#X connect 5 0 0 0;
#X connect 6 0 1 0;
#X connect 7 0 3 0;
#X connect 7 0 4 0;
#X connect 7 1 6 0;
#X connect 7 1 5 0;
#X connect 8 0 0 0;
#X restore 23 98 pd gemwin;
#X msg 23 74 destroy;
#X text 22 53 kreiranje kamere;
#X obj 199 92 gemhead 50;
#X obj 199 115 pix_video;
#X obj 199 169 pix_texture;
#X obj 199 194 rectangle 5.33 4;
#X msg 270 91 device 0;
#X obj 271 112 t a a;
#N canvas 166 121 570 420 device 0;
#X obj 204 60 cnv 20 20 20 empty \$0-open-canvas 0 4 10 0 16 -233017
-1 0;
#X obj 60 61 hradio 18 1 0 8 empty empty empty 0 -6 0 8 -225271 -1
-1 0;
#X obj 60 13 inlet;
#X msg 160 254 label \$1;
#X obj 160 232 makefilename %d;
#X obj 60 108 int;
#X obj 60 337 outlet;
#X obj 160 277 send \$0-open-canvas;
#X msg 130 170 device \$1;
#X obj 60 130 t b f;
#X obj 130 192 t a a;
#X obj 130 298 list prepend set;
#X obj 130 320 list trim;
#X obj 160 211 route device;
#X obj 130 116 loadbang;
#X msg 130 138 0;
#X connect 1 0 5 0;
#X connect 2 0 1 0;
#X connect 3 0 7 0;
#X connect 4 0 3 0;
#X connect 5 0 9 0;
#X connect 8 0 10 0;
#X connect 9 0 6 0;
#X connect 9 1 8 0;
#X connect 10 0 11 0;
#X connect 10 1 13 0;
#X connect 11 0 12 0;
#X connect 12 0 6 0;
#X connect 13 0 4 0;
#X connect 14 0 15 0;
#X connect 15 0 8 0;
#X coords 0 -1 1 1 165 20 1 60 60;
#X restore 270 67 pd device;
#X obj 230 407 pix_texture;
#X obj 261 509 rectangle 6 4;
#X obj 261 476 translateXYZ;
#X obj 261 445 rotateXYZ;
#X msg 336 410 0;
#X text 162 443 brojevi 1 - 100;
#X text 211 471 brojevi;
#X text 214 483 0 - 1;
#X obj 230 307 pix_gain;
#X msg 252 266 1;
#X obj 230 357 pix_threshold;
#X text 189 358 0 - 1;
#X text 260 338 0 \, 1;
#X text 315 351 reset u 1;
#X text 75 306 srednji gornji reset u 1;
#X obj 362 267 bondo 3;
#X floatatom 362 246 5 0 0 0 - - -;
#X floatatom 397 245 5 0 0 0 - - -;
#X obj 362 290 pack f f f;
#X text 363 226 r;
#X text 403 224 g;
#X floatatom 434 246 5 0 0 0 - - -;
#X text 439 225 b;
#X msg 294 330 0;
#X obj 50 356 hsl 128 15 0 1 0 0 empty empty empty -2 -8 0 10 -262144
-1 -1 4900 1;
#X msg 500 250 1;
#X text 498 267 reset;
#X msg 415 191 -8;
#X msg 445 189 -1.79;
#X msg 494 190 0;
#X text 268 21 0 integrisana kamera;
#X text 268 35 ostali brojevi su ostali USB portovi na kompjuteru;
#X obj 179 233 hsl 128 15 0 1 0 0 empty empty empty -2 -8 0 10 -262144
-1 -1 0 1;
#X msg 664 276 0.3;
#X msg 699 290 0.8;
#X msg 586 279 0.4;
#X msg 622 290 0.6;
#X obj 615 90 tgl 15 0 empty empty empty 17 7 0 10 -262144 -1 -1 1
1;
#X obj 615 111 metro 300;
#X obj 615 135 float;
#X obj 659 135 + 1;
#X floatatom 615 163 5 0 0 0 - - -;
#X obj 615 187 mod 4;
#X obj 615 215 select 0 1 2;
#X obj 616 244 bng 15 250 50 0 empty empty empty 17 7 0 10 -262144
-1 -1;
#X obj 638 244 bng 15 250 50 0 empty empty empty 17 7 0 10 -262144
-1 -1;
#X obj 657 243 bng 15 250 50 0 empty empty empty 17 7 0 10 -262144
-1 -1;
#X obj 679 243 bng 15 250 50 0 empty empty empty 17 7 0 10 -262144
-1 -1;
#X obj 751 94 random 10;
#X obj 748 43 tgl 15 0 empty empty empty 17 7 0 10 -262144 -1 -1 1
1;
#X obj 748 64 metro 300;
#X floatatom 751 121 5 0 0 0 - - -;
#X obj 834 42 tgl 15 0 empty empty empty 17 7 0 10 -262144 -1 -1 1
1;
#X obj 834 63 metro 300;
#X floatatom 837 120 5 0 0 0 - - -;
#X obj 837 93 random 100;
#X connect 0 0 1 0;
#X connect 1 0 0 0;
#X connect 3 0 4 0;
#X connect 4 0 5 0;
#X connect 5 0 6 0;
#X connect 6 0 18 0;
#X connect 7 0 8 0;
#X connect 8 0 4 0;
#X connect 9 0 7 0;
#X connect 10 0 13 0;
#X connect 12 0 11 0;
#X connect 13 0 12 0;
#X connect 14 0 12 3;
#X connect 14 0 12 2;
#X connect 14 0 12 1;
#X connect 14 0 13 3;
#X connect 14 0 13 2;
#X connect 14 0 13 1;
#X connect 18 0 20 0;
#X connect 19 0 18 1;
#X connect 20 0 10 0;
#X connect 25 0 28 0;
#X connect 25 1 28 1;
#X connect 25 2 28 2;
#X connect 26 0 25 0;
#X connect 27 0 25 1;
#X connect 28 0 18 2;
#X connect 31 0 25 2;
#X connect 33 0 20 1;
#X connect 34 0 20 1;
#X connect 35 0 25 0;
#X connect 35 0 25 1;
#X connect 35 0 25 2;
#X connect 37 0 26 0;
#X connect 38 0 27 0;
#X connect 39 0 31 0;
#X connect 42 0 18 1;
#X connect 43 0 20 1;
#X connect 44 0 20 1;
#X connect 45 0 20 1;
#X connect 46 0 20 1;
#X connect 47 0 48 0;
#X connect 48 0 49 0;
#X connect 49 0 50 0;
#X connect 49 0 51 0;
#X connect 50 0 49 1;
#X connect 51 0 52 0;
#X connect 52 0 53 0;
#X connect 53 0 54 0;
#X connect 53 1 55 0;
#X connect 53 2 56 0;
#X connect 53 3 57 0;
#X connect 54 0 45 0;
#X connect 55 0 46 0;
#X connect 56 0 43 0;
#X connect 57 0 44 0;
#X connect 58 0 61 0;
#X connect 59 0 60 0;
#X connect 60 0 58 0;
#X connect 61 0 26 0;
#X connect 62 0 63 0;
#X connect 63 0 65 0;
#X connect 64 0 12 2;
#X connect 65 0 64 0;
