#N canvas -8 -8 1366 685 10;
#X obj 454 189 vradio 15 1 0 4 empty empty empty 0 -8 0 10 -262144
-1 -1 1;
#X obj 454 26 tgl 15 0 empty empty empty 17 7 0 10 -262144 -1 -1 1
1;
#X obj 454 47 metro 300;
#X obj 454 71 float;
#X obj 498 71 + 1;
#X floatatom 454 99 5 0 0 0 - - -;
#X obj 454 123 mod 8;
#X floatatom 454 295 5 0 0 0 - - -;
#X obj 407 470 float;
#X obj 407 190 bng 15 250 50 0 empty empty empty 17 7 0 10 -262144
-1 -1;
#X floatatom 407 497 5 0 0 0 - - -;
#X obj 407 520 osc~;
#X obj 407 546 dac~;
#X msg 454 349 300;
#X msg 470 370 400;
#X msg 489 391 500;
#X msg 506 413 600;
#X obj 454 316 select 0 1 2;
#X obj 469 189 vradio 15 1 0 4 empty empty empty 0 -8 0 10 -262144
-1 -1 2;
#X floatatom 541 296 5 0 0 0 - - -;
#X msg 541 350 300;
#X msg 557 371 400;
#X msg 576 392 500;
#X msg 593 414 600;
#X obj 541 317 select 0 1 2;
#X obj 484 189 vradio 15 1 0 4 empty empty empty 0 -8 0 10 -262144
-1 -1 3;
#X floatatom 625 295 5 0 0 0 - - -;
#X msg 625 349 300;
#X msg 641 370 400;
#X msg 660 391 500;
#X msg 677 413 600;
#X obj 625 316 select 0 1 2;
#X obj 499 189 vradio 15 1 0 4 empty empty empty 0 -8 0 10 -262144
-1 -1 1;
#X floatatom 708 294 5 0 0 0 - - -;
#X msg 708 348 300;
#X msg 724 369 400;
#X msg 743 390 500;
#X msg 760 412 600;
#X obj 708 315 select 0 1 2;
#X obj 454 155 select 0 1 2 3;
#X connect 0 0 7 0;
#X connect 1 0 2 0;
#X connect 2 0 3 0;
#X connect 3 0 4 0;
#X connect 3 0 5 0;
#X connect 4 0 3 1;
#X connect 5 0 6 0;
#X connect 6 0 39 0;
#X connect 7 0 17 0;
#X connect 8 0 10 0;
#X connect 9 0 8 0;
#X connect 10 0 11 0;
#X connect 11 0 12 0;
#X connect 11 0 12 1;
#X connect 13 0 8 1;
#X connect 14 0 8 1;
#X connect 15 0 8 1;
#X connect 16 0 8 1;
#X connect 17 0 13 0;
#X connect 17 1 14 0;
#X connect 17 2 15 0;
#X connect 17 3 16 0;
#X connect 18 0 19 0;
#X connect 19 0 24 0;
#X connect 20 0 8 1;
#X connect 21 0 8 1;
#X connect 22 0 8 1;
#X connect 23 0 8 1;
#X connect 24 0 20 0;
#X connect 24 1 21 0;
#X connect 24 2 22 0;
#X connect 24 3 23 0;
#X connect 25 0 26 0;
#X connect 26 0 31 0;
#X connect 27 0 8 1;
#X connect 28 0 8 1;
#X connect 29 0 8 1;
#X connect 30 0 8 1;
#X connect 31 0 27 0;
#X connect 31 1 28 0;
#X connect 31 2 29 0;
#X connect 31 3 30 0;
#X connect 32 0 33 0;
#X connect 33 0 38 0;
#X connect 34 0 8 1;
#X connect 35 0 8 1;
#X connect 36 0 8 1;
#X connect 37 0 8 1;
#X connect 38 0 34 0;
#X connect 38 1 35 0;
#X connect 38 2 36 0;
#X connect 38 3 37 0;
#X connect 39 0 9 0;
#X connect 39 0 0 0;
#X connect 39 1 18 0;
#X connect 39 1 9 0;
#X connect 39 2 25 0;
#X connect 39 2 9 0;
#X connect 39 3 32 0;
#X connect 39 3 9 0;
