#N canvas 60 92 654 501 10;
#N canvas 744 0 606 669 podprogram 1;
#X msg 440 377 open bell.wav \, 1;
#X obj 440 404 readsf~;
#X obj 439 509 *~;
#X obj 439 536 *~ 1;
#X obj 439 563 dac~;
#X floatatom 464 450 5 0 0 0 - - -;
#X floatatom 506 452 5 0 0 0 - - -;
#X obj 464 480 osc~;
#X obj 440 237 vsl 15 128 0 500 0 0 empty empty empty 0 -9 0 10 -262144
-1 -1 0 1;
#X obj 506 477 / 127;
#X floatatom 506 501 5 0 0 0 - - -;
#X obj 459 237 vsl 15 128 0 127 0 0 empty empty empty 0 -9 0 10 -262144
-1 -1 0 1;
#X obj 478 354 bng 15 250 50 0 empty empty BELL 17 7 0 10 -262144 -1
-1;
#X obj 253 403 readsf~;
#X obj 252 508 *~;
#X obj 252 535 *~ 1;
#X obj 252 562 dac~;
#X floatatom 277 456 5 0 0 0 - - -;
#X floatatom 319 457 5 0 0 0 - - -;
#X obj 277 479 osc~;
#X obj 275 233 vsl 15 128 0 500 0 0 empty empty empty 0 -9 0 10 -262144
-1 -1 305 1;
#X obj 319 482 / 127;
#X floatatom 319 506 5 0 0 0 - - -;
#X obj 297 233 vsl 15 128 0 127 0 0 empty empty empty 0 -9 0 10 -262144
-1 -1 0 1;
#X obj 182 352 bng 15 250 50 0 empty empty KICK 17 7 0 10 -262144 -1
-1;
#X msg 253 376 open kick.wav \, 1;
#X obj 279 -13 tgl 15 0 empty empty empty 17 7 0 10 -262144 -1 -1 1
1;
#X obj 279 15 metro 300;
#X obj 279 47 float;
#X obj 325 46 + 1;
#X floatatom 279 72 5 0 0 0 - - -;
#X obj 279 93 mod 8;
#X obj 175 59 random 500;
#X floatatom 174 83 5 0 0 0 - - -;
#X floatatom 89 68 5 0 0 0 - - -;
#X obj 90 44 random 127;
#X obj 89 90 mtof;
#X obj 88 145 phasor~;
#X obj 82 223 dac~;
#X obj 88 177 *~;
#X obj 110 115 hsl 128 15 0 1 0 0 empty empty empty -2 -8 0 10 -262144
-1 -1 0 1;
#X obj 279 -45 r start;
#X obj 279 124 s tempo;
#X obj 183 325 r kick;
#X obj 324 406 r pitch1;
#X obj 338 430 r volume1;
#X obj 480 325 r bell;
#X obj 517 400 r pitch2;
#X obj 531 424 r volume2;
#X connect 0 0 1 0;
#X connect 1 0 2 0;
#X connect 2 0 3 0;
#X connect 3 0 4 0;
#X connect 3 0 4 1;
#X connect 5 0 7 0;
#X connect 6 0 9 0;
#X connect 7 0 2 1;
#X connect 8 0 5 0;
#X connect 9 0 10 0;
#X connect 9 0 3 1;
#X connect 11 0 6 0;
#X connect 12 0 0 0;
#X connect 13 0 14 0;
#X connect 14 0 15 0;
#X connect 15 0 16 0;
#X connect 15 0 16 1;
#X connect 17 0 19 0;
#X connect 18 0 21 0;
#X connect 19 0 14 1;
#X connect 20 0 17 0;
#X connect 21 0 22 0;
#X connect 21 0 15 1;
#X connect 23 0 18 0;
#X connect 24 0 25 0;
#X connect 25 0 13 0;
#X connect 26 0 27 0;
#X connect 27 0 28 0;
#X connect 27 0 35 0;
#X connect 28 0 29 0;
#X connect 28 0 30 0;
#X connect 29 0 28 1;
#X connect 30 0 31 0;
#X connect 31 0 42 0;
#X connect 32 0 33 0;
#X connect 33 0 20 0;
#X connect 34 0 36 0;
#X connect 35 0 34 0;
#X connect 36 0 37 0;
#X connect 37 0 39 0;
#X connect 39 0 38 0;
#X connect 39 0 38 1;
#X connect 40 0 39 1;
#X connect 41 0 26 0;
#X connect 43 0 24 0;
#X connect 44 0 17 0;
#X connect 45 0 18 0;
#X connect 46 0 12 0;
#X connect 47 0 5 0;
#X connect 48 0 6 0;
#X restore 30 43 pd podprogram;
#X obj 164 205 tgl 15 0 empty empty empty 17 7 0 10 -262144 -1 -1 1
1;
#X obj 217 61 s start;
#X obj 156 281 bng 15 250 50 0 empty empty empty 17 7 0 10 -262144
-1 -1;
#X obj 177 281 bng 15 250 50 0 empty empty empty 17 7 0 10 -262144
-1 -1;
#X obj 198 281 bng 15 250 50 0 empty empty empty 17 7 0 10 -262144
-1 -1;
#X obj 219 281 bng 15 250 50 0 empty empty empty 17 7 0 10 -262144
-1 -1;
#X obj 240 281 bng 15 250 50 0 empty empty empty 17 7 0 10 -262144
-1 -1;
#X obj 261 281 bng 15 250 50 0 empty empty empty 17 7 0 10 -262144
-1 -1;
#X obj 282 281 bng 15 250 50 0 empty empty empty 17 7 0 10 -262144
-1 -1;
#X obj 303 281 bng 15 250 50 0 empty empty empty 17 7 0 10 -262144
-1 -1;
#X obj 344 -27 select 0 1 2 3 4 5 6;
#X obj 310 -58 r tempo;
#X obj 111 165 vsl 15 128 0 500 0 0 empty empty empty 0 -9 0 10 -262144
-1 -1 2700 1;
#X obj 132 165 vsl 15 128 0 127 0 0 empty empty empty 0 -9 0 10 -262144
-1 -1 3400 1;
#X obj 205 324 bng 15 250 50 0 empty empty KICK 17 7 0 10 -262144 -1
-1;
#X obj 251 324 bng 15 250 50 0 empty empty BELL 17 7 0 10 -262144 -1
-1;
#X obj 60 368 s kick;
#X obj 27 250 s pitch1;
#X obj 13 314 s volume1;
#X obj 378 340 s bell;
#X obj 329 165 vsl 15 128 0 500 0 0 empty empty empty 0 -9 0 10 -262144
-1 -1 2800 1;
#X obj 348 166 vsl 15 128 0 127 0 0 empty empty empty 0 -9 0 10 -262144
-1 -1 3100 1;
#X obj 461 243 s pitch2;
#X obj 521 243 s volume2;
#X connect 1 0 2 0;
#X connect 3 0 15 0;
#X connect 6 0 15 0;
#X connect 9 0 15 0;
#X connect 11 0 3 0;
#X connect 11 1 4 0;
#X connect 11 2 5 0;
#X connect 11 3 6 0;
#X connect 11 4 7 0;
#X connect 11 5 8 0;
#X connect 11 6 9 0;
#X connect 11 7 10 0;
#X connect 12 0 11 0;
#X connect 13 0 18 0;
#X connect 14 0 19 0;
#X connect 15 0 17 0;
#X connect 16 0 20 0;
#X connect 21 0 23 0;
#X connect 22 0 24 0;
#X coords 0 -1 1 1 270 270 1 100 100;
