#N canvas 630 94 842 719 10;
#X obj 31 110 gemwin;
#X msg 25 32 create \, 1;
#X msg 42 80 dimen 320 240;
#X msg 37 56 0 \, destroy;
#X obj 184 51 gemhead;
#X obj 184 26 tgl 15 0 empty empty empty 17 7 0 10 -262144 -1 -1 1
1;
#X obj 184 146 pix_film;
#X obj 198 74 bng 15 250 50 0 empty empty empty 17 7 0 10 -262144 -1
-1;
#X obj 198 95 openpanel;
#X msg 198 121 open \$1;
#X obj 206 172 unpack f f f;
#X floatatom 205 205 5 0 0 0 - - -;
#X floatatom 246 205 5 0 0 0 - - -;
#X floatatom 284 205 5 0 0 0 - - -;
#X obj 184 429 pix_texture;
#X obj 184 571 rectangle 6 4;
#X msg 266 96 auto \$1;
#X obj 266 76 tgl 15 0 empty empty empty 17 7 0 10 -262144 -1 -1 1
1;
#X obj 255 19 hsl 128 15 0 5938 0 0 empty empty empty -2 -8 0 10 -262144
-1 -1 0 1;
#X text 270 674 otvara mp4 i mora da se intalira QUICK TIME;
#X text 258 37 koliko ima frejmova filmic;
#X text 190 223 frejmovi visina sirina;
#X text 182 6 ON;
#X text 264 58 ON;
#X text 22 12 Prvo kreirati GEM;
#X text 548 23 spojiti sa drugim gornjim pix_film;
#X obj 553 50 tgl 15 0 empty empty empty 17 7 0 10 -262144 -1 -1 0
1;
#X obj 553 69 metro 125;
#X obj 553 89 random 5938;
#X msg 260 131 1;
#X obj 644 127 cup;
#X obj 645 153 % 5938;
#X obj 691 152 % 5938;
#X obj 642 73 metro 125;
#X obj 640 50 tgl 15 0 empty empty empty 17 7 0 10 -262144 -1 -1 0
1;
#X obj 644 101 drunk 1000;
#X floatatom 678 127 5 0 0 0 - - -;
#X text 736 150 broj frejmova;
#X obj 184 538 translateXYZ;
#X obj 184 507 rotateXYZ;
#X msg 287 462 0;
#X obj 618 380 adc~;
#X obj 549 437 env~;
#X obj 596 434 Level~;
#X floatatom 549 464 5 0 0 0 - - -;
#X obj 549 549 line;
#X floatatom 549 571 5 0 0 0 - - -;
#X msg 549 521 \$1 100;
#X text 81 504 brojevi 1 - 100;
#X obj 492 497 * 0.01;
#X obj 492 550 line;
#X msg 492 521 \$1 100;
#X floatatom 492 572 5 0 0 0 - - -;
#X text 129 538 brojevi;
#X text 132 550 0 - 1;
#X obj 184 329 pix_gain;
#X msg 206 272 1;
#X obj 421 298 bondo 3;
#X floatatom 421 277 5 0 0 0 - - -;
#X floatatom 458 276 5 0 0 0 - - -;
#X floatatom 495 276 5 0 0 0 - - -;
#X obj 421 321 pack f f f;
#X text 422 257 r;
#X text 462 255 g;
#X text 498 256 b;
#X obj 184 389 pix_threshold;
#X text 143 390 0 - 1;
#X text 214 370 0 \, 1;
#X text 33 327 srednji gornji reset u 1;
#X text 287 130 prvi frejm;
#X text 535 275 shift + click mouse;
#X text 536 290 za fino podesavanje;
#X text 319 463 restart;
#X text 215 293 od 0 do 1 nivo osvetljenosti;
#X msg 244 353 0;
#X text 245 369 reset u 0;
#X text 228 310 RGB;
#X connect 1 0 0 0;
#X connect 2 0 0 0;
#X connect 3 0 0 0;
#X connect 4 0 6 0;
#X connect 5 0 4 0;
#X connect 6 0 55 0;
#X connect 6 1 10 0;
#X connect 7 0 8 0;
#X connect 8 0 9 0;
#X connect 9 0 6 0;
#X connect 10 0 11 0;
#X connect 10 1 12 0;
#X connect 10 2 13 0;
#X connect 14 0 39 0;
#X connect 16 0 6 0;
#X connect 17 0 16 0;
#X connect 18 0 6 1;
#X connect 26 0 27 0;
#X connect 27 0 28 0;
#X connect 29 0 6 1;
#X connect 30 0 31 0;
#X connect 30 0 32 0;
#X connect 33 0 35 0;
#X connect 34 0 33 0;
#X connect 35 0 30 0;
#X connect 35 0 36 0;
#X connect 38 0 15 0;
#X connect 39 0 38 0;
#X connect 40 0 38 3;
#X connect 40 0 38 2;
#X connect 40 0 38 1;
#X connect 40 0 39 3;
#X connect 40 0 39 2;
#X connect 40 0 39 1;
#X connect 41 0 42 0;
#X connect 41 0 43 0;
#X connect 41 1 43 1;
#X connect 42 0 44 0;
#X connect 44 0 47 0;
#X connect 44 0 49 0;
#X connect 45 0 46 0;
#X connect 47 0 45 0;
#X connect 49 0 51 0;
#X connect 50 0 52 0;
#X connect 51 0 50 0;
#X connect 55 0 65 0;
#X connect 56 0 55 1;
#X connect 57 0 61 0;
#X connect 57 1 61 1;
#X connect 57 2 61 2;
#X connect 58 0 57 0;
#X connect 59 0 57 1;
#X connect 60 0 57 2;
#X connect 61 0 55 2;
#X connect 65 0 14 0;
#X connect 74 0 65 1;
