#N canvas 577 92 450 346 10;
#X obj 106 137 bng 15 250 50 0 empty empty empty 17 7 0 10 -262144
-1 -1;
#X obj 125 137 bng 15 250 50 0 empty empty empty 17 7 0 10 -262144
-1 -1;
#X obj 144 137 bng 15 250 50 0 empty empty empty 17 7 0 10 -262144
-1 -1;
#X obj 164 137 bng 15 250 50 0 empty empty empty 17 7 0 10 -262144
-1 -1;
#X obj 183 137 bng 15 250 50 0 empty empty empty 17 7 0 10 -262144
-1 -1;
#X obj 202 137 bng 15 250 50 0 empty empty empty 17 7 0 10 -262144
-1 -1;
#X obj 110 166 hsl 105 15 0 127 0 0 empty empty empty -2 -8 0 10 -262144
-1 -1 0 1;
#X obj 110 184 hsl 105 15 0 127 0 0 empty empty empty -2 -8 0 10 -262144
-1 -1 4913 1;
#X obj 110 203 hsl 105 15 0 127 0 0 empty empty empty -2 -8 0 10 -262144
-1 -1 7370 1;
#X obj 110 221 hsl 105 15 0 127 0 0 empty empty empty -2 -8 0 10 -262144
-1 -1 1883 1;
#X obj 110 240 hsl 105 15 0 127 0 0 empty empty empty -2 -8 0 10 -262144
-1 -1 983 1;
#X obj 110 258 hsl 105 15 0 127 0 0 empty empty empty -2 -8 0 10 -262144
-1 -1 4586 1;
#X obj 227 171 print;
#X obj 227 193 moses;
#X obj 227 214 alternate;
#X floatatom 227 235 5 0 0 0 - - -;
#X floatatom 263 234 5 0 0 0 - - -;
#X msg 226 255;
#X msg 259 255;
#X text 107 115 Primer FLU;
#X msg 118 78 30;
#X msg 151 78 60;
#X msg 183 78 90;
#X msg 214 78 23;
#X msg 246 77 12;
#X msg 277 77 56;
#X obj 246 136 inlet;
#X connect 0 0 20 0;
#X connect 1 0 21 0;
#X connect 2 0 22 0;
#X connect 3 0 23 0;
#X connect 4 0 24 0;
#X connect 5 0 25 0;
#X connect 20 0 6 0;
#X connect 21 0 7 0;
#X connect 22 0 8 0;
#X connect 23 0 9 0;
#X connect 24 0 10 0;
#X connect 25 0 11 0;
#X connect 26 0 6 0;
#X coords 0 -1 1 1 200 200 1 100 100;
