#N canvas 761 156 693 543 10;
#X msg 10 29 create \, 1;
#X msg 22 55 0 \, destroy;
#X obj 10 100 gemwin;
#X msg 39 79 dimen 320 240;
#X obj 195 30 tgl 15 0 empty empty empty 17 7 0 10 -262144 -1 -1 1
1;
#X obj 195 56 gemhead;
#X obj 195 163 pix_film;
#X obj 213 82 bng 15 250 50 0 empty empty empty 17 7 0 10 -262144 -1
-1;
#X obj 213 100 openpanel;
#X msg 213 123 open \$1;
#X obj 285 100 tgl 15 0 empty empty empty 17 7 0 10 -262144 -1 -1 1
1;
#X msg 284 124 auto \$1;
#X obj 217 186 unpack f f f;
#X floatatom 217 208 5 0 0 0 - - -;
#X floatatom 251 208 5 0 0 0 - - -;
#X floatatom 286 208 5 0 0 0 - - -;
#X obj 195 232 pix_mix 0;
#X obj 365 29 tgl 15 0 empty empty empty 17 7 0 10 -262144 -1 -1 1
1;
#X obj 365 55 gemhead;
#X obj 365 162 pix_film;
#X obj 383 81 bng 15 250 50 0 empty empty empty 17 7 0 10 -262144 -1
-1;
#X obj 383 99 openpanel;
#X msg 383 122 open \$1;
#X obj 455 99 tgl 15 0 empty empty empty 17 7 0 10 -262144 -1 -1 1
1;
#X msg 454 123 auto \$1;
#X obj 387 185 unpack f f f;
#X floatatom 387 207 5 0 0 0 - - -;
#X floatatom 421 207 5 0 0 0 - - -;
#X floatatom 456 207 5 0 0 0 - - -;
#X obj 195 254 pix_texture;
#X obj 195 294 translateXYZ;
#X msg 241 273 0;
#X obj 195 315 rectangle 6 4;
#X obj 307 271 hsl 128 15 0 1 0 0 empty empty empty -2 -8 0 10 -262144
-1 -1 0 1;
#X obj 19 214 adc~;
#X obj 19 238 env~;
#X floatatom 19 261 5 0 0 0 - - -;
#X obj 19 283 * 0.01;
#X msg 19 306 \$1 500;
#X text 66 305 kasnjenje u ms;
#X obj 19 328 line;
#X obj 22 352 hsl 128 15 0 1 0 0 empty empty empty -2 -8 0 10 -262144
-1 -1 5977 1;
#X connect 0 0 2 0;
#X connect 1 0 2 0;
#X connect 3 0 2 0;
#X connect 4 0 5 0;
#X connect 5 0 6 0;
#X connect 6 0 16 0;
#X connect 6 1 12 0;
#X connect 7 0 8 0;
#X connect 8 0 9 0;
#X connect 9 0 6 0;
#X connect 10 0 11 0;
#X connect 11 0 6 0;
#X connect 12 0 13 0;
#X connect 12 1 14 0;
#X connect 12 2 15 0;
#X connect 16 0 29 0;
#X connect 17 0 18 0;
#X connect 18 0 19 0;
#X connect 19 0 16 1;
#X connect 19 1 25 0;
#X connect 20 0 21 0;
#X connect 21 0 22 0;
#X connect 22 0 19 0;
#X connect 23 0 24 0;
#X connect 24 0 19 0;
#X connect 25 0 26 0;
#X connect 25 1 27 0;
#X connect 25 2 28 0;
#X connect 29 0 30 0;
#X connect 30 0 32 0;
#X connect 31 0 30 1;
#X connect 31 0 30 2;
#X connect 31 0 30 3;
#X connect 33 0 16 2;
#X connect 34 0 35 0;
#X connect 35 0 36 0;
#X connect 36 0 37 0;
#X connect 37 0 38 0;
#X connect 38 0 40 0;
#X connect 40 0 41 0;
