#N canvas 40 25 1289 600 24;
#X floatatom 34 105 5 0 0 0 - - -;
#X obj 34 -4 metro 200;
#X obj 34 70 /;
#X obj -223 -25 tgl 15 0 empty empty empty 17 7 0 10 -262144 -1 -1
0 1;
#X obj -223 -3 metro 200;
#X floatatom -222 109 5 0 0 0 - - -;
#X obj -94 199 *;
#X floatatom -94 233 5 0 0 0 - - -;
#X obj -223 35 random 10;
#X obj -101 34 random 10;
#X obj -223 71 *;
#X obj 34 34 random 10;
#X obj 156 33 random 10;
#X obj -94 274 moses 127;
#X obj -94 348 osc~;
#X obj -95 392 dac~;
#X floatatom -168 300 5 0 0 0 - - -;
#X obj -94 310 mtof;
#X obj 118 212 tgl 15 0 empty empty empty 17 7 0 10 -262144 -1 -1 0
1;
#X obj 118 244 metro 200;
#X obj 118 282 random 127;
#X obj 118 361 osc~;
#X obj 117 405 dac~;
#X obj 118 323 mtof;
#X msg 250 322 0;
#X obj 443 98 tgl 15 0 empty empty empty 17 7 0 10 -262144 -1 -1 0
1;
#X obj 443 130 metro 200;
#X obj 443 168 random 127;
#X obj 443 209 alternate;
#X floatatom 443 247 5 0 0 0 - - -;
#X floatatom 539 246 5 0 0 0 - - -;
#X obj 443 326 osc~;
#X obj 442 370 dac~;
#X obj 443 288 mtof;
#X obj 538 369 dac~;
#X obj 539 287 mtof;
#X obj 539 325 phasor~;
#X obj 443 14 metro 5000;
#X obj 442 -14 bng 15 250 50 0 empty empty empty 17 7 0 10 -262144
-1 -1;
#X obj 462 50 bng 15 250 50 0 empty empty empty 17 7 0 10 -262144 -1
-1;
#X msg 652 110 0;
#X obj 555 65 alternate;
#X connect 0 0 6 1;
#X connect 1 0 11 0;
#X connect 1 0 12 0;
#X connect 2 0 0 0;
#X connect 3 0 4 0;
#X connect 3 0 1 0;
#X connect 4 0 8 0;
#X connect 4 0 9 0;
#X connect 5 0 6 0;
#X connect 6 0 7 0;
#X connect 7 0 13 0;
#X connect 8 0 10 0;
#X connect 9 0 10 1;
#X connect 10 0 5 0;
#X connect 11 0 2 0;
#X connect 12 0 2 1;
#X connect 13 0 16 0;
#X connect 13 0 17 0;
#X connect 14 0 15 0;
#X connect 14 0 15 1;
#X connect 17 0 14 0;
#X connect 18 0 19 0;
#X connect 19 0 20 0;
#X connect 20 0 23 0;
#X connect 21 0 22 0;
#X connect 21 0 22 1;
#X connect 23 0 21 0;
#X connect 24 0 21 0;
#X connect 24 0 14 0;
#X connect 25 0 26 0;
#X connect 26 0 27 0;
#X connect 27 0 28 0;
#X connect 28 0 29 0;
#X connect 28 1 30 0;
#X connect 29 0 33 0;
#X connect 30 0 35 0;
#X connect 31 0 32 0;
#X connect 31 0 32 1;
#X connect 33 0 31 0;
#X connect 35 0 36 0;
#X connect 36 0 34 0;
#X connect 36 0 34 1;
#X connect 37 0 25 0;
#X connect 37 0 39 0;
#X connect 38 0 37 0;
#X connect 39 0 41 0;
#X connect 40 0 31 0;
#X connect 40 0 36 0;
#X connect 41 1 40 0;
