#N canvas 0 0 450 300 10;
#X obj 176 153 snapshot~;
#X obj 187 106 tgl 15 0 empty empty empty 17 7 0 10 -262144 -1 -1 0
1;
#X obj 179 84 hsl 128 15 0 127 0 0 empty empty empty -2 -8 0 10 -262144
-1 -1 0 1;
#X floatatom 176 177 5 0 0 0 - - -;
#X obj 186 126 metro 300;
#X floatatom 135 109 5 0 0 0 - - -;
#X connect 0 0 3 0;
#X connect 1 0 4 0;
#X connect 2 0 0 0;
#X connect 2 0 5 0;
#X connect 4 0 0 0;
