#N canvas 0 0 1916 1007 10;
#X obj 478 844 dac~;
#N canvas 1249 89 611 724 prvi 0;
#X obj 336 383 tgl 15 0 empty empty empty 17 7 0 10 -262144 -1 -1 0
1;
#X msg 336 409 \; pd dsp \$1;
#X obj 176 149 soundfiler;
#X floatatom 207 171 10 0 0 0 - - -;
#X floatatom 213 245 10 0 0 0 - - -;
#X obj 177 365 phasor~;
#X obj 177 406 *~;
#X obj 207 198 s sampleSize;
#X obj 233 389 r sampleSize;
#X obj 177 478 tabread~ L1;
#X obj 209 449 tabread~ R1;
#X obj 229 329 hsl 128 15 -1 1 0 0 empty empty empty -2 -8 0 10 -262144
-1 -1 4147 1;
#X text 263 343 Dir/Speed;
#X obj 315 292 f;
#X text 283 248 Default Speed;
#X obj 117 568 *~;
#X obj 158 550 *~;
#X obj 68 406 metro 50;
#X obj 68 423 snapshot~;
#X floatatom 68 440 10 0 0 0 - - -;
#X obj 60 603 hsl 195 15 0 1 0 0 empty empty empty -2 -8 0 10 -262144
-1 -1 1561 1;
#X obj 83 461 r sampleSize;
#X obj 68 487 /;
#X obj 264 148 bng 15 250 50 0 empty empty empty 17 7 0 10 -262144
-1 -1;
#X obj 322 576 *~;
#X obj 185 513 tgl 15 0 empty empty empty 17 7 0 10 -204800 -1 -1 1
1;
#X obj 89 246 bng 15 250 50 0 empty empty empty 17 7 0 10 -262130 -1
-1;
#X floatatom 89 313 10 0 0 0 - - -;
#X obj 89 295 / 1000;
#X obj 89 278 - 1000;
#X obj 89 261 random 2000;
#X obj 345 474 loadbang;
#X msg 345 491 1;
#X obj 345 508 s loadon;
#X obj 68 375 r loadon;
#X obj 177 221 expr 44100 / $f1;
#X msg 309 88 stop;
#X floatatom 236 353 5 0 0 0 - - -;
#X msg 417 51 open dv01.wav;
#N canvas 0 22 450 278 (subpatch) 0;
#X array R1 40128 float 2;
#X coords 0 1 40128 -1 20 20 1 0 0;
#X restore 416 416 graph;
#X obj 72 202 metro 500;
#X msg 248 287 1;
#X msg 180 120 read -resize \$1 L1 R1;
#X obj 419 81 r play1;
#X obj 419 105 r stop1;
#X obj 419 129 r vol1;
#X obj 419 154 r playmetro1;
#X obj 419 178 r normalspeed1;
#X obj 420 202 r metrospeed1;
#X obj 420 224 r playspeed1;
#X obj 420 247 s speedvidim1;
#X obj 422 270 r start1;
#X obj 321 629 outlet~;
#X msg 298 495 0.5;
#X obj 504 154 r resetmetro1;
#X msg 114 159 500;
#X connect 0 0 1 0;
#X connect 2 0 3 0;
#X connect 2 0 35 0;
#X connect 3 0 7 0;
#X connect 4 0 13 1;
#X connect 5 0 6 0;
#X connect 6 0 9 0;
#X connect 6 0 10 0;
#X connect 6 0 18 0;
#X connect 8 0 6 1;
#X connect 9 0 15 0;
#X connect 10 0 16 0;
#X connect 11 0 5 0;
#X connect 11 0 37 0;
#X connect 13 0 11 0;
#X connect 15 0 24 0;
#X connect 17 0 18 0;
#X connect 18 0 19 0;
#X connect 19 0 22 0;
#X connect 21 0 22 1;
#X connect 22 0 20 0;
#X connect 23 0 3 0;
#X connect 24 0 52 0;
#X connect 25 0 15 1;
#X connect 25 0 16 1;
#X connect 26 0 30 0;
#X connect 27 0 11 0;
#X connect 27 0 50 0;
#X connect 28 0 27 0;
#X connect 29 0 28 0;
#X connect 30 0 29 0;
#X connect 31 0 32 0;
#X connect 32 0 33 0;
#X connect 34 0 17 0;
#X connect 35 0 4 0;
#X connect 35 0 5 0;
#X connect 36 0 42 0;
#X connect 38 0 42 0;
#X connect 40 0 26 0;
#X connect 41 0 11 0;
#X connect 42 0 2 0;
#X connect 43 0 38 0;
#X connect 44 0 36 0;
#X connect 45 0 24 1;
#X connect 46 0 40 0;
#X connect 47 0 41 0;
#X connect 48 0 40 1;
#X connect 49 0 11 0;
#X connect 51 0 25 0;
#X connect 51 0 53 0;
#X connect 53 0 24 1;
#X connect 54 0 55 0;
#X connect 55 0 40 1;
#X restore 478 723 pd prvi;
#X obj 478 814 *~;
#X msg 506 813 0.5;
#N canvas 1041 117 808 724 drugi 0;
#X obj 336 383 tgl 15 0 empty empty empty 17 7 0 10 -262144 -1 -1 0
1;
#X msg 336 409 \; pd dsp \$1;
#X obj 176 149 soundfiler;
#X floatatom 207 171 10 0 0 0 - - -;
#X floatatom 213 245 10 0 0 0 - - -;
#X obj 177 365 phasor~;
#X obj 177 406 *~;
#X obj 233 389 r sampleSize;
#X obj 229 329 hsl 128 15 -1 1 0 0 empty empty empty -2 -8 0 10 -262144
-1 -1 5378 1;
#X text 263 343 Dir/Speed;
#X obj 315 292 f;
#X text 283 248 Default Speed;
#X obj 117 568 *~;
#X obj 158 550 *~;
#X obj 68 406 metro 50;
#X obj 68 423 snapshot~;
#X floatatom 68 440 10 0 0 0 - - -;
#X obj 60 603 hsl 195 15 0 1 0 0 empty empty empty -2 -8 0 10 -262144
-1 -1 5916 1;
#X obj 68 487 /;
#X obj 264 148 bng 15 250 50 0 empty empty empty 17 7 0 10 -262144
-1 -1;
#X obj 322 576 *~;
#X obj 185 513 tgl 15 0 empty empty empty 17 7 0 10 -204800 -1 -1 1
1;
#X obj 89 246 bng 15 250 50 0 empty empty empty 17 7 0 10 -262130 -1
-1;
#X floatatom 89 313 10 0 0 0 - - -;
#X obj 89 295 / 1000;
#X obj 89 278 - 1000;
#X obj 89 261 random 2000;
#X obj 345 474 loadbang;
#X msg 345 491 1;
#X obj 345 508 s loadon;
#X obj 68 375 r loadon;
#X obj 177 221 expr 44100 / $f1;
#X msg 309 88 stop;
#X floatatom 236 353 5 0 0 0 - - -;
#N canvas 0 22 450 278 (subpatch) 0;
#X array R2 72832 float 2;
#X coords 0 1 72832 -1 20 20 1 0 0;
#X restore 518 119 graph;
#X obj 72 202 metro 500;
#X msg 248 287 1;
#X obj 321 629 outlet~;
#X msg 298 495 0.5;
#X msg 417 51 open dv02.wav;
#X obj 419 81 r play2;
#X obj 419 105 r stop2;
#X obj 419 129 r vol2;
#X obj 419 156 r playmetro2;
#X obj 419 178 r normalspeed2;
#X obj 420 202 r metrospeed2;
#X obj 420 224 r playspeed2;
#X obj 420 247 s speedvidim2;
#X obj 422 270 r start2;
#X msg 180 120 read -resize \$1 L2 R2;
#X obj 419 297 tabread~ R2;
#X obj 418 323 tabread~ L2;
#X obj 516 50 s sampleSize2;
#X obj 518 76 r sampleSize2;
#X msg 99 152 500;
#X obj 612 48 r resetmetro2;
#X connect 0 0 1 0;
#X connect 2 0 3 0;
#X connect 2 0 31 0;
#X connect 3 0 52 0;
#X connect 4 0 10 1;
#X connect 5 0 6 0;
#X connect 6 0 15 0;
#X connect 6 0 50 0;
#X connect 6 0 51 0;
#X connect 7 0 6 1;
#X connect 8 0 5 0;
#X connect 8 0 33 0;
#X connect 10 0 8 0;
#X connect 12 0 20 0;
#X connect 14 0 15 0;
#X connect 15 0 16 0;
#X connect 16 0 18 0;
#X connect 18 0 17 0;
#X connect 19 0 3 0;
#X connect 20 0 37 0;
#X connect 21 0 12 1;
#X connect 21 0 13 1;
#X connect 22 0 26 0;
#X connect 23 0 8 0;
#X connect 23 0 47 0;
#X connect 24 0 23 0;
#X connect 25 0 24 0;
#X connect 26 0 25 0;
#X connect 27 0 28 0;
#X connect 28 0 29 0;
#X connect 30 0 14 0;
#X connect 31 0 4 0;
#X connect 31 0 5 0;
#X connect 32 0 49 0;
#X connect 35 0 22 0;
#X connect 36 0 8 0;
#X connect 38 0 20 1;
#X connect 39 0 49 0;
#X connect 40 0 39 0;
#X connect 41 0 32 0;
#X connect 42 0 20 1;
#X connect 43 0 35 0;
#X connect 44 0 36 0;
#X connect 45 0 35 1;
#X connect 46 0 8 0;
#X connect 48 0 21 0;
#X connect 48 0 38 0;
#X connect 49 0 2 0;
#X connect 50 0 13 0;
#X connect 51 0 12 0;
#X connect 53 0 18 1;
#X connect 54 0 35 1;
#X connect 55 0 54 0;
#X restore 531 723 pd drugi;
#X obj 506 791 r start1;
#X obj 18 25 cnv 15 580 160 empty empty empty 20 12 0 14 -233017 -66577
0;
#N canvas 0 22 450 278 (subpatch) 0;
#X array L1 40128 float 2;
#X coords 0 1 40128 -1 200 107 1 0 0;
#X restore 384 43 graph;
#X obj 229 110 bng 40 250 50 0 empty empty empty 17 7 0 10 -262144
-258113 -1;
#X obj 178 45 vsl 40 102 0 1 0 0 empty empty empty 0 -9 0 10 -262144
-258113 -66577 2900 1;
#X obj 78 43 bng 40 250 50 0 empty empty empty 17 7 0 10 -258113 -1
-1;
#X obj 78 110 bng 40 250 50 0 empty empty empty 17 7 0 10 -262144 -1
-1;
#X obj 124 43 bng 40 250 50 0 empty empty empty 17 7 0 10 -4034 -1
-1;
#N canvas 1109 317 406 434 sound1 0;
#X obj 71 213 writesf~;
#X obj 37 169 *~ 1;
#X obj 38 141 adc~;
#X msg 104 177 stop;
#X obj 75 20 inlet;
#X text 82 34 rec;
#X obj 123 19 inlet;
#X text 128 34 rec stop;
#X msg 76 83 open dv01.wav \, start;
#X connect 1 0 0 0;
#X connect 2 0 1 0;
#X connect 3 0 0 0;
#X connect 4 0 8 0;
#X connect 6 0 3 0;
#X connect 8 0 0 0;
#X restore 814 70 pd sound1;
#X obj 229 43 tgl 40 0 empty empty empty 17 7 0 10 -262144 -258113
-1 1 1;
#X obj 280 45 vsl 40 102 100 2000 0 0 empty empty empty 0 -9 0 10 -262144
-258113 -66577 0 1;
#X obj 331 45 vsl 40 102 -1 1 0 0 empty empty empty 0 -9 0 10 -262144
-258113 -66577 3298 1;
#X text 79 86 RECORD;
#X text 84 152 STOP;
#X text 131 86 PLAY;
#X obj 124 110 bng 40 250 50 0 empty empty empty 17 7 0 10 -262144
-1 -1;
#X text 130 152 STOP;
#X text 177 152 VOLUME;
#X text 233 163 SPEED;
#X text 231 152 Normal;
#X text 262 26 PLAY;
#X text 334 163 SPEED;
#X text 337 152 Play;
#X text 227 83 Play;
#X text 227 95 METRO;
#X text 284 163 SPEED;
#X text 284 152 Metro;
#X obj 33 43 tgl 40 0 empty empty empty 17 7 0 10 -262144 -1 -1 1 1
;
#X text 37 85 START;
#X obj 879 70 s play1;
#X obj 879 93 s stop1;
#X obj 933 70 s vol1;
#X obj 986 69 s playmetro1;
#X obj 1069 68 s metrospeed1;
#X obj 987 92 s normalspeed1;
#X obj 1078 91 s playspeed1;
#X text 335 84 _____;
#X obj 1160 68 r speedvidim1;
#X obj 814 92 s start1;
#X text 528 165 Channel 1;
#X obj 19 194 cnv 15 580 160 empty empty empty 20 12 0 14 -233017 -66577
0;
#N canvas 0 22 450 278 (subpatch) 0;
#X array L2 72832 float 2;
#X coords 0 1 72832 -1 200 107 1 0 0;
#X restore 385 212 graph;
#X obj 230 279 bng 40 250 50 0 empty empty empty 17 7 0 10 -262144
-258113 -1;
#X obj 179 214 vsl 40 102 0 1 0 0 empty empty empty 0 -9 0 10 -262144
-258113 -66577 1600 1;
#X obj 79 212 bng 40 250 50 0 empty empty empty 17 7 0 10 -258113 -1
-1;
#X obj 79 279 bng 40 250 50 0 empty empty empty 17 7 0 10 -262144 -1
-1;
#X obj 125 212 bng 40 250 50 0 empty empty empty 17 7 0 10 -4034 -1
-1;
#X obj 230 212 tgl 40 0 empty empty empty 17 7 0 10 -262144 -258113
-1 1 1;
#X obj 281 214 vsl 40 102 100 2000 0 0 empty empty empty 0 -9 0 10
-262144 -258113 -66577 0 1;
#X obj 332 214 vsl 40 102 -1 1 0 0 empty empty empty 0 -9 0 10 -262144
-258113 -66577 4277 1;
#X text 80 255 RECORD;
#X text 85 321 STOP;
#X text 132 255 PLAY;
#X obj 125 279 bng 40 250 50 0 empty empty empty 17 7 0 10 -262144
-1 -1;
#X text 131 321 STOP;
#X text 178 321 VOLUME;
#X text 234 332 SPEED;
#X text 232 321 Normal;
#X text 263 195 PLAY;
#X text 335 332 SPEED;
#X text 338 321 Play;
#X text 228 252 Play;
#X text 228 263 METRO;
#X text 285 332 SPEED;
#X text 285 321 Metro;
#X obj 34 212 tgl 40 0 empty empty empty 17 7 0 10 -262144 -1 -1 1
1;
#X text 38 254 START;
#X text 336 253 _____;
#N canvas 1109 317 406 434 sound2 0;
#X obj 71 213 writesf~;
#X obj 37 169 *~ 1;
#X obj 38 141 adc~;
#X msg 104 177 stop;
#X obj 75 20 inlet;
#X text 82 34 rec;
#X obj 123 19 inlet;
#X text 128 34 rec stop;
#X msg 76 83 open dv02.wav \, start;
#X connect 1 0 0 0;
#X connect 2 0 1 0;
#X connect 3 0 0 0;
#X connect 4 0 8 0;
#X connect 6 0 3 0;
#X connect 8 0 0 0;
#X restore 834 240 pd sound2;
#X obj 834 262 s start2;
#X obj 899 240 s play2;
#X obj 899 263 s stop2;
#X obj 953 240 s vol2;
#X obj 1006 239 s playmetro2;
#X obj 1007 262 s normalspeed2;
#X obj 1089 238 s metrospeed2;
#X obj 1098 261 s playspeed2;
#X obj 1180 238 r speedvidim2;
#X text 830 282 promeniti i ime fajla za kreaciju u pd sound;
#X text 782 243 ovde;
#X obj 254 83 bng 15 250 50 0 empty empty empty 17 7 0 10 -262144 -1
-1;
#X obj 1247 68 s resetmetro1;
#X obj 255 252 bng 15 250 50 0 empty empty empty 17 7 0 10 -262144
-1 -1;
#X obj 1267 238 s resetmetro2;
#X obj 19 362 cnv 15 580 160 empty empty empty 20 12 0 14 -233017 -66577
0;
#N canvas 0 22 450 278 (subpatch) 0;
#X array L3 48000 float 2;
#X coords 0 1 48000 -1 200 107 1 0 0;
#X restore 385 380 graph;
#X obj 230 447 bng 40 250 50 0 empty empty empty 17 7 0 10 -262144
-258113 -1;
#X obj 179 382 vsl 40 102 0 1 0 0 empty empty empty 0 -9 0 10 -262144
-258113 -66577 7900 1;
#X obj 79 380 bng 40 250 50 0 empty empty empty 17 7 0 10 -258113 -1
-1;
#X obj 79 447 bng 40 250 50 0 empty empty empty 17 7 0 10 -262144 -1
-1;
#X obj 125 380 bng 40 250 50 0 empty empty empty 17 7 0 10 -4034 -1
-1;
#X obj 230 380 tgl 40 0 empty empty empty 17 7 0 10 -262144 -258113
-1 0 1;
#X obj 281 382 vsl 40 102 100 2000 0 0 empty empty empty 0 -9 0 10
-262144 -258113 -66577 0 1;
#X obj 332 382 vsl 40 102 -1 1 0 0 empty empty empty 0 -9 0 10 -262144
-258113 -66577 8000 1;
#X text 80 423 RECORD;
#X text 85 489 STOP;
#X text 132 423 PLAY;
#X obj 125 447 bng 40 250 50 0 empty empty empty 17 7 0 10 -262144
-1 -1;
#X text 131 489 STOP;
#X text 178 489 VOLUME;
#X text 234 500 SPEED;
#X text 232 489 Normal;
#X text 263 363 PLAY;
#X text 335 500 SPEED;
#X text 338 489 Play;
#X text 228 420 Play;
#X text 228 431 METRO;
#X text 285 500 SPEED;
#X text 285 489 Metro;
#X obj 34 380 tgl 40 0 empty empty empty 17 7 0 10 -262144 -1 -1 1
1;
#X text 38 422 START;
#X text 336 421 _____;
#X text 848 481 promeniti i ime fajla za kreaciju u pd sound;
#X text 819 439 ovde;
#X obj 255 420 bng 15 250 50 0 empty empty empty 17 7 0 10 -262144
-1 -1;
#X obj 20 529 cnv 15 580 160 empty empty empty 20 12 0 14 -233017 -66577
0;
#N canvas 0 22 450 278 (subpatch) 0;
#X array L4 43008 float 2;
#X coords 0 1 43008 -1 200 107 1 0 0;
#X restore 386 547 graph;
#X obj 231 614 bng 40 250 50 0 empty empty empty 17 7 0 10 -262144
-258113 -1;
#X obj 180 549 vsl 40 102 0 1 0 0 empty empty empty 0 -9 0 10 -262144
-258113 -66577 2200 1;
#X obj 80 547 bng 40 250 50 0 empty empty empty 17 7 0 10 -258113 -1
-1;
#X obj 80 614 bng 40 250 50 0 empty empty empty 17 7 0 10 -262144 -1
-1;
#X obj 126 547 bng 40 250 50 0 empty empty empty 17 7 0 10 -4034 -1
-1;
#X obj 231 547 tgl 40 0 empty empty empty 17 7 0 10 -262144 -258113
-1 0 1;
#X obj 282 549 vsl 40 102 100 2000 0 0 empty empty empty 0 -9 0 10
-262144 -258113 -66577 0 1;
#X obj 333 549 vsl 40 102 -1 1 0 0 empty empty empty 0 -9 0 10 -262144
-258113 -66577 0 1;
#X text 81 590 RECORD;
#X text 86 656 STOP;
#X text 133 590 PLAY;
#X obj 126 614 bng 40 250 50 0 empty empty empty 17 7 0 10 -262144
-1 -1;
#X text 132 656 STOP;
#X text 179 656 VOLUME;
#X text 235 667 SPEED;
#X text 233 656 Normal;
#X text 264 530 PLAY;
#X text 336 667 SPEED;
#X text 339 656 Play;
#X text 229 587 Play;
#X text 229 598 METRO;
#X text 286 667 SPEED;
#X text 286 656 Metro;
#X obj 35 547 tgl 40 0 empty empty empty 17 7 0 10 -262144 -1 -1 1
1;
#X text 39 589 START;
#X text 337 588 _____;
#X text 845 623 promeniti i ime fajla za kreaciju u pd sound;
#X text 816 581 ovde;
#X obj 256 587 bng 15 250 50 0 empty empty empty 17 7 0 10 -262144
-1 -1;
#X text 529 334 Channel 2;
#X text 529 502 Channel 3;
#X text 530 669 Channel 4;
#N canvas 1109 317 406 434 sound3 0;
#X obj 71 213 writesf~;
#X obj 37 169 *~ 1;
#X obj 38 141 adc~;
#X msg 104 177 stop;
#X obj 75 20 inlet;
#X text 82 34 rec;
#X obj 123 19 inlet;
#X text 128 34 rec stop;
#X msg 76 83 open dv03.wav \, start;
#X connect 1 0 0 0;
#X connect 2 0 1 0;
#X connect 3 0 0 0;
#X connect 4 0 8 0;
#X connect 6 0 3 0;
#X connect 8 0 0 0;
#X restore 852 439 pd sound3;
#X obj 917 439 s play3;
#X obj 971 439 s vol3;
#X obj 1024 438 s playmetro3;
#X obj 1107 437 s metrospeed3;
#X obj 1198 437 r speedvidim3;
#X obj 1285 437 s resetmetro3;
#X obj 852 461 s start3;
#X obj 917 462 s stop3;
#X obj 1025 461 s normalspeed3;
#X obj 1116 460 s playspeed3;
#N canvas 1109 317 406 434 sound4 0;
#X obj 71 213 writesf~;
#X obj 37 169 *~ 1;
#X obj 38 141 adc~;
#X msg 104 177 stop;
#X obj 75 20 inlet;
#X text 82 34 rec;
#X obj 123 19 inlet;
#X text 128 34 rec stop;
#X msg 76 83 open dv04.wav \, start;
#X connect 1 0 0 0;
#X connect 2 0 1 0;
#X connect 3 0 0 0;
#X connect 4 0 8 0;
#X connect 6 0 3 0;
#X connect 8 0 0 0;
#X restore 849 581 pd sound4;
#X obj 914 581 s play4;
#X obj 968 581 s vol4;
#X obj 1021 580 s playmetro4;
#X obj 1104 579 s metrospeed4;
#X obj 1195 579 r speedvidim4;
#X obj 1282 579 s resetmetro4;
#X obj 849 603 s start4;
#X obj 914 604 s stop4;
#X obj 1022 603 s normalspeed4;
#X obj 1113 602 s playspeed4;
#N canvas 1041 117 808 724 treci 0;
#X obj 336 383 tgl 15 0 empty empty empty 17 7 0 10 -262144 -1 -1 0
1;
#X msg 336 409 \; pd dsp \$1;
#X obj 176 149 soundfiler;
#X floatatom 207 171 10 0 0 0 - - -;
#X floatatom 213 245 10 0 0 0 - - -;
#X obj 177 365 phasor~;
#X obj 177 406 *~;
#X obj 233 389 r sampleSize;
#X obj 229 329 hsl 128 15 -1 1 0 0 empty empty empty -2 -8 0 10 -262144
-1 -1 10059 1;
#X text 263 343 Dir/Speed;
#X obj 315 292 f;
#X text 283 248 Default Speed;
#X obj 117 568 *~;
#X obj 158 550 *~;
#X obj 68 406 metro 50;
#X obj 68 423 snapshot~;
#X floatatom 68 440 10 0 0 0 - - -;
#X obj 60 603 hsl 195 15 0 1 0 0 empty empty empty -2 -8 0 10 -262144
-1 -1 2926 1;
#X obj 68 487 /;
#X obj 209 65 bng 15 250 50 0 empty empty empty 17 7 0 10 -262144 -1
-1;
#X obj 322 576 *~;
#X obj 219 517 tgl 15 0 empty empty empty 17 7 0 10 -204800 -1 -1 1
1;
#X obj 89 246 bng 15 250 50 0 empty empty empty 17 7 0 10 -262130 -1
-1;
#X floatatom 89 313 10 0 0 0 - - -;
#X obj 89 295 / 1000;
#X obj 89 278 - 1000;
#X obj 89 261 random 2000;
#X obj 345 474 loadbang;
#X msg 345 491 1;
#X obj 345 508 s loadon;
#X obj 68 375 r loadon;
#X obj 177 221 expr 44100 / $f1;
#X msg 309 88 stop;
#X floatatom 236 353 5 0 0 0 - - -;
#N canvas 0 22 450 278 (subpatch) 0;
#X array R3 48000 float 2;
#X coords 0 1 48000 -1 20 20 1 0 0;
#X restore 518 119 graph;
#X obj 72 202 metro 500;
#X msg 248 287 1;
#X obj 321 629 outlet~;
#X msg 298 495 0.5;
#X msg 99 152 500;
#X msg 417 51 open dv03.wav;
#X obj 419 81 r play3;
#X obj 419 105 r stop3;
#X obj 419 129 r vol3;
#X msg 180 120 read -resize \$1 L3 R3;
#X obj 419 156 r playmetro3;
#X obj 419 178 r normalspeed3;
#X obj 420 202 r metrospeed3;
#X obj 420 224 r playspeed3;
#X obj 420 247 s speedvidim3;
#X obj 422 270 r start3;
#X obj 516 50 s sampleSize3;
#X obj 518 76 r sampleSize3;
#X obj 423 296 tabread~ R3;
#X obj 422 322 tabread~ L3;
#X obj 612 48 r resetmetro3;
#X connect 0 0 1 0;
#X connect 2 0 3 0;
#X connect 2 0 31 0;
#X connect 3 0 51 0;
#X connect 4 0 10 1;
#X connect 5 0 6 0;
#X connect 6 0 15 0;
#X connect 6 0 53 0;
#X connect 6 0 54 0;
#X connect 7 0 6 1;
#X connect 8 0 5 0;
#X connect 8 0 33 0;
#X connect 10 0 8 0;
#X connect 12 0 20 0;
#X connect 14 0 15 0;
#X connect 15 0 16 0;
#X connect 16 0 18 0;
#X connect 18 0 17 0;
#X connect 19 0 3 0;
#X connect 20 0 37 0;
#X connect 21 0 12 1;
#X connect 21 0 13 1;
#X connect 22 0 26 0;
#X connect 23 0 8 0;
#X connect 23 0 49 0;
#X connect 24 0 23 0;
#X connect 25 0 24 0;
#X connect 26 0 25 0;
#X connect 27 0 28 0;
#X connect 28 0 29 0;
#X connect 30 0 14 0;
#X connect 31 0 4 0;
#X connect 31 0 5 0;
#X connect 32 0 44 0;
#X connect 35 0 22 0;
#X connect 36 0 8 0;
#X connect 38 0 20 1;
#X connect 39 0 35 1;
#X connect 40 0 44 0;
#X connect 41 0 40 0;
#X connect 42 0 32 0;
#X connect 43 0 20 1;
#X connect 44 0 2 0;
#X connect 45 0 35 0;
#X connect 46 0 36 0;
#X connect 47 0 35 1;
#X connect 48 0 8 0;
#X connect 50 0 21 0;
#X connect 50 0 38 0;
#X connect 52 0 18 1;
#X connect 53 0 13 0;
#X connect 54 0 12 0;
#X connect 55 0 39 0;
#X restore 588 725 pd treci;
#N canvas 1041 117 808 724 cetvrti 0;
#X obj 336 383 tgl 15 0 empty empty empty 17 7 0 10 -262144 -1 -1 0
1;
#X msg 336 409 \; pd dsp \$1;
#X obj 176 149 soundfiler;
#X floatatom 207 171 10 0 0 0 - - -;
#X floatatom 213 245 10 0 0 0 - - -;
#X obj 177 365 phasor~;
#X obj 177 406 *~;
#X obj 233 389 r sampleSize;
#X obj 229 329 hsl 128 15 -1 1 0 0 empty empty empty -2 -8 0 10 -262144
-1 -1 0 1;
#X text 263 343 Dir/Speed;
#X obj 315 292 f;
#X text 283 248 Default Speed;
#X obj 117 568 *~;
#X obj 158 550 *~;
#X obj 68 406 metro 50;
#X obj 68 423 snapshot~;
#X floatatom 68 440 10 0 0 0 - - -;
#X obj 60 603 hsl 195 15 0 1 0 0 empty empty empty -2 -8 0 10 -262144
-1 -1 1804 1;
#X obj 68 487 /;
#X obj 264 148 bng 15 250 50 0 empty empty empty 17 7 0 10 -262144
-1 -1;
#X obj 322 576 *~;
#X obj 185 513 tgl 15 0 empty empty empty 17 7 0 10 -204800 -1 -1 1
1;
#X obj 89 246 bng 15 250 50 0 empty empty empty 17 7 0 10 -262130 -1
-1;
#X floatatom 89 313 10 0 0 0 - - -;
#X obj 89 295 / 1000;
#X obj 89 278 - 1000;
#X obj 89 261 random 2000;
#X obj 345 474 loadbang;
#X msg 345 491 1;
#X obj 345 508 s loadon;
#X obj 68 375 r loadon;
#X obj 177 221 expr 44100 / $f1;
#X msg 309 88 stop;
#X floatatom 236 353 5 0 0 0 - - -;
#N canvas 0 22 450 278 (subpatch) 0;
#X array R4 43008 float 2;
#X coords 0 1 43008 -1 20 20 1 0 0;
#X restore 518 119 graph;
#X obj 72 202 metro 500;
#X msg 248 287 1;
#X obj 321 629 outlet~;
#X msg 298 495 0.5;
#X msg 99 152 500;
#X msg 417 50 open dv04.wav;
#X obj 419 81 r play4;
#X obj 419 105 r stop4;
#X msg 180 120 read -resize \$1 L4 R4;
#X obj 419 129 r vol4;
#X obj 421 156 r playmetro4;
#X obj 419 178 r normalspeed4;
#X obj 420 202 r metrospeed4;
#X obj 420 224 r playspeed4;
#X obj 420 247 s speedvidim4;
#X obj 420 269 r start4;
#X obj 516 50 s sampleSize4;
#X obj 518 76 r sampleSize4;
#X obj 533 153 tabread~ R4;
#X obj 532 179 tabread~ L4;
#X obj 612 48 r resetmetro4;
#X connect 0 0 1 0;
#X connect 2 0 3 0;
#X connect 2 0 31 0;
#X connect 3 0 51 0;
#X connect 4 0 10 1;
#X connect 5 0 6 0;
#X connect 6 0 15 0;
#X connect 6 0 53 0;
#X connect 6 0 54 0;
#X connect 7 0 6 1;
#X connect 8 0 5 0;
#X connect 8 0 33 0;
#X connect 10 0 8 0;
#X connect 12 0 20 0;
#X connect 14 0 15 0;
#X connect 15 0 16 0;
#X connect 16 0 18 0;
#X connect 18 0 17 0;
#X connect 19 0 3 0;
#X connect 20 0 37 0;
#X connect 21 0 12 1;
#X connect 21 0 13 1;
#X connect 22 0 26 0;
#X connect 23 0 8 0;
#X connect 23 0 49 0;
#X connect 24 0 23 0;
#X connect 25 0 24 0;
#X connect 26 0 25 0;
#X connect 27 0 28 0;
#X connect 28 0 29 0;
#X connect 30 0 14 0;
#X connect 31 0 4 0;
#X connect 31 0 5 0;
#X connect 32 0 43 0;
#X connect 35 0 22 0;
#X connect 36 0 8 0;
#X connect 38 0 20 1;
#X connect 39 0 35 1;
#X connect 40 0 43 0;
#X connect 41 0 40 0;
#X connect 42 0 32 0;
#X connect 43 0 2 0;
#X connect 44 0 20 1;
#X connect 45 0 35 0;
#X connect 46 0 36 0;
#X connect 47 0 35 1;
#X connect 48 0 8 0;
#X connect 50 0 21 0;
#X connect 50 0 38 0;
#X connect 52 0 18 1;
#X connect 53 0 13 0;
#X connect 54 0 12 0;
#X connect 55 0 39 0;
#X restore 643 724 pd cetvrti;
#X obj 606 549 cnv 15 90 140 empty empty empty 20 12 0 14 -233017 -66577
0;
#X obj 634 556 vsl 40 102 0 1 0 0 empty empty empty 0 -9 0 10 -262144
-1 -1 3800 1;
#X text 635 661 Master;
#X text 635 672 VOLUME;
#X connect 1 0 2 0;
#X connect 2 0 0 0;
#X connect 2 0 0 1;
#X connect 3 0 2 1;
#X connect 4 0 2 0;
#X connect 5 0 3 0;
#X connect 8 0 39 0;
#X connect 9 0 36 0;
#X connect 10 0 13 0;
#X connect 11 0 13 1;
#X connect 12 0 34 0;
#X connect 14 0 37 0;
#X connect 15 0 38 0;
#X connect 16 0 40 0;
#X connect 20 0 35 0;
#X connect 32 0 43 0;
#X connect 42 0 16 0;
#X connect 47 0 79 0;
#X connect 48 0 77 0;
#X connect 49 0 73 0;
#X connect 50 0 73 1;
#X connect 51 0 75 0;
#X connect 52 0 78 0;
#X connect 53 0 80 0;
#X connect 54 0 81 0;
#X connect 58 0 76 0;
#X connect 70 0 74 0;
#X connect 82 0 54 0;
#X connect 85 0 86 0;
#X connect 87 0 88 0;
#X connect 91 0 163 0;
#X connect 92 0 156 0;
#X connect 93 0 154 0;
#X connect 94 0 154 1;
#X connect 95 0 155 0;
#X connect 96 0 157 0;
#X connect 97 0 158 0;
#X connect 98 0 164 0;
#X connect 102 0 162 0;
#X connect 114 0 161 0;
#X connect 119 0 160 0;
#X connect 122 0 174 0;
#X connect 123 0 167 0;
#X connect 124 0 165 0;
#X connect 125 0 165 1;
#X connect 126 0 166 0;
#X connect 127 0 168 0;
#X connect 128 0 169 0;
#X connect 129 0 175 0;
#X connect 133 0 173 0;
#X connect 145 0 172 0;
#X connect 150 0 171 0;
#X connect 159 0 98 0;
#X connect 170 0 129 0;
#X connect 176 0 2 0;
#X connect 177 0 2 0;
#X connect 179 0 2 1;
#X coords 0 -1 1 1 700 700 2 10 10;
