#N canvas 23 0 1175 683 10;
#X obj 877 317 dac~;
#X obj 194 -64 ~start;
#X obj 877 156 ~mixer;
#X obj 39 383 ~sound1;
#X obj 877 52 ~fx;
#X obj 127 383 ~sound2;
#X obj 215 383 ~sound3;
#X obj 303 383 ~sound4;
#X obj 391 383 ~sound5;
#X obj 479 383 ~sound6;
#X obj 567 383 ~sound7;
#X obj 655 383 ~sound8;
#X obj 1041 160 bng 15 250 50 0 empty empty empty 17 7 0 10 -258113
-1 -1;
#X obj 1103 160 bng 15 250 50 0 empty empty empty 17 7 0 10 -262144
-1 -1;
#X text 1121 157 stop;
#X obj 988 186 s recset;
#X obj 988 159 bng 15 250 50 0 empty empty empty 17 7 0 10 -262144
-1 -1;
#X text 1003 157 reset;
#X obj 178 323 bng 15 250 50 0 empty empty empty 17 7 0 10 -262144
-1 -1;
#X obj 197 323 bng 15 250 50 0 empty empty empty 17 7 0 10 -262144
-1 -1;
#X obj 216 323 bng 15 250 50 0 empty empty empty 17 7 0 10 -262144
-1 -1;
#X obj 235 323 bng 15 250 50 0 empty empty empty 17 7 0 10 -262144
-1 -1;
#X obj 254 323 bng 15 250 50 0 empty empty empty 17 7 0 10 -262144
-1 -1;
#X obj 273 323 bng 15 250 50 0 empty empty empty 17 7 0 10 -262144
-1 -1;
#X obj 292 323 bng 15 250 50 0 empty empty empty 17 7 0 10 -262144
-1 -1;
#X obj 311 323 bng 15 250 50 0 empty empty empty 17 7 0 10 -262144
-1 -1;
#X text 38 363 Play REC stop;
#X obj 262 268 sel 0 1 2 3 4 5 6 7 8 9 10 11 12 13 14 15 16 17 18 19
20 21 22 23 24 25 26 27 28 29 30;
#X obj 330 323 bng 15 250 50 0 empty empty empty 17 7 0 10 -262144
-1 -1;
#X obj 349 323 bng 15 250 50 0 empty empty empty 17 7 0 10 -262144
-1 -1;
#X obj 368 323 bng 15 250 50 0 empty empty empty 17 7 0 10 -262144
-1 -1;
#X obj 387 323 bng 15 250 50 0 empty empty empty 17 7 0 10 -262144
-1 -1;
#X obj 406 323 bng 15 250 50 0 empty empty empty 17 7 0 10 -262144
-1 -1;
#X obj 425 323 bng 15 250 50 0 empty empty empty 17 7 0 10 -262144
-1 -1;
#X obj 444 323 bng 15 250 50 0 empty empty empty 17 7 0 10 -262144
-1 -1;
#X obj 463 323 bng 15 250 50 0 empty empty empty 17 7 0 10 -262144
-1 -1;
#X obj 483 323 bng 15 250 50 0 empty empty empty 17 7 0 10 -262144
-1 -1;
#X obj 502 323 bng 15 250 50 0 empty empty empty 17 7 0 10 -262144
-1 -1;
#X obj 521 323 bng 15 250 50 0 empty empty empty 17 7 0 10 -262144
-1 -1;
#X obj 540 323 bng 15 250 50 0 empty empty empty 17 7 0 10 -262144
-1 -1;
#X obj 559 323 bng 15 250 50 0 empty empty empty 17 7 0 10 -262144
-1 -1;
#X obj 578 323 bng 15 250 50 0 empty empty empty 17 7 0 10 -262144
-1 -1;
#X obj 597 323 bng 15 250 50 0 empty empty empty 17 7 0 10 -262144
-1 -1;
#X obj 616 323 bng 15 250 50 0 empty empty empty 17 7 0 10 -262144
-1 -1;
#X obj 635 323 bng 15 250 50 0 empty empty empty 17 7 0 10 -262144
-1 -1;
#X obj 654 323 bng 15 250 50 0 empty empty empty 17 7 0 10 -262144
-1 -1;
#X obj 673 323 bng 15 250 50 0 empty empty empty 17 7 0 10 -262144
-1 -1;
#X obj 692 323 bng 15 250 50 0 empty empty empty 17 7 0 10 -262144
-1 -1;
#X obj 711 323 bng 15 250 50 0 empty empty empty 17 7 0 10 -262144
-1 -1;
#X obj 730 323 bng 15 250 50 0 empty empty empty 17 7 0 10 -262144
-1 -1;
#X obj 210 23 ~seq1;
#X obj 183 24 bng 24 250 50 0 empty empty empty 17 7 0 10 -262144 -1
-1;
#X obj 183 52 bng 24 250 50 0 empty empty empty 17 7 0 10 -262144 -1
-1;
#X obj 210 -4 ~seq2;
#X obj 183 80 bng 24 250 50 0 empty empty empty 17 7 0 10 -262144 -1
-1;
#X obj 183 108 bng 24 250 50 0 empty empty empty 17 7 0 10 -262144
-1 -1;
#X obj 210 51 ~seq1;
#X obj 210 79 ~seq1;
#X obj 210 107 ~seq1;
#X obj 153 -59 knob 32 32 50 200 0 1 empty empty empty 0 -8 0 8 -262144
-1 -1 300 1;
#X obj 193 -132 tgl 32 0 empty empty empty 17 7 0 10 -262144 -1 -1
0 1;
#N canvas 239 329 450 300 record 0;
#X obj 62 50 inlet~;
#X obj 109 52 inlet~;
#X msg 276 211 start;
#X msg 283 235 stop;
#X obj 169 262 writesf~ 2;
#X text 298 68 Create file;
#X text 315 210 Start Recording;
#X text 314 233 Stop Recording;
#X obj 276 179 r rec;
#X obj 328 174 r stop;
#X obj 169 47 bng 15 250 50 0 empty empty empty 17 7 0 10 -262144 -1
-1;
#X obj 169 24 r recset;
#X obj 127 230 *~ 0.9;
#X obj 175 229 *~ 0.9;
#X msg 169 67 open Song.wav;
#X connect 0 0 12 0;
#X connect 1 0 13 0;
#X connect 2 0 4 0;
#X connect 3 0 4 0;
#X connect 8 0 2 0;
#X connect 9 0 3 0;
#X connect 10 0 14 0;
#X connect 11 0 10 0;
#X connect 12 0 4 0;
#X connect 13 0 4 1;
#X connect 14 0 4 0;
#X restore 914 317 pd record;
#X obj 1044 186 s rec;
#X obj 1100 187 s stop;
#X text 1059 153 record;
#X text 1060 163 audio;
#X obj 420 -65 ~start;
#X text 192 -153 start;
#X text 192 -86 record and stop for samples;
#X text 423 -85 tempo for sequencer;
#X obj 210 135 ~seq1;
#X obj 183 136 bng 24 250 50 0 empty empty empty 17 7 0 10 -262144
-1 -1;
#X obj 183 164 bng 24 250 50 0 empty empty empty 17 7 0 10 -262144
-1 -1;
#X obj 183 192 bng 24 250 50 0 empty empty empty 17 7 0 10 -262144
-1 -1;
#X obj 183 220 bng 24 250 50 0 empty empty empty 17 7 0 10 -262144
-1 -1;
#X obj 210 163 ~seq1;
#X obj 210 191 ~seq1;
#X obj 210 219 ~seq1;
#X connect 1 0 27 0;
#X connect 2 0 0 0;
#X connect 2 0 0 1;
#X connect 2 0 0 0;
#X connect 2 0 0 1;
#X connect 2 0 61 0;
#X connect 2 0 61 1;
#X connect 3 0 4 0;
#X connect 4 0 2 0;
#X connect 5 0 4 0;
#X connect 6 0 4 0;
#X connect 7 0 4 0;
#X connect 8 0 4 0;
#X connect 9 0 4 0;
#X connect 10 0 4 0;
#X connect 11 0 4 0;
#X connect 12 0 62 0;
#X connect 13 0 63 0;
#X connect 16 0 15 0;
#X connect 18 0 3 1;
#X connect 19 0 3 2;
#X connect 20 0 6 1;
#X connect 21 0 6 2;
#X connect 21 0 9 1;
#X connect 22 0 11 2;
#X connect 23 0 7 1;
#X connect 25 0 5 1;
#X connect 27 0 18 0;
#X connect 27 1 19 0;
#X connect 27 2 20 0;
#X connect 27 3 21 0;
#X connect 27 4 22 0;
#X connect 27 5 23 0;
#X connect 27 6 24 0;
#X connect 27 7 25 0;
#X connect 27 8 28 0;
#X connect 27 9 29 0;
#X connect 27 10 30 0;
#X connect 27 11 31 0;
#X connect 27 12 32 0;
#X connect 27 13 33 0;
#X connect 27 14 34 0;
#X connect 27 15 35 0;
#X connect 27 16 36 0;
#X connect 27 17 37 0;
#X connect 27 18 38 0;
#X connect 27 19 39 0;
#X connect 27 20 40 0;
#X connect 27 21 41 0;
#X connect 27 22 42 0;
#X connect 27 23 43 0;
#X connect 27 24 44 0;
#X connect 27 25 45 0;
#X connect 27 26 46 0;
#X connect 27 27 47 0;
#X connect 27 28 48 0;
#X connect 27 29 49 0;
#X connect 29 0 5 2;
#X connect 30 0 7 2;
#X connect 30 0 10 1;
#X connect 32 0 8 1;
#X connect 34 0 8 2;
#X connect 36 0 9 2;
#X connect 43 0 10 2;
#X connect 45 0 11 1;
#X connect 50 0 51 0;
#X connect 51 0 3 0;
#X connect 52 0 5 0;
#X connect 54 0 6 0;
#X connect 55 0 7 0;
#X connect 56 0 52 0;
#X connect 57 0 54 0;
#X connect 58 0 55 0;
#X connect 59 0 1 1;
#X connect 59 0 66 1;
#X connect 60 0 1 0;
#X connect 60 0 66 0;
#X connect 66 0 50 0;
#X connect 66 0 53 0;
#X connect 66 0 56 0;
#X connect 66 0 57 0;
#X connect 66 0 58 0;
#X connect 70 0 71 0;
#X connect 71 0 8 0;
#X connect 72 0 9 0;
#X connect 73 0 10 0;
#X connect 74 0 11 0;
#X connect 75 0 72 0;
#X connect 76 0 73 0;
#X connect 77 0 74 0;
