#N canvas 281 207 946 671 10;
#X obj 188 -172 inlet~;
#X obj 612 -51 env~;
#X obj 612 -25 - 100;
#X obj 414 11 vu 15 80 empty empty -1 -8 0 10 -66577 -1 1 0;
#X obj 396 12 vsl 15 78 0 1 0 0 empty empty empty 0 -9 0 10 -262144
-1 -1 7700 1;
#X obj 189 -132 *~;
#X obj -26 205 outlet~;
#X obj 190 -66 clip~ -0.5 0.5;
#X obj 189 -99 *~ 5;
#X obj -25 170 freeverb~;
#X msg -25 52 roomsize \$1;
#X obj 260 11 hsl 128 15 0 1 0 0 empty empty room_size 5 8 0 10 -262144
-1 -1 9795 1;
#X obj 260 26 hsl 128 15 0 1 0 0 empty empty wet 5 8 0 10 -262144 -1
-1 6900 1;
#X msg -25 77 wet \$1;
#X msg -25 104 dry \$1;
#X obj 260 41 hsl 128 15 0 1 0 0 empty empty dry 5 8 0 10 -262144 -1
-1 1900 1;
#X msg -25 134 freeze \$1;
#X msg -25 32 bypass \$1;
#X obj 256 76 tgl 15 0 empty empty freeze 17 7 0 10 -262144 -1 -1 0
1;
#X obj 331 -89 loadbang;
#X obj 210 10 knob 32 32 1 10 0 0 empty empty empty 0 -8 0 8 -262144
-1 -1 0 1;
#X msg 366 -25 0.3;
#X msg 396 -25 0;
#X msg 331 -25 0.85;
#X msg 246 -29 0;
#X obj 189 204 outlet~;
#X obj 448 209 outlet;
#X msg 583 -25 0.8;
#X obj 83 -10 s~ rl;
#X obj 131 -10 s~ rr;
#X obj -85 153 r~ rl;
#X obj 61 154 r~ rr;
#N canvas 905 319 574 444 onoff 0;
#X obj 107 104 tgl 20 0 empty empty empty 17 7 0 10 -262144 -1 -1 1
1;
#X obj 107 152 select 1;
#X symbolatom 133 106 5 0 0 0 - - -;
#X msg 152 203 set on;
#X msg 107 178 set off;
#X obj 107 51 inlet;
#X obj 107 230 outlet;
#X connect 0 0 1 0;
#X connect 0 0 6 0;
#X connect 1 0 4 0;
#X connect 1 1 3 0;
#X connect 3 0 2 0;
#X connect 4 0 2 0;
#X connect 5 0 0 0;
#X coords 0 -1 1 1 70 28 2 100 100;
#X restore 319 65 pd onoff;
#X text 212 44 FUZZ;
#X connect 0 0 5 0;
#X connect 1 0 2 0;
#X connect 2 0 3 0;
#X connect 4 0 5 1;
#X connect 5 0 8 0;
#X connect 7 0 1 0;
#X connect 7 0 25 0;
#X connect 7 0 28 0;
#X connect 7 0 29 0;
#X connect 8 0 7 0;
#X connect 9 0 6 0;
#X connect 9 1 6 0;
#X connect 10 0 9 0;
#X connect 11 0 10 0;
#X connect 12 0 13 0;
#X connect 13 0 9 0;
#X connect 14 0 9 0;
#X connect 15 0 14 0;
#X connect 16 0 9 0;
#X connect 17 0 9 0;
#X connect 18 0 16 0;
#X connect 19 0 21 0;
#X connect 19 0 22 0;
#X connect 19 0 23 0;
#X connect 19 0 24 0;
#X connect 19 0 27 0;
#X connect 19 0 32 0;
#X connect 20 0 8 1;
#X connect 21 0 12 0;
#X connect 22 0 15 0;
#X connect 23 0 11 0;
#X connect 24 0 20 0;
#X connect 27 0 4 0;
#X connect 30 0 9 0;
#X connect 31 0 9 1;
#X connect 32 0 17 0;
#X coords 0 -1 1 1 270 100 1 200 0;
