#N canvas 567 340 776 549 10;
#X obj 35 227 inlet~;
#X obj 85 345 outlet~;
#X obj 86 307 *~;
#X obj 160 128 vsl 20 133 0 1 0 0 empty empty empty 0 -9 0 10 -262144
-1 -1 10660 1;
#X obj 137 319 env~;
#X obj 137 344 - 100;
#X obj 85 267 *~;
#X obj 160 55 loadbang;
#X msg 160 78 0.8;
#X obj 186 143 vu 15 120 empty empty -1 -8 0 10 -66577 -1 1 0;
#X obj 100 221 loadbang;
#X msg 100 244 1;
#X connect 0 0 6 0;
#X connect 2 0 4 0;
#X connect 2 0 1 0;
#X connect 3 0 2 1;
#X connect 4 0 5 0;
#X connect 5 0 9 0;
#X connect 6 0 2 0;
#X connect 7 0 8 0;
#X connect 8 0 3 0;
#X connect 10 0 11 0;
#X connect 11 0 6 1;
#X coords 0 -1 1 1 100 150 2 150 120;
