#N canvas 838 295 544 429 10;
#X obj 144 12 float;
#X obj 184 13 + 1;
#X obj 144 40 mod 16;
#X obj 144 62 select 0 1 2 3 4 5 6 7 8 9 10 11 12 13 14 15;
#N canvas 831 610 450 300 play 0;
#X obj 100 100 tgl 20 0 empty empty empty 17 7 0 10 -258113 -1 -1 1
1;
#X obj 67 142 spigot;
#X obj 67 172 bng 15 250 50 0 empty empty empty 17 7 0 10 -262144 -1
-1;
#X obj 67 103 bng 15 250 50 0 empty empty empty 17 7 0 10 -262144 -1
-1;
#X obj 67 51 inlet;
#X obj 67 205 outlet;
#X connect 0 0 1 1;
#X connect 1 0 2 0;
#X connect 2 0 5 0;
#X connect 3 0 1 0;
#X connect 4 0 3 0;
#X coords 0 -1 1 1 20 20 2 100 100;
#X restore 105 103 pd play;
#X obj 108 86 bng 12 250 50 0 empty empty empty 17 7 0 10 -262144 -1
-1;
#X obj 259 190 outlet;
#N canvas 831 610 450 300 play 0;
#X obj 100 100 tgl 20 0 empty empty empty 17 7 0 10 -228856 -1 -1 0
1;
#X obj 67 142 spigot;
#X obj 67 172 bng 15 250 50 0 empty empty empty 17 7 0 10 -262144 -1
-1;
#X obj 67 103 bng 15 250 50 0 empty empty empty 17 7 0 10 -262144 -1
-1;
#X obj 67 51 inlet;
#X obj 67 205 outlet;
#X connect 0 0 1 1;
#X connect 1 0 2 0;
#X connect 2 0 5 0;
#X connect 3 0 1 0;
#X connect 4 0 3 0;
#X coords 0 -1 1 1 20 20 2 100 100;
#X restore 127 103 pd play;
#X obj 130 86 bng 12 250 50 0 empty empty empty 17 7 0 10 -262144 -1
-1;
#N canvas 831 610 450 300 play 0;
#X obj 100 100 tgl 20 0 empty empty empty 17 7 0 10 -228856 -1 -1 0
1;
#X obj 67 142 spigot;
#X obj 67 172 bng 15 250 50 0 empty empty empty 17 7 0 10 -262144 -1
-1;
#X obj 67 103 bng 15 250 50 0 empty empty empty 17 7 0 10 -262144 -1
-1;
#X obj 67 51 inlet;
#X obj 67 205 outlet;
#X connect 0 0 1 1;
#X connect 1 0 2 0;
#X connect 2 0 5 0;
#X connect 3 0 1 0;
#X connect 4 0 3 0;
#X coords 0 -1 1 1 20 20 2 100 100;
#X restore 149 103 pd play;
#X obj 152 86 bng 12 250 50 0 empty empty empty 17 7 0 10 -262144 -1
-1;
#N canvas 831 610 450 300 play 0;
#X obj 100 100 tgl 20 0 empty empty empty 17 7 0 10 -228856 -1 -1 0
1;
#X obj 67 142 spigot;
#X obj 67 172 bng 15 250 50 0 empty empty empty 17 7 0 10 -262144 -1
-1;
#X obj 67 103 bng 15 250 50 0 empty empty empty 17 7 0 10 -262144 -1
-1;
#X obj 67 51 inlet;
#X obj 67 205 outlet;
#X connect 0 0 1 1;
#X connect 1 0 2 0;
#X connect 2 0 5 0;
#X connect 3 0 1 0;
#X connect 4 0 3 0;
#X coords 0 -1 1 1 20 20 2 100 100;
#X restore 171 103 pd play;
#X obj 174 86 bng 12 250 50 0 empty empty empty 17 7 0 10 -262144 -1
-1;
#N canvas 834 605 450 300 play 0;
#X obj 100 100 tgl 20 0 empty empty empty 17 7 0 10 -262144 -1 -1 0
1;
#X obj 67 142 spigot;
#X obj 67 172 bng 15 250 50 0 empty empty empty 17 7 0 10 -262144 -1
-1;
#X obj 67 103 bng 15 250 50 0 empty empty empty 17 7 0 10 -262144 -1
-1;
#X obj 67 51 inlet;
#X obj 67 205 outlet;
#X connect 0 0 1 1;
#X connect 1 0 2 0;
#X connect 2 0 5 0;
#X connect 3 0 1 0;
#X connect 4 0 3 0;
#X coords 0 -1 1 1 20 20 2 100 100;
#X restore 193 103 pd play;
#X obj 196 86 bng 12 250 50 0 empty empty empty 17 7 0 10 -262144 -1
-1;
#N canvas 834 605 450 300 play 0;
#X obj 100 100 tgl 20 0 empty empty empty 17 7 0 10 -262144 -1 -1 0
1;
#X obj 67 142 spigot;
#X obj 67 172 bng 15 250 50 0 empty empty empty 17 7 0 10 -262144 -1
-1;
#X obj 67 103 bng 15 250 50 0 empty empty empty 17 7 0 10 -262144 -1
-1;
#X obj 67 51 inlet;
#X obj 67 205 outlet;
#X connect 0 0 1 1;
#X connect 1 0 2 0;
#X connect 2 0 5 0;
#X connect 3 0 1 0;
#X connect 4 0 3 0;
#X coords 0 -1 1 1 20 20 2 100 100;
#X restore 215 103 pd play;
#X obj 218 86 bng 12 250 50 0 empty empty empty 17 7 0 10 -262144 -1
-1;
#N canvas 834 605 450 300 play 0;
#X obj 100 100 tgl 20 0 empty empty empty 17 7 0 10 -262144 -1 -1 0
1;
#X obj 67 142 spigot;
#X obj 67 172 bng 15 250 50 0 empty empty empty 17 7 0 10 -262144 -1
-1;
#X obj 67 103 bng 15 250 50 0 empty empty empty 17 7 0 10 -262144 -1
-1;
#X obj 67 51 inlet;
#X obj 67 205 outlet;
#X connect 0 0 1 1;
#X connect 1 0 2 0;
#X connect 2 0 5 0;
#X connect 3 0 1 0;
#X connect 4 0 3 0;
#X coords 0 -1 1 1 20 20 2 100 100;
#X restore 237 103 pd play;
#X obj 240 86 bng 12 250 50 0 empty empty empty 17 7 0 10 -262144 -1
-1;
#N canvas 834 605 450 300 play 0;
#X obj 100 100 tgl 20 0 empty empty empty 17 7 0 10 -262144 -1 -1 1
1;
#X obj 67 142 spigot;
#X obj 67 172 bng 15 250 50 0 empty empty empty 17 7 0 10 -262144 -1
-1;
#X obj 67 103 bng 15 250 50 0 empty empty empty 17 7 0 10 -262144 -1
-1;
#X obj 67 51 inlet;
#X obj 67 205 outlet;
#X connect 0 0 1 1;
#X connect 1 0 2 0;
#X connect 2 0 5 0;
#X connect 3 0 1 0;
#X connect 4 0 3 0;
#X coords 0 -1 1 1 20 20 2 100 100;
#X restore 259 103 pd play;
#X obj 262 86 bng 12 250 50 0 empty empty empty 17 7 0 10 -262144 -1
-1;
#N canvas 831 610 450 300 play 0;
#X obj 100 100 tgl 20 0 empty empty empty 17 7 0 10 -228856 -1 -1 0
1;
#X obj 67 142 spigot;
#X obj 67 172 bng 15 250 50 0 empty empty empty 17 7 0 10 -262144 -1
-1;
#X obj 67 103 bng 15 250 50 0 empty empty empty 17 7 0 10 -262144 -1
-1;
#X obj 67 51 inlet;
#X obj 67 205 outlet;
#X connect 0 0 1 1;
#X connect 1 0 2 0;
#X connect 2 0 5 0;
#X connect 3 0 1 0;
#X connect 4 0 3 0;
#X coords 0 -1 1 1 20 20 2 100 100;
#X restore 281 103 pd play;
#X obj 284 86 bng 12 250 50 0 empty empty empty 17 7 0 10 -262144 -1
-1;
#N canvas 831 610 450 300 play 0;
#X obj 100 100 tgl 20 0 empty empty empty 17 7 0 10 -228856 -1 -1 0
1;
#X obj 67 142 spigot;
#X obj 67 172 bng 15 250 50 0 empty empty empty 17 7 0 10 -262144 -1
-1;
#X obj 67 103 bng 15 250 50 0 empty empty empty 17 7 0 10 -262144 -1
-1;
#X obj 67 51 inlet;
#X obj 67 205 outlet;
#X connect 0 0 1 1;
#X connect 1 0 2 0;
#X connect 2 0 5 0;
#X connect 3 0 1 0;
#X connect 4 0 3 0;
#X coords 0 -1 1 1 20 20 2 100 100;
#X restore 303 103 pd play;
#X obj 306 86 bng 12 250 50 0 empty empty empty 17 7 0 10 -262144 -1
-1;
#N canvas 831 610 450 300 play 0;
#X obj 100 100 tgl 20 0 empty empty empty 17 7 0 10 -228856 -1 -1 0
1;
#X obj 67 142 spigot;
#X obj 67 172 bng 15 250 50 0 empty empty empty 17 7 0 10 -262144 -1
-1;
#X obj 67 103 bng 15 250 50 0 empty empty empty 17 7 0 10 -262144 -1
-1;
#X obj 67 51 inlet;
#X obj 67 205 outlet;
#X connect 0 0 1 1;
#X connect 1 0 2 0;
#X connect 2 0 5 0;
#X connect 3 0 1 0;
#X connect 4 0 3 0;
#X coords 0 -1 1 1 20 20 2 100 100;
#X restore 325 103 pd play;
#X obj 328 86 bng 12 250 50 0 empty empty empty 17 7 0 10 -262144 -1
-1;
#N canvas 831 610 450 300 play 0;
#X obj 100 100 tgl 20 0 empty empty empty 17 7 0 10 -228856 -1 -1 0
1;
#X obj 67 142 spigot;
#X obj 67 172 bng 15 250 50 0 empty empty empty 17 7 0 10 -262144 -1
-1;
#X obj 67 103 bng 15 250 50 0 empty empty empty 17 7 0 10 -262144 -1
-1;
#X obj 67 51 inlet;
#X obj 67 205 outlet;
#X connect 0 0 1 1;
#X connect 1 0 2 0;
#X connect 2 0 5 0;
#X connect 3 0 1 0;
#X connect 4 0 3 0;
#X coords 0 -1 1 1 20 20 2 100 100;
#X restore 347 103 pd play;
#X obj 350 86 bng 12 250 50 0 empty empty empty 17 7 0 10 -262144 -1
-1;
#N canvas 834 605 450 300 play 0;
#X obj 100 100 tgl 20 0 empty empty empty 17 7 0 10 -262144 -1 -1 0
1;
#X obj 67 142 spigot;
#X obj 67 172 bng 15 250 50 0 empty empty empty 17 7 0 10 -262144 -1
-1;
#X obj 67 103 bng 15 250 50 0 empty empty empty 17 7 0 10 -262144 -1
-1;
#X obj 67 51 inlet;
#X obj 67 205 outlet;
#X connect 0 0 1 1;
#X connect 1 0 2 0;
#X connect 2 0 5 0;
#X connect 3 0 1 0;
#X connect 4 0 3 0;
#X coords 0 -1 1 1 20 20 2 100 100;
#X restore 369 103 pd play;
#X obj 372 86 bng 12 250 50 0 empty empty empty 17 7 0 10 -262144 -1
-1;
#N canvas 834 605 450 300 play 0;
#X obj 100 100 tgl 20 0 empty empty empty 17 7 0 10 -262144 -1 -1 0
1;
#X obj 67 142 spigot;
#X obj 67 172 bng 15 250 50 0 empty empty empty 17 7 0 10 -262144 -1
-1;
#X obj 67 103 bng 15 250 50 0 empty empty empty 17 7 0 10 -262144 -1
-1;
#X obj 67 51 inlet;
#X obj 67 205 outlet;
#X connect 0 0 1 1;
#X connect 1 0 2 0;
#X connect 2 0 5 0;
#X connect 3 0 1 0;
#X connect 4 0 3 0;
#X coords 0 -1 1 1 20 20 2 100 100;
#X restore 391 103 pd play;
#X obj 394 86 bng 12 250 50 0 empty empty empty 17 7 0 10 -262144 -1
-1;
#N canvas 834 605 450 300 play 0;
#X obj 100 100 tgl 20 0 empty empty empty 17 7 0 10 -262144 -1 -1 0
1;
#X obj 67 142 spigot;
#X obj 67 172 bng 15 250 50 0 empty empty empty 17 7 0 10 -262144 -1
-1;
#X obj 67 103 bng 15 250 50 0 empty empty empty 17 7 0 10 -262144 -1
-1;
#X obj 67 51 inlet;
#X obj 67 205 outlet;
#X connect 0 0 1 1;
#X connect 1 0 2 0;
#X connect 2 0 5 0;
#X connect 3 0 1 0;
#X connect 4 0 3 0;
#X coords 0 -1 1 1 20 20 2 100 100;
#X restore 413 103 pd play;
#X obj 416 86 bng 12 250 50 0 empty empty empty 17 7 0 10 -262144 -1
-1;
#N canvas 834 605 450 300 play 0;
#X obj 100 100 tgl 20 0 empty empty empty 17 7 0 10 -262144 -1 -1 0
1;
#X obj 67 142 spigot;
#X obj 67 172 bng 15 250 50 0 empty empty empty 17 7 0 10 -262144 -1
-1;
#X obj 67 103 bng 15 250 50 0 empty empty empty 17 7 0 10 -262144 -1
-1;
#X obj 67 51 inlet;
#X obj 67 205 outlet;
#X connect 0 0 1 1;
#X connect 1 0 2 0;
#X connect 2 0 5 0;
#X connect 3 0 1 0;
#X connect 4 0 3 0;
#X coords 0 -1 1 1 20 20 2 100 100;
#X restore 435 103 pd play;
#X obj 438 86 bng 12 250 50 0 empty empty empty 17 7 0 10 -262144 -1
-1;
#X obj 141 -22 inlet;
#X connect 0 0 1 0;
#X connect 0 0 2 0;
#X connect 1 0 0 1;
#X connect 2 0 3 0;
#X connect 3 0 5 0;
#X connect 3 1 8 0;
#X connect 3 2 10 0;
#X connect 3 3 12 0;
#X connect 3 4 14 0;
#X connect 3 5 16 0;
#X connect 3 6 18 0;
#X connect 3 7 20 0;
#X connect 3 8 22 0;
#X connect 3 9 24 0;
#X connect 3 10 26 0;
#X connect 3 11 28 0;
#X connect 3 12 30 0;
#X connect 3 13 32 0;
#X connect 3 14 34 0;
#X connect 3 15 36 0;
#X connect 4 0 6 0;
#X connect 5 0 4 0;
#X connect 7 0 6 0;
#X connect 8 0 7 0;
#X connect 9 0 6 0;
#X connect 10 0 9 0;
#X connect 11 0 6 0;
#X connect 12 0 11 0;
#X connect 13 0 6 0;
#X connect 14 0 13 0;
#X connect 15 0 6 0;
#X connect 16 0 15 0;
#X connect 17 0 6 0;
#X connect 18 0 17 0;
#X connect 19 0 6 0;
#X connect 20 0 19 0;
#X connect 21 0 6 0;
#X connect 22 0 21 0;
#X connect 23 0 6 0;
#X connect 24 0 23 0;
#X connect 25 0 6 0;
#X connect 26 0 25 0;
#X connect 27 0 6 0;
#X connect 28 0 27 0;
#X connect 29 0 6 0;
#X connect 30 0 29 0;
#X connect 31 0 6 0;
#X connect 32 0 31 0;
#X connect 33 0 6 0;
#X connect 34 0 33 0;
#X connect 35 0 6 0;
#X connect 36 0 35 0;
#X connect 37 0 0 0;
#X coords 0 -1 1 1 360 25 2 100 100;
