#N canvas 903 163 945 763 10;
#X obj 239 106 tgl 30 0 empty empty empty 17 7 0 10 -262144 -1 -1 0
1;
#X floatatom 239 220 5 0 0 0 - - -;
#X obj 182 284 bng 15 250 50 0 empty empty empty 17 7 0 10 -262144
-1 -1;
#X obj 202 284 bng 15 250 50 0 empty empty empty 17 7 0 10 -262144
-1 -1;
#X obj 222 284 bng 15 250 50 0 empty empty empty 17 7 0 10 -262144
-1 -1;
#X obj 242 284 bng 15 250 50 0 empty empty empty 17 7 0 10 -262144
-1 -1;
#X obj 272 284 bng 15 250 50 0 empty empty empty 17 7 0 10 -262144
-1 -1;
#X obj 292 284 bng 15 250 50 0 empty empty empty 17 7 0 10 -262144
-1 -1;
#X obj 312 284 bng 15 250 50 0 empty empty empty 17 7 0 10 -262144
-1 -1;
#X obj 332 284 bng 15 250 50 0 empty empty empty 17 7 0 10 -262144
-1 -1;
#X obj 362 284 bng 15 250 50 0 empty empty empty 17 7 0 10 -262144
-1 -1;
#X obj 382 284 bng 15 250 50 0 empty empty empty 17 7 0 10 -262144
-1 -1;
#X obj 402 284 bng 15 250 50 0 empty empty empty 17 7 0 10 -262144
-1 -1;
#X obj 422 284 bng 15 250 50 0 empty empty empty 17 7 0 10 -262144
-1 -1;
#X obj 452 284 bng 15 250 50 0 empty empty empty 17 7 0 10 -262144
-1 -1;
#X obj 472 284 bng 15 250 50 0 empty empty empty 17 7 0 10 -262144
-1 -1;
#X obj 492 284 bng 15 250 50 0 empty empty empty 17 7 0 10 -262144
-1 -1;
#X obj 512 284 bng 15 250 50 0 empty empty empty 17 7 0 10 -262144
-1 -1;
#X obj 239 197 counter 0 16;
#X obj 239 175 metro 100;
#X floatatom 307 175 5 0 0 0 - - -;
#X obj 343 154 + 1;
#X obj 307 103 bng 30 250 50 0 empty empty empty 17 7 0 10 -262144
-1 -1;
#X obj 307 154 f;
#X obj 239 242 sel 0 1 2 3 4 5 6 7 8 9 10 11 12 13 14;
#X obj 343 174 mod 16;
#X text 307 87 STEP;
#X obj 273 92 vsl 30 40 15 1000 0 0 empty empty empty 0 -9 0 10 -262144
-1 -1 3100 1;
#X text 271 72 TEMPO;
#X floatatom 247 156 5 0 0 0 - - -;
#X text 237 88 ONOFF;
#X obj 106 467 bng 16 250 50 0 empty empty empty 17 7 0 10 -258113
-1 -1;
#X obj 106 484 bng 16 250 50 0 empty empty empty 17 7 0 10 -262144
-1 -1;
#X obj 123 467 bng 16 250 50 0 empty empty empty 17 7 0 10 -4034 -1
-1;
#X obj 123 484 bng 16 250 50 0 empty empty empty 17 7 0 10 -262144
-1 -1;
#X obj 140 469 vsl 30 28 0 15 0 0 empty empty empty 0 -9 0 10 -262144
-1 -1 200 1;
#X text 151 449 vol;
#N canvas 1109 317 406 434 sound1 0;
#X obj 71 213 writesf~;
#X obj 37 169 *~ 1;
#X obj 38 141 adc~;
#X msg 104 177 stop;
#X msg 320 166 stop;
#X obj 237 273 readsf~;
#X obj 242 387 dac~;
#X obj 237 350 *~;
#X obj 75 20 inlet;
#X text 82 34 rec;
#X obj 123 19 inlet;
#X text 128 34 rec stop;
#X obj 231 24 inlet;
#X text 238 40 play;
#X obj 296 18 inlet;
#X text 306 33 stop;
#X obj 290 316 vsl 30 28 0 15 0 0 empty empty empty 0 -9 0 10 -262144
-1 -1 0 1;
#X text 300 298 vol;
#X obj 325 268 inlet;
#X msg 76 83 open sound1.wav \, start;
#X msg 238 142 open sound1.wav \, start;
#X connect 1 0 0 0;
#X connect 2 0 1 0;
#X connect 3 0 0 0;
#X connect 4 0 5 0;
#X connect 5 0 7 0;
#X connect 7 0 6 0;
#X connect 7 0 6 1;
#X connect 8 0 19 0;
#X connect 10 0 3 0;
#X connect 12 0 20 0;
#X connect 14 0 4 0;
#X connect 18 0 7 1;
#X connect 19 0 0 0;
#X connect 20 0 5 0;
#X restore 105 504 pd sound1;
#X obj 177 468 bng 16 250 50 0 empty empty empty 17 7 0 10 -258113
-1 -1;
#X obj 177 485 bng 16 250 50 0 empty empty empty 17 7 0 10 -262144
-1 -1;
#X obj 194 468 bng 16 250 50 0 empty empty empty 17 7 0 10 -4034 -1
-1;
#X obj 194 485 bng 16 250 50 0 empty empty empty 17 7 0 10 -262144
-1 -1;
#X obj 211 470 vsl 30 28 0 15 0 0 empty empty empty 0 -9 0 10 -262144
-1 -1 200 1;
#X text 222 450 vol;
#N canvas 1109 317 406 434 sound2 0;
#X obj 71 213 writesf~;
#X obj 37 169 *~ 1;
#X obj 38 141 adc~;
#X msg 104 177 stop;
#X msg 320 166 stop;
#X obj 237 273 readsf~;
#X obj 242 387 dac~;
#X obj 237 350 *~;
#X obj 75 20 inlet;
#X text 82 34 rec;
#X obj 123 19 inlet;
#X text 128 34 rec stop;
#X obj 231 24 inlet;
#X text 238 40 play;
#X obj 296 18 inlet;
#X text 306 33 stop;
#X obj 290 316 vsl 30 28 0 15 0 0 empty empty empty 0 -9 0 10 -262144
-1 -1 0 1;
#X text 300 298 vol;
#X obj 325 268 inlet;
#X msg 76 83 open sound2.wav \, start;
#X msg 238 142 open sound2.wav \, start;
#X connect 1 0 0 0;
#X connect 2 0 1 0;
#X connect 3 0 0 0;
#X connect 4 0 5 0;
#X connect 5 0 7 0;
#X connect 7 0 6 0;
#X connect 7 0 6 1;
#X connect 8 0 19 0;
#X connect 10 0 3 0;
#X connect 12 0 20 0;
#X connect 14 0 4 0;
#X connect 18 0 7 1;
#X connect 19 0 0 0;
#X connect 20 0 5 0;
#X restore 176 505 pd sound2;
#X obj 246 468 bng 16 250 50 0 empty empty empty 17 7 0 10 -258113
-1 -1;
#X obj 246 485 bng 16 250 50 0 empty empty empty 17 7 0 10 -262144
-1 -1;
#X obj 263 468 bng 16 250 50 0 empty empty empty 17 7 0 10 -4034 -1
-1;
#X obj 263 485 bng 16 250 50 0 empty empty empty 17 7 0 10 -262144
-1 -1;
#X obj 280 470 vsl 30 28 0 15 0 0 empty empty empty 0 -9 0 10 -262144
-1 -1 200 1;
#X text 291 450 vol;
#N canvas 1109 317 406 434 sound3 0;
#X obj 71 213 writesf~;
#X obj 37 169 *~ 1;
#X obj 38 141 adc~;
#X msg 104 177 stop;
#X msg 320 166 stop;
#X obj 237 273 readsf~;
#X obj 242 387 dac~;
#X obj 237 350 *~;
#X obj 75 20 inlet;
#X text 82 34 rec;
#X obj 123 19 inlet;
#X text 128 34 rec stop;
#X obj 231 24 inlet;
#X text 238 40 play;
#X obj 296 18 inlet;
#X text 306 33 stop;
#X obj 290 316 vsl 30 28 0 15 0 0 empty empty empty 0 -9 0 10 -262144
-1 -1 0 1;
#X text 300 298 vol;
#X obj 325 268 inlet;
#X msg 76 83 open sound3.wav \, start;
#X msg 238 142 open sound3.wav \, start;
#X connect 1 0 0 0;
#X connect 2 0 1 0;
#X connect 3 0 0 0;
#X connect 4 0 5 0;
#X connect 5 0 7 0;
#X connect 7 0 6 0;
#X connect 7 0 6 1;
#X connect 8 0 19 0;
#X connect 10 0 3 0;
#X connect 12 0 20 0;
#X connect 14 0 4 0;
#X connect 18 0 7 1;
#X connect 19 0 0 0;
#X connect 20 0 5 0;
#X restore 245 505 pd sound3;
#X obj 317 469 bng 16 250 50 0 empty empty empty 17 7 0 10 -258113
-1 -1;
#X obj 317 486 bng 16 250 50 0 empty empty empty 17 7 0 10 -262144
-1 -1;
#X obj 334 469 bng 16 250 50 0 empty empty empty 17 7 0 10 -4034 -1
-1;
#X obj 334 486 bng 16 250 50 0 empty empty empty 17 7 0 10 -262144
-1 -1;
#X obj 351 471 vsl 30 28 0 15 0 0 empty empty empty 0 -9 0 10 -262144
-1 -1 300 1;
#X text 362 451 vol;
#N canvas 1109 317 406 434 sound4 0;
#X obj 71 213 writesf~;
#X obj 37 169 *~ 1;
#X obj 38 141 adc~;
#X msg 104 177 stop;
#X msg 320 166 stop;
#X obj 237 273 readsf~;
#X obj 242 387 dac~;
#X obj 237 350 *~;
#X obj 75 20 inlet;
#X text 82 34 rec;
#X obj 123 19 inlet;
#X text 128 34 rec stop;
#X obj 231 24 inlet;
#X text 238 40 play;
#X obj 296 18 inlet;
#X text 306 33 stop;
#X obj 290 316 vsl 30 28 0 15 0 0 empty empty empty 0 -9 0 10 -262144
-1 -1 0 1;
#X text 300 298 vol;
#X obj 325 268 inlet;
#X msg 76 83 open sound4.wav \, start;
#X msg 238 142 open sound4.wav \, start;
#X connect 1 0 0 0;
#X connect 2 0 1 0;
#X connect 3 0 0 0;
#X connect 4 0 5 0;
#X connect 5 0 7 0;
#X connect 7 0 6 0;
#X connect 7 0 6 1;
#X connect 8 0 19 0;
#X connect 10 0 3 0;
#X connect 12 0 20 0;
#X connect 14 0 4 0;
#X connect 18 0 7 1;
#X connect 19 0 0 0;
#X connect 20 0 5 0;
#X restore 317 506 pd sound4;
#X text 52 466 rec/play;
#X text 73 484 stop;
#X obj 387 469 bng 16 250 50 0 empty empty empty 17 7 0 10 -258113
-1 -1;
#X obj 387 486 bng 16 250 50 0 empty empty empty 17 7 0 10 -262144
-1 -1;
#X obj 404 469 bng 16 250 50 0 empty empty empty 17 7 0 10 -4034 -1
-1;
#X obj 404 486 bng 16 250 50 0 empty empty empty 17 7 0 10 -262144
-1 -1;
#X obj 421 471 vsl 30 28 0 15 0 0 empty empty empty 0 -9 0 10 -262144
-1 -1 200 1;
#X text 432 451 vol;
#N canvas 1109 317 406 434 sound5 0;
#X obj 71 213 writesf~;
#X obj 37 169 *~ 1;
#X obj 38 141 adc~;
#X msg 104 177 stop;
#X msg 320 166 stop;
#X obj 237 273 readsf~;
#X obj 242 387 dac~;
#X obj 237 350 *~;
#X obj 75 20 inlet;
#X text 82 34 rec;
#X obj 123 19 inlet;
#X text 128 34 rec stop;
#X obj 231 24 inlet;
#X text 238 40 play;
#X obj 296 18 inlet;
#X text 306 33 stop;
#X obj 290 316 vsl 30 28 0 15 0 0 empty empty empty 0 -9 0 10 -262144
-1 -1 0 1;
#X text 300 298 vol;
#X obj 325 268 inlet;
#X msg 76 83 open sound5.wav \, start;
#X msg 235 142 open sound5.wav \, start;
#X connect 1 0 0 0;
#X connect 2 0 1 0;
#X connect 3 0 0 0;
#X connect 4 0 5 0;
#X connect 5 0 7 0;
#X connect 7 0 6 0;
#X connect 7 0 6 1;
#X connect 8 0 19 0;
#X connect 10 0 3 0;
#X connect 12 0 20 0;
#X connect 14 0 4 0;
#X connect 18 0 7 1;
#X connect 19 0 0 0;
#X connect 20 0 5 0;
#X restore 387 506 pd sound5;
#X obj 456 469 bng 16 250 50 0 empty empty empty 17 7 0 10 -258113
-1 -1;
#X obj 456 486 bng 16 250 50 0 empty empty empty 17 7 0 10 -262144
-1 -1;
#X obj 473 469 bng 16 250 50 0 empty empty empty 17 7 0 10 -4034 -1
-1;
#X obj 473 486 bng 16 250 50 0 empty empty empty 17 7 0 10 -262144
-1 -1;
#X obj 490 471 vsl 30 28 0 15 0 0 empty empty empty 0 -9 0 10 -262144
-1 -1 100 1;
#X text 501 451 vol;
#N canvas 1109 317 406 434 sound6 0;
#X obj 71 213 writesf~;
#X obj 37 169 *~ 1;
#X obj 38 141 adc~;
#X msg 104 177 stop;
#X msg 320 166 stop;
#X obj 237 273 readsf~;
#X obj 242 387 dac~;
#X obj 237 350 *~;
#X obj 75 20 inlet;
#X text 82 34 rec;
#X obj 123 19 inlet;
#X text 128 34 rec stop;
#X obj 231 24 inlet;
#X text 238 40 play;
#X obj 296 18 inlet;
#X text 306 33 stop;
#X obj 290 316 vsl 30 28 0 15 0 0 empty empty empty 0 -9 0 10 -262144
-1 -1 0 1;
#X text 300 298 vol;
#X obj 325 268 inlet;
#X msg 76 83 open sound6.wav \, start;
#X msg 236 142 open sound6.wav \, start;
#X connect 1 0 0 0;
#X connect 2 0 1 0;
#X connect 3 0 0 0;
#X connect 4 0 5 0;
#X connect 5 0 7 0;
#X connect 7 0 6 0;
#X connect 7 0 6 1;
#X connect 8 0 19 0;
#X connect 10 0 3 0;
#X connect 12 0 20 0;
#X connect 14 0 4 0;
#X connect 18 0 7 1;
#X connect 19 0 0 0;
#X connect 20 0 5 0;
#X restore 456 506 pd sound6;
#X obj 525 470 bng 16 250 50 0 empty empty empty 17 7 0 10 -258113
-1 -1;
#X obj 525 487 bng 16 250 50 0 empty empty empty 17 7 0 10 -262144
-1 -1;
#X obj 542 470 bng 16 250 50 0 empty empty empty 17 7 0 10 -4034 -1
-1;
#X obj 542 487 bng 16 250 50 0 empty empty empty 17 7 0 10 -262144
-1 -1;
#X obj 559 472 vsl 30 28 0 15 0 0 empty empty empty 0 -9 0 10 -262144
-1 -1 200 1;
#X text 570 452 vol;
#N canvas 1109 317 406 434 sound7 0;
#X obj 71 213 writesf~;
#X obj 37 169 *~ 1;
#X obj 38 141 adc~;
#X msg 104 177 stop;
#X msg 320 166 stop;
#X obj 237 273 readsf~;
#X obj 242 387 dac~;
#X obj 237 350 *~;
#X obj 75 20 inlet;
#X text 82 34 rec;
#X obj 123 19 inlet;
#X text 128 34 rec stop;
#X obj 231 24 inlet;
#X text 238 40 play;
#X obj 296 18 inlet;
#X text 306 33 stop;
#X obj 325 268 inlet;
#X msg 76 83 open sound7.wav \, start;
#X msg 236 142 open sound7.wav \, start;
#X connect 1 0 0 0;
#X connect 2 0 1 0;
#X connect 3 0 0 0;
#X connect 4 0 5 0;
#X connect 5 0 7 0;
#X connect 7 0 6 0;
#X connect 7 0 6 1;
#X connect 8 0 17 0;
#X connect 10 0 3 0;
#X connect 12 0 18 0;
#X connect 14 0 4 0;
#X connect 16 0 7 1;
#X connect 17 0 0 0;
#X connect 18 0 5 0;
#X restore 525 507 pd sound7;
#X obj 593 470 bng 16 250 50 0 empty empty empty 17 7 0 10 -258113
-1 -1;
#X obj 593 487 bng 16 250 50 0 empty empty empty 17 7 0 10 -262144
-1 -1;
#X obj 610 470 bng 16 250 50 0 empty empty empty 17 7 0 10 -4034 -1
-1;
#X obj 610 487 bng 16 250 50 0 empty empty empty 17 7 0 10 -262144
-1 -1;
#X obj 627 472 vsl 30 28 0 15 0 0 empty empty empty 0 -9 0 10 -262144
-1 -1 400 1;
#X text 638 452 vol;
#N canvas 1109 317 406 434 sound8 0;
#X obj 71 213 writesf~;
#X obj 37 169 *~ 1;
#X obj 38 141 adc~;
#X msg 104 177 stop;
#X msg 320 166 stop;
#X obj 237 273 readsf~;
#X obj 242 387 dac~;
#X obj 237 350 *~;
#X obj 75 20 inlet;
#X text 82 34 rec;
#X obj 123 19 inlet;
#X text 128 34 rec stop;
#X obj 231 24 inlet;
#X text 238 40 play;
#X obj 296 18 inlet;
#X text 306 33 stop;
#X obj 325 268 inlet;
#X msg 76 83 open sound8.wav \, start;
#X msg 236 142 open sound8.wav \, start;
#X connect 1 0 0 0;
#X connect 2 0 1 0;
#X connect 3 0 0 0;
#X connect 4 0 5 0;
#X connect 5 0 7 0;
#X connect 7 0 6 0;
#X connect 7 0 6 1;
#X connect 8 0 17 0;
#X connect 10 0 3 0;
#X connect 12 0 18 0;
#X connect 14 0 4 0;
#X connect 16 0 7 1;
#X connect 17 0 0 0;
#X connect 18 0 5 0;
#X restore 593 507 pd sound8;
#X obj 104 560 bng 16 250 50 0 empty empty empty 17 7 0 10 -258113
-1 -1;
#X obj 104 577 bng 16 250 50 0 empty empty empty 17 7 0 10 -262144
-1 -1;
#X obj 121 560 bng 16 250 50 0 empty empty empty 17 7 0 10 -4034 -1
-1;
#X obj 121 577 bng 16 250 50 0 empty empty empty 17 7 0 10 -262144
-1 -1;
#X obj 138 562 vsl 30 28 0 15 0 0 empty empty empty 0 -9 0 10 -262144
-1 -1 200 1;
#X text 149 542 vol;
#X obj 175 561 bng 16 250 50 0 empty empty empty 17 7 0 10 -258113
-1 -1;
#X obj 175 578 bng 16 250 50 0 empty empty empty 17 7 0 10 -262144
-1 -1;
#X obj 192 561 bng 16 250 50 0 empty empty empty 17 7 0 10 -4034 -1
-1;
#X obj 192 578 bng 16 250 50 0 empty empty empty 17 7 0 10 -262144
-1 -1;
#X obj 209 563 vsl 30 28 0 15 0 0 empty empty empty 0 -9 0 10 -262144
-1 -1 200 1;
#X text 220 543 vol;
#X obj 244 561 bng 16 250 50 0 empty empty empty 17 7 0 10 -258113
-1 -1;
#X obj 244 578 bng 16 250 50 0 empty empty empty 17 7 0 10 -262144
-1 -1;
#X obj 261 561 bng 16 250 50 0 empty empty empty 17 7 0 10 -4034 -1
-1;
#X obj 261 578 bng 16 250 50 0 empty empty empty 17 7 0 10 -262144
-1 -1;
#X obj 278 563 vsl 30 28 0 15 0 0 empty empty empty 0 -9 0 10 -262144
-1 -1 0 1;
#X text 289 543 vol;
#X obj 315 562 bng 16 250 50 0 empty empty empty 17 7 0 10 -258113
-1 -1;
#X obj 315 579 bng 16 250 50 0 empty empty empty 17 7 0 10 -262144
-1 -1;
#X obj 332 562 bng 16 250 50 0 empty empty empty 17 7 0 10 -4034 -1
-1;
#X obj 332 579 bng 16 250 50 0 empty empty empty 17 7 0 10 -262144
-1 -1;
#X obj 349 564 vsl 30 28 0 15 0 0 empty empty empty 0 -9 0 10 -262144
-1 -1 0 1;
#X text 360 544 vol;
#X text 50 559 rec/play;
#X text 71 577 stop;
#X obj 385 562 bng 16 250 50 0 empty empty empty 17 7 0 10 -258113
-1 -1;
#X obj 385 579 bng 16 250 50 0 empty empty empty 17 7 0 10 -262144
-1 -1;
#X obj 402 562 bng 16 250 50 0 empty empty empty 17 7 0 10 -4034 -1
-1;
#X obj 402 579 bng 16 250 50 0 empty empty empty 17 7 0 10 -262144
-1 -1;
#X obj 419 564 vsl 30 28 0 15 0 0 empty empty empty 0 -9 0 10 -262144
-1 -1 0 1;
#X text 430 544 vol;
#X obj 454 562 bng 16 250 50 0 empty empty empty 17 7 0 10 -258113
-1 -1;
#X obj 454 579 bng 16 250 50 0 empty empty empty 17 7 0 10 -262144
-1 -1;
#X obj 471 562 bng 16 250 50 0 empty empty empty 17 7 0 10 -4034 -1
-1;
#X obj 471 579 bng 16 250 50 0 empty empty empty 17 7 0 10 -262144
-1 -1;
#X obj 488 564 vsl 30 28 0 15 0 0 empty empty empty 0 -9 0 10 -262144
-1 -1 0 1;
#X text 499 544 vol;
#X obj 523 563 bng 16 250 50 0 empty empty empty 17 7 0 10 -258113
-1 -1;
#X obj 523 580 bng 16 250 50 0 empty empty empty 17 7 0 10 -262144
-1 -1;
#X obj 540 563 bng 16 250 50 0 empty empty empty 17 7 0 10 -4034 -1
-1;
#X obj 540 580 bng 16 250 50 0 empty empty empty 17 7 0 10 -262144
-1 -1;
#X obj 557 565 vsl 30 28 0 15 0 0 empty empty empty 0 -9 0 10 -262144
-1 -1 0 1;
#X text 568 545 vol;
#X obj 591 563 bng 16 250 50 0 empty empty empty 17 7 0 10 -258113
-1 -1;
#X obj 591 580 bng 16 250 50 0 empty empty empty 17 7 0 10 -262144
-1 -1;
#X obj 608 563 bng 16 250 50 0 empty empty empty 17 7 0 10 -4034 -1
-1;
#X obj 608 580 bng 16 250 50 0 empty empty empty 17 7 0 10 -262144
-1 -1;
#X obj 625 565 vsl 30 28 0 15 0 0 empty empty empty 0 -9 0 10 -262144
-1 -1 0 1;
#X text 636 545 vol;
#N canvas 1109 317 406 434 sound9 0;
#X obj 71 213 writesf~;
#X obj 37 169 *~ 1;
#X obj 38 141 adc~;
#X msg 104 177 stop;
#X msg 320 166 stop;
#X obj 237 273 readsf~;
#X obj 242 387 dac~;
#X obj 237 350 *~;
#X obj 75 20 inlet;
#X text 82 34 rec;
#X obj 123 19 inlet;
#X text 128 34 rec stop;
#X obj 231 24 inlet;
#X text 238 40 play;
#X obj 296 18 inlet;
#X text 306 33 stop;
#X obj 290 316 vsl 30 28 0 15 0 0 empty empty empty 0 -9 0 10 -262144
-1 -1 0 1;
#X text 300 298 vol;
#X obj 325 268 inlet;
#X msg 76 83 open sound9.wav \, start;
#X msg 238 142 open sound9.wav \, start;
#X connect 1 0 0 0;
#X connect 2 0 1 0;
#X connect 3 0 0 0;
#X connect 4 0 5 0;
#X connect 5 0 7 0;
#X connect 7 0 6 0;
#X connect 7 0 6 1;
#X connect 8 0 19 0;
#X connect 10 0 3 0;
#X connect 12 0 20 0;
#X connect 14 0 4 0;
#X connect 18 0 7 1;
#X connect 19 0 0 0;
#X connect 20 0 5 0;
#X restore 103 597 pd sound9;
#N canvas 1109 317 599 434 sound10 0;
#X obj 71 213 writesf~;
#X obj 37 169 *~ 1;
#X obj 38 141 adc~;
#X msg 104 177 stop;
#X msg 320 166 stop;
#X obj 237 273 readsf~;
#X obj 242 387 dac~;
#X obj 237 350 *~;
#X obj 75 20 inlet;
#X text 82 34 rec;
#X obj 123 19 inlet;
#X text 128 34 rec stop;
#X obj 231 24 inlet;
#X text 238 40 play;
#X obj 296 18 inlet;
#X text 306 33 stop;
#X obj 290 316 vsl 30 28 0 15 0 0 empty empty empty 0 -9 0 10 -262144
-1 -1 0 1;
#X text 300 298 vol;
#X obj 325 268 inlet;
#X msg 76 83 open sound10.wav \, start;
#X msg 238 142 open sound10.wav \, start;
#X connect 1 0 0 0;
#X connect 2 0 1 0;
#X connect 3 0 0 0;
#X connect 4 0 5 0;
#X connect 5 0 7 0;
#X connect 7 0 6 0;
#X connect 7 0 6 1;
#X connect 8 0 19 0;
#X connect 10 0 3 0;
#X connect 12 0 20 0;
#X connect 14 0 4 0;
#X connect 18 0 7 1;
#X connect 19 0 0 0;
#X connect 20 0 5 0;
#X restore 174 598 pd sound10;
#N canvas 1109 317 406 434 sound11 0;
#X obj 71 213 writesf~;
#X obj 37 169 *~ 1;
#X obj 38 141 adc~;
#X msg 104 177 stop;
#X msg 320 166 stop;
#X obj 237 273 readsf~;
#X obj 242 387 dac~;
#X obj 237 350 *~;
#X obj 75 20 inlet;
#X text 82 34 rec;
#X obj 123 19 inlet;
#X text 128 34 rec stop;
#X obj 231 24 inlet;
#X text 238 40 play;
#X obj 296 18 inlet;
#X text 306 33 stop;
#X obj 290 316 vsl 30 28 0 15 0 0 empty empty empty 0 -9 0 10 -262144
-1 -1 0 1;
#X text 300 298 vol;
#X obj 325 268 inlet;
#X msg 76 83 open sound11.wav \, start;
#X msg 238 142 open sound11.wav \, start;
#X connect 1 0 0 0;
#X connect 2 0 1 0;
#X connect 3 0 0 0;
#X connect 4 0 5 0;
#X connect 5 0 7 0;
#X connect 7 0 6 0;
#X connect 7 0 6 1;
#X connect 8 0 19 0;
#X connect 10 0 3 0;
#X connect 12 0 20 0;
#X connect 14 0 4 0;
#X connect 18 0 7 1;
#X connect 19 0 0 0;
#X connect 20 0 5 0;
#X restore 243 598 pd sound11;
#N canvas 1109 317 406 434 sound12 0;
#X obj 71 213 writesf~;
#X obj 37 169 *~ 1;
#X obj 38 141 adc~;
#X msg 104 177 stop;
#X msg 320 166 stop;
#X obj 237 273 readsf~;
#X obj 242 387 dac~;
#X obj 237 350 *~;
#X obj 75 20 inlet;
#X text 82 34 rec;
#X obj 123 19 inlet;
#X text 128 34 rec stop;
#X obj 231 24 inlet;
#X text 238 40 play;
#X obj 296 18 inlet;
#X text 306 33 stop;
#X obj 290 316 vsl 30 28 0 15 0 0 empty empty empty 0 -9 0 10 -262144
-1 -1 0 1;
#X text 300 298 vol;
#X obj 325 268 inlet;
#X msg 76 83 open sound12.wav \, start;
#X msg 238 142 open sound12.wav \, start;
#X connect 1 0 0 0;
#X connect 2 0 1 0;
#X connect 3 0 0 0;
#X connect 4 0 5 0;
#X connect 5 0 7 0;
#X connect 7 0 6 0;
#X connect 7 0 6 1;
#X connect 8 0 19 0;
#X connect 10 0 3 0;
#X connect 12 0 20 0;
#X connect 14 0 4 0;
#X connect 18 0 7 1;
#X connect 19 0 0 0;
#X connect 20 0 5 0;
#X restore 315 599 pd sound12;
#N canvas 1109 317 406 434 sound13 0;
#X obj 71 213 writesf~;
#X obj 37 169 *~ 1;
#X obj 38 141 adc~;
#X msg 104 177 stop;
#X msg 320 166 stop;
#X obj 237 273 readsf~;
#X obj 242 387 dac~;
#X obj 237 350 *~;
#X obj 75 20 inlet;
#X text 82 34 rec;
#X obj 123 19 inlet;
#X text 128 34 rec stop;
#X obj 231 24 inlet;
#X text 238 40 play;
#X obj 296 18 inlet;
#X text 306 33 stop;
#X obj 290 316 vsl 30 28 0 15 0 0 empty empty empty 0 -9 0 10 -262144
-1 -1 0 1;
#X text 300 298 vol;
#X obj 325 268 inlet;
#X msg 73 83 open sound13.wav \, start;
#X msg 235 142 open sound13.wav \, start;
#X connect 1 0 0 0;
#X connect 2 0 1 0;
#X connect 3 0 0 0;
#X connect 4 0 5 0;
#X connect 5 0 7 0;
#X connect 7 0 6 0;
#X connect 7 0 6 1;
#X connect 8 0 19 0;
#X connect 10 0 3 0;
#X connect 12 0 20 0;
#X connect 14 0 4 0;
#X connect 18 0 7 1;
#X connect 19 0 0 0;
#X connect 20 0 5 0;
#X restore 385 599 pd sound13;
#N canvas 1109 317 406 434 sound14 0;
#X obj 71 213 writesf~;
#X obj 37 169 *~ 1;
#X obj 38 141 adc~;
#X msg 104 177 stop;
#X msg 320 166 stop;
#X obj 237 273 readsf~;
#X obj 242 387 dac~;
#X obj 237 350 *~;
#X obj 75 20 inlet;
#X text 82 34 rec;
#X obj 123 19 inlet;
#X text 128 34 rec stop;
#X obj 231 24 inlet;
#X text 238 40 play;
#X obj 296 18 inlet;
#X text 306 33 stop;
#X obj 290 316 vsl 30 28 0 15 0 0 empty empty empty 0 -9 0 10 -262144
-1 -1 0 1;
#X text 300 298 vol;
#X obj 325 268 inlet;
#X msg 76 83 open sound14.wav \, start;
#X msg 236 142 open sound14.wav \, start;
#X connect 1 0 0 0;
#X connect 2 0 1 0;
#X connect 3 0 0 0;
#X connect 4 0 5 0;
#X connect 5 0 7 0;
#X connect 7 0 6 0;
#X connect 7 0 6 1;
#X connect 8 0 19 0;
#X connect 10 0 3 0;
#X connect 12 0 20 0;
#X connect 14 0 4 0;
#X connect 18 0 7 1;
#X connect 19 0 0 0;
#X connect 20 0 5 0;
#X restore 454 599 pd sound14;
#N canvas 1109 317 406 434 sound15 0;
#X obj 71 213 writesf~;
#X obj 37 169 *~ 1;
#X obj 38 141 adc~;
#X msg 104 177 stop;
#X msg 320 166 stop;
#X obj 237 273 readsf~;
#X obj 242 387 dac~;
#X obj 237 350 *~;
#X obj 75 20 inlet;
#X text 82 34 rec;
#X obj 123 19 inlet;
#X text 128 34 rec stop;
#X obj 231 24 inlet;
#X text 238 40 play;
#X obj 296 18 inlet;
#X text 306 33 stop;
#X obj 325 268 inlet;
#X msg 76 83 open sound15.wav \, start;
#X msg 236 142 open sound15.wav \, start;
#X connect 1 0 0 0;
#X connect 2 0 1 0;
#X connect 3 0 0 0;
#X connect 4 0 5 0;
#X connect 5 0 7 0;
#X connect 7 0 6 0;
#X connect 7 0 6 1;
#X connect 8 0 17 0;
#X connect 10 0 3 0;
#X connect 12 0 18 0;
#X connect 14 0 4 0;
#X connect 16 0 7 1;
#X connect 17 0 0 0;
#X connect 18 0 5 0;
#X restore 523 600 pd sound15;
#N canvas 1109 317 406 434 sound16 0;
#X obj 71 213 writesf~;
#X obj 37 169 *~ 1;
#X obj 38 141 adc~;
#X msg 104 177 stop;
#X msg 320 166 stop;
#X obj 237 273 readsf~;
#X obj 242 387 dac~;
#X obj 237 350 *~;
#X obj 75 20 inlet;
#X text 82 34 rec;
#X obj 123 19 inlet;
#X text 128 34 rec stop;
#X obj 231 24 inlet;
#X text 238 40 play;
#X obj 296 18 inlet;
#X text 306 33 stop;
#X obj 325 268 inlet;
#X msg 76 83 open sound16.wav \, start;
#X msg 236 142 open sound16.wav \, start;
#X connect 1 0 0 0;
#X connect 2 0 1 0;
#X connect 3 0 0 0;
#X connect 4 0 5 0;
#X connect 5 0 7 0;
#X connect 7 0 6 0;
#X connect 7 0 6 1;
#X connect 8 0 17 0;
#X connect 10 0 3 0;
#X connect 12 0 18 0;
#X connect 14 0 4 0;
#X connect 16 0 7 1;
#X connect 17 0 0 0;
#X connect 18 0 5 0;
#X restore 591 600 pd sound16;
#X msg 351 120 15;
#X text 348 103 full steps;
#X obj 323 198 bng 15 250 50 0 empty empty empty 17 7 0 10 -262144
-1 -1;
#X text 273 301 connect bng with green box;
#X text 102 628 LOMZ2014;
#X connect 0 0 19 0;
#X connect 1 0 24 0;
#X connect 2 0 33 0;
#X connect 2 0 47 0;
#X connect 3 0 77 0;
#X connect 4 0 40 0;
#X connect 4 0 84 0;
#X connect 5 0 63 0;
#X connect 8 0 40 0;
#X connect 9 0 91 0;
#X connect 10 0 70 0;
#X connect 11 0 47 0;
#X connect 12 0 77 0;
#X connect 13 0 97 0;
#X connect 14 0 63 0;
#X connect 16 0 77 0;
#X connect 16 0 54 0;
#X connect 17 0 84 0;
#X connect 18 0 1 0;
#X connect 19 0 18 0;
#X connect 20 0 18 4;
#X connect 21 0 25 0;
#X connect 22 0 23 0;
#X connect 23 0 20 0;
#X connect 23 0 21 0;
#X connect 24 0 2 0;
#X connect 24 1 3 0;
#X connect 24 2 4 0;
#X connect 24 3 5 0;
#X connect 24 4 6 0;
#X connect 24 5 7 0;
#X connect 24 6 8 0;
#X connect 24 7 9 0;
#X connect 24 8 10 0;
#X connect 24 9 11 0;
#X connect 24 10 12 0;
#X connect 24 11 13 0;
#X connect 24 12 14 0;
#X connect 24 13 15 0;
#X connect 24 14 16 0;
#X connect 24 15 17 0;
#X connect 25 0 23 1;
#X connect 27 0 19 1;
#X connect 27 0 29 0;
#X connect 31 0 37 0;
#X connect 32 0 37 1;
#X connect 33 0 37 2;
#X connect 34 0 37 3;
#X connect 35 0 37 4;
#X connect 38 0 44 0;
#X connect 39 0 44 1;
#X connect 40 0 44 2;
#X connect 41 0 44 3;
#X connect 42 0 44 4;
#X connect 45 0 51 0;
#X connect 46 0 51 1;
#X connect 47 0 51 2;
#X connect 48 0 51 3;
#X connect 49 0 51 4;
#X connect 52 0 58 0;
#X connect 53 0 58 1;
#X connect 54 0 58 2;
#X connect 55 0 58 3;
#X connect 56 0 58 4;
#X connect 61 0 67 0;
#X connect 62 0 67 1;
#X connect 63 0 67 2;
#X connect 64 0 67 3;
#X connect 65 0 67 4;
#X connect 68 0 74 0;
#X connect 69 0 74 1;
#X connect 70 0 74 2;
#X connect 71 0 74 3;
#X connect 72 0 74 4;
#X connect 75 0 81 0;
#X connect 76 0 81 1;
#X connect 77 0 81 2;
#X connect 78 0 81 3;
#X connect 79 0 81 4;
#X connect 82 0 88 0;
#X connect 83 0 88 1;
#X connect 84 0 88 2;
#X connect 85 0 88 3;
#X connect 86 0 88 4;
#X connect 89 0 139 0;
#X connect 90 0 139 1;
#X connect 91 0 139 2;
#X connect 92 0 139 3;
#X connect 93 0 139 4;
#X connect 95 0 140 0;
#X connect 96 0 140 1;
#X connect 97 0 140 2;
#X connect 98 0 140 3;
#X connect 99 0 140 4;
#X connect 101 0 141 0;
#X connect 102 0 141 1;
#X connect 103 0 141 2;
#X connect 104 0 141 3;
#X connect 105 0 141 4;
#X connect 107 0 142 0;
#X connect 108 0 142 1;
#X connect 109 0 142 2;
#X connect 110 0 142 3;
#X connect 111 0 142 4;
#X connect 115 0 143 0;
#X connect 116 0 143 1;
#X connect 117 0 143 2;
#X connect 118 0 143 3;
#X connect 119 0 143 4;
#X connect 121 0 144 0;
#X connect 122 0 144 1;
#X connect 123 0 144 2;
#X connect 124 0 144 3;
#X connect 125 0 144 4;
#X connect 127 0 145 0;
#X connect 128 0 145 1;
#X connect 129 0 145 2;
#X connect 130 0 145 3;
#X connect 131 0 145 4;
#X connect 133 0 146 0;
#X connect 134 0 146 1;
#X connect 135 0 146 2;
#X connect 136 0 146 3;
#X connect 137 0 146 4;
#X connect 147 0 20 0;
#X connect 149 0 18 1;
