#N canvas 28 0 1307 683 10;
#X obj 47 315 bng 32 250 50 0 empty empty empty 17 7 0 10 -262144 -1
-1;
#X obj 335 606 dac~;
#N canvas 990 255 450 300 q 0;
#X floatatom 121 143 5 0 0 0 - - -;
#X floatatom 163 143 5 0 0 0 - - -;
#X obj 121 172 osc~;
#X obj 99 199 *~;
#X obj 163 172 / 767;
#X floatatom 163 198 5 0 0 0 - - -;
#X obj 98 223 *~ 1;
#X msg 96 87 open Atari_2600_No_Env_163.wav \, 1;
#X obj 97 112 readsf~;
#X obj 91 50 inlet;
#X obj 132 50 inlet;
#X obj 173 50 inlet;
#X obj 98 251 outlet~;
#X connect 0 0 2 0;
#X connect 1 0 4 0;
#X connect 2 0 3 1;
#X connect 3 0 6 0;
#X connect 4 0 5 0;
#X connect 5 0 6 1;
#X connect 6 0 12 0;
#X connect 7 0 8 0;
#X connect 8 0 3 0;
#X connect 9 0 7 0;
#X connect 10 0 0 0;
#X connect 11 0 1 0;
#X restore 46 528 pd q;
#X obj 47 349 vsl 32 128 0 2500 0 0 empty empty empty 0 -9 0 10 -262130
-1 -1 7600 1;
#X obj 195 128 tgl 30 0 empty empty empty 17 7 0 10 -262144 -1 -1 1
1;
#X obj 195 191 metro 100;
#X floatatom 263 191 5 0 0 0 - - -;
#X obj 299 170 + 1;
#X obj 263 126 bng 30 250 50 0 empty empty empty 17 7 0 10 -262144
-1 -1;
#X obj 263 170 f;
#X obj 299 190 mod 16;
#X text 263 110 STEP;
#X obj 229 115 vsl 30 40 15 2000 0 0 empty empty empty 0 -9 0 10 -262144
-1 -1 3100 1;
#X text 227 95 TEMPO;
#X floatatom 203 172 5 0 0 0 - - -;
#X text 193 111 ONOFF;
#X obj 195 213 counter 0 15;
#X obj 195 236 sel 0 1 2 3 4 5 6 7 8 9 10 11 12 13 14 15;
#X obj 48 485 knob 32 32 0 1000 0 0 empty empty empty 0 -8 0 8 -262144
-1 -1 0 1;
#X obj 79 315 bng 32 250 50 0 empty empty empty 17 7 0 10 -262144 -1
-1;
#N canvas 316 423 450 300 q 0;
#X floatatom 111 133 5 0 0 0 - - -;
#X floatatom 153 133 5 0 0 0 - - -;
#X obj 111 162 osc~;
#X obj 89 189 *~;
#X obj 153 162 / 767;
#X floatatom 153 188 5 0 0 0 - - -;
#X obj 88 213 *~ 1;
#X msg 86 77 open Atari_2600_No_Env_163.wav \, 1;
#X obj 87 102 readsf~;
#X obj 81 40 inlet;
#X obj 122 40 inlet;
#X obj 163 40 inlet;
#X obj 88 241 outlet~;
#X connect 0 0 2 0;
#X connect 1 0 4 0;
#X connect 2 0 3 1;
#X connect 3 0 6 0;
#X connect 4 0 5 0;
#X connect 5 0 6 1;
#X connect 6 0 12 0;
#X connect 7 0 8 0;
#X connect 8 0 3 0;
#X connect 9 0 7 0;
#X connect 10 0 0 0;
#X connect 11 0 1 0;
#X restore 78 528 pd q;
#X obj 79 349 vsl 32 128 0 2500 0 0 empty empty empty 0 -9 0 10 -262144
-1 -1 1300 1;
#X obj 83 486 knob 32 32 0 1000 0 0 empty empty empty 0 -8 0 8 -262144
-1 -1 0 1;
#X obj 111 315 bng 32 250 50 0 empty empty empty 17 7 0 10 -262144
-1 -1;
#N canvas 316 423 450 300 q 0;
#X floatatom 111 133 5 0 0 0 - - -;
#X floatatom 153 133 5 0 0 0 - - -;
#X obj 111 162 osc~;
#X obj 89 189 *~;
#X obj 153 162 / 767;
#X floatatom 153 188 5 0 0 0 - - -;
#X obj 88 213 *~ 1;
#X msg 86 77 open Atari_2600_No_Env_163.wav \, 1;
#X obj 87 102 readsf~;
#X obj 81 40 inlet;
#X obj 122 40 inlet;
#X obj 163 40 inlet;
#X obj 88 241 outlet~;
#X connect 0 0 2 0;
#X connect 1 0 4 0;
#X connect 2 0 3 1;
#X connect 3 0 6 0;
#X connect 4 0 5 0;
#X connect 5 0 6 1;
#X connect 6 0 12 0;
#X connect 7 0 8 0;
#X connect 8 0 3 0;
#X connect 9 0 7 0;
#X connect 10 0 0 0;
#X connect 11 0 1 0;
#X restore 110 528 pd q;
#X obj 111 349 vsl 32 128 0 2500 0 0 empty empty empty 0 -9 0 10 -262144
-1 -1 7600 1;
#X obj 112 485 knob 32 32 0 1000 0 0 empty empty empty 0 -8 0 8 -262144
-1 -1 0 1;
#X obj 143 315 bng 32 250 50 0 empty empty empty 17 7 0 10 -262144
-1 -1;
#N canvas 316 423 450 300 q 0;
#X floatatom 111 133 5 0 0 0 - - -;
#X floatatom 153 133 5 0 0 0 - - -;
#X obj 111 162 osc~;
#X obj 89 189 *~;
#X obj 153 162 / 767;
#X floatatom 153 188 5 0 0 0 - - -;
#X obj 88 213 *~ 1;
#X msg 86 77 open Atari_2600_No_Env_163.wav \, 1;
#X obj 87 102 readsf~;
#X obj 81 40 inlet;
#X obj 122 40 inlet;
#X obj 163 40 inlet;
#X obj 88 241 outlet~;
#X connect 0 0 2 0;
#X connect 1 0 4 0;
#X connect 2 0 3 1;
#X connect 3 0 6 0;
#X connect 4 0 5 0;
#X connect 5 0 6 1;
#X connect 6 0 12 0;
#X connect 7 0 8 0;
#X connect 8 0 3 0;
#X connect 9 0 7 0;
#X connect 10 0 0 0;
#X connect 11 0 1 0;
#X restore 142 528 pd q;
#X obj 143 349 vsl 32 128 0 2500 0 0 empty empty empty 0 -9 0 10 -262144
-1 -1 3000 1;
#X obj 144 485 knob 32 32 0 1000 0 0 empty empty empty 0 -8 0 8 -262144
-1 -1 0 1;
#X obj 192 315 bng 32 250 50 0 empty empty empty 17 7 0 10 -262144
-1 -1;
#N canvas 316 423 450 300 q 0;
#X floatatom 111 133 5 0 0 0 - - -;
#X floatatom 153 133 5 0 0 0 - - -;
#X obj 111 162 osc~;
#X obj 89 189 *~;
#X obj 153 162 / 767;
#X floatatom 153 188 5 0 0 0 - - -;
#X obj 88 213 *~ 1;
#X obj 87 102 readsf~;
#X obj 81 40 inlet;
#X obj 122 40 inlet;
#X obj 163 40 inlet;
#X obj 88 241 outlet~;
#X msg 86 77 open Atari_2600_No_Env_163.wav \, 1;
#X connect 0 0 2 0;
#X connect 1 0 4 0;
#X connect 2 0 3 1;
#X connect 3 0 6 0;
#X connect 4 0 5 0;
#X connect 5 0 6 1;
#X connect 6 0 11 0;
#X connect 7 0 3 0;
#X connect 8 0 12 0;
#X connect 9 0 0 0;
#X connect 10 0 1 0;
#X connect 12 0 7 0;
#X restore 191 528 pd q;
#X obj 192 349 vsl 32 128 0 2500 0 0 empty empty empty 0 -9 0 10 -262130
-1 -1 5200 1;
#X obj 193 485 knob 32 32 0 1000 0 0 empty empty empty 0 -8 0 8 -262144
-1 -1 0 1;
#X obj 224 315 bng 32 250 50 0 empty empty empty 17 7 0 10 -262144
-1 -1;
#N canvas 316 423 450 300 q 0;
#X floatatom 111 133 5 0 0 0 - - -;
#X floatatom 153 133 5 0 0 0 - - -;
#X obj 111 162 osc~;
#X obj 89 189 *~;
#X obj 153 162 / 767;
#X floatatom 153 188 5 0 0 0 - - -;
#X obj 88 213 *~ 1;
#X msg 86 77 open Atari_2600_No_Env_163.wav \, 1;
#X obj 87 102 readsf~;
#X obj 81 40 inlet;
#X obj 122 40 inlet;
#X obj 163 40 inlet;
#X obj 88 241 outlet~;
#X connect 0 0 2 0;
#X connect 1 0 4 0;
#X connect 2 0 3 1;
#X connect 3 0 6 0;
#X connect 4 0 5 0;
#X connect 5 0 6 1;
#X connect 6 0 12 0;
#X connect 7 0 8 0;
#X connect 8 0 3 0;
#X connect 9 0 7 0;
#X connect 10 0 0 0;
#X connect 11 0 1 0;
#X restore 223 528 pd q;
#X obj 224 349 vsl 32 128 0 2500 0 0 empty empty empty 0 -9 0 10 -262144
-1 -1 0 1;
#X obj 225 485 knob 32 32 0 1000 0 0 empty empty empty 0 -8 0 8 -262144
-1 -1 0 1;
#X obj 256 315 bng 32 250 50 0 empty empty empty 17 7 0 10 -262144
-1 -1;
#N canvas 316 423 450 300 q 0;
#X floatatom 111 133 5 0 0 0 - - -;
#X floatatom 153 133 5 0 0 0 - - -;
#X obj 111 162 osc~;
#X obj 89 189 *~;
#X obj 153 162 / 767;
#X floatatom 153 188 5 0 0 0 - - -;
#X obj 88 213 *~ 1;
#X msg 86 77 open Atari_2600_No_Env_163.wav \, 1;
#X obj 87 102 readsf~;
#X obj 81 40 inlet;
#X obj 122 40 inlet;
#X obj 163 40 inlet;
#X obj 88 241 outlet~;
#X connect 0 0 2 0;
#X connect 1 0 4 0;
#X connect 2 0 3 1;
#X connect 3 0 6 0;
#X connect 4 0 5 0;
#X connect 5 0 6 1;
#X connect 6 0 12 0;
#X connect 7 0 8 0;
#X connect 8 0 3 0;
#X connect 9 0 7 0;
#X connect 10 0 0 0;
#X connect 11 0 1 0;
#X restore 255 528 pd q;
#X obj 256 349 vsl 32 128 0 2500 0 0 empty empty empty 0 -9 0 10 -262144
-1 -1 2300 1;
#X obj 257 485 knob 32 32 0 1000 0 0 empty empty empty 0 -8 0 8 -262144
-1 -1 0 1;
#X obj 288 315 bng 32 250 50 0 empty empty empty 17 7 0 10 -262144
-1 -1;
#N canvas 316 423 450 300 q 0;
#X floatatom 111 133 5 0 0 0 - - -;
#X floatatom 153 133 5 0 0 0 - - -;
#X obj 111 162 osc~;
#X obj 89 189 *~;
#X obj 153 162 / 767;
#X floatatom 153 188 5 0 0 0 - - -;
#X obj 88 213 *~ 1;
#X msg 86 77 open Atari_2600_No_Env_163.wav \, 1;
#X obj 87 102 readsf~;
#X obj 81 40 inlet;
#X obj 122 40 inlet;
#X obj 163 40 inlet;
#X obj 88 241 outlet~;
#X connect 0 0 2 0;
#X connect 1 0 4 0;
#X connect 2 0 3 1;
#X connect 3 0 6 0;
#X connect 4 0 5 0;
#X connect 5 0 6 1;
#X connect 6 0 12 0;
#X connect 7 0 8 0;
#X connect 8 0 3 0;
#X connect 9 0 7 0;
#X connect 10 0 0 0;
#X connect 11 0 1 0;
#X restore 287 528 pd q;
#X obj 288 349 vsl 32 128 0 2500 0 0 empty empty empty 0 -9 0 10 -262144
-1 -1 11400 1;
#X obj 289 485 knob 32 32 0 1000 0 0 empty empty empty 0 -8 0 8 -262144
-1 -1 0 1;
#X obj 337 315 bng 32 250 50 0 empty empty empty 17 7 0 10 -262144
-1 -1;
#N canvas 316 423 450 300 q 0;
#X floatatom 111 133 5 0 0 0 - - -;
#X floatatom 153 133 5 0 0 0 - - -;
#X obj 111 162 osc~;
#X obj 89 189 *~;
#X obj 153 162 / 767;
#X floatatom 153 188 5 0 0 0 - - -;
#X obj 88 213 *~ 1;
#X msg 86 77 open Atari_2600_No_Env_163.wav \, 1;
#X obj 87 102 readsf~;
#X obj 81 40 inlet;
#X obj 122 40 inlet;
#X obj 163 40 inlet;
#X obj 88 241 outlet~;
#X connect 0 0 2 0;
#X connect 1 0 4 0;
#X connect 2 0 3 1;
#X connect 3 0 6 0;
#X connect 4 0 5 0;
#X connect 5 0 6 1;
#X connect 6 0 12 0;
#X connect 7 0 8 0;
#X connect 8 0 3 0;
#X connect 9 0 7 0;
#X connect 10 0 0 0;
#X connect 11 0 1 0;
#X restore 336 528 pd q;
#X obj 337 349 vsl 32 128 0 2500 0 0 empty empty empty 0 -9 0 10 -262130
-1 -1 3000 1;
#X obj 338 485 knob 32 32 0 1000 0 0 empty empty empty 0 -8 0 8 -262144
-1 -1 0 1;
#X obj 369 315 bng 32 250 50 0 empty empty empty 17 7 0 10 -262144
-1 -1;
#N canvas 316 423 450 300 q 0;
#X floatatom 111 133 5 0 0 0 - - -;
#X floatatom 153 133 5 0 0 0 - - -;
#X obj 111 162 osc~;
#X obj 89 189 *~;
#X obj 153 162 / 767;
#X floatatom 153 188 5 0 0 0 - - -;
#X obj 88 213 *~ 1;
#X msg 86 77 open Atari_2600_No_Env_163.wav \, 1;
#X obj 87 102 readsf~;
#X obj 81 40 inlet;
#X obj 122 40 inlet;
#X obj 163 40 inlet;
#X obj 88 241 outlet~;
#X connect 0 0 2 0;
#X connect 1 0 4 0;
#X connect 2 0 3 1;
#X connect 3 0 6 0;
#X connect 4 0 5 0;
#X connect 5 0 6 1;
#X connect 6 0 12 0;
#X connect 7 0 8 0;
#X connect 8 0 3 0;
#X connect 9 0 7 0;
#X connect 10 0 0 0;
#X connect 11 0 1 0;
#X restore 368 528 pd q;
#X obj 369 349 vsl 32 128 0 2500 0 0 empty empty empty 0 -9 0 10 -262144
-1 -1 7000 1;
#X obj 370 485 knob 32 32 0 1000 0 0 empty empty empty 0 -8 0 8 -262144
-1 -1 0 1;
#X obj 401 315 bng 32 250 50 0 empty empty empty 17 7 0 10 -262144
-1 -1;
#N canvas 316 423 450 300 q 0;
#X floatatom 111 133 5 0 0 0 - - -;
#X floatatom 153 133 5 0 0 0 - - -;
#X obj 111 162 osc~;
#X obj 89 189 *~;
#X obj 153 162 / 767;
#X floatatom 153 188 5 0 0 0 - - -;
#X obj 88 213 *~ 1;
#X msg 86 77 open Atari_2600_No_Env_163.wav \, 1;
#X obj 87 102 readsf~;
#X obj 81 40 inlet;
#X obj 122 40 inlet;
#X obj 163 40 inlet;
#X obj 88 241 outlet~;
#X connect 0 0 2 0;
#X connect 1 0 4 0;
#X connect 2 0 3 1;
#X connect 3 0 6 0;
#X connect 4 0 5 0;
#X connect 5 0 6 1;
#X connect 6 0 12 0;
#X connect 7 0 8 0;
#X connect 8 0 3 0;
#X connect 9 0 7 0;
#X connect 10 0 0 0;
#X connect 11 0 1 0;
#X restore 400 528 pd q;
#X obj 401 349 vsl 32 128 0 2500 0 0 empty empty empty 0 -9 0 10 -262144
-1 -1 400 1;
#X obj 402 485 knob 32 32 0 1000 0 0 empty empty empty 0 -8 0 8 -262144
-1 -1 0 1;
#X obj 433 315 bng 32 250 50 0 empty empty empty 17 7 0 10 -262144
-1 -1;
#N canvas 316 423 450 300 q 0;
#X floatatom 111 133 5 0 0 0 - - -;
#X floatatom 153 133 5 0 0 0 - - -;
#X obj 111 162 osc~;
#X obj 89 189 *~;
#X obj 153 162 / 767;
#X floatatom 153 188 5 0 0 0 - - -;
#X obj 88 213 *~ 1;
#X msg 86 77 open Atari_2600_No_Env_163.wav \, 1;
#X obj 87 102 readsf~;
#X obj 81 40 inlet;
#X obj 122 40 inlet;
#X obj 163 40 inlet;
#X obj 88 241 outlet~;
#X connect 0 0 2 0;
#X connect 1 0 4 0;
#X connect 2 0 3 1;
#X connect 3 0 6 0;
#X connect 4 0 5 0;
#X connect 5 0 6 1;
#X connect 6 0 12 0;
#X connect 7 0 8 0;
#X connect 8 0 3 0;
#X connect 9 0 7 0;
#X connect 10 0 0 0;
#X connect 11 0 1 0;
#X restore 432 528 pd q;
#X obj 433 349 vsl 32 128 0 2500 0 0 empty empty empty 0 -9 0 10 -262144
-1 -1 7500 1;
#X obj 434 485 knob 32 32 0 1000 0 0 empty empty empty 0 -8 0 8 -262144
-1 -1 0 1;
#X obj 482 315 bng 32 250 50 0 empty empty empty 17 7 0 10 -262144
-1 -1;
#N canvas 316 423 450 300 q 0;
#X floatatom 111 133 5 0 0 0 - - -;
#X floatatom 153 133 5 0 0 0 - - -;
#X obj 111 162 osc~;
#X obj 89 189 *~;
#X obj 153 162 / 767;
#X floatatom 153 188 5 0 0 0 - - -;
#X obj 88 213 *~ 1;
#X msg 86 77 open Atari_2600_No_Env_163.wav \, 1;
#X obj 87 102 readsf~;
#X obj 81 40 inlet;
#X obj 122 40 inlet;
#X obj 163 40 inlet;
#X obj 88 241 outlet~;
#X connect 0 0 2 0;
#X connect 1 0 4 0;
#X connect 2 0 3 1;
#X connect 3 0 6 0;
#X connect 4 0 5 0;
#X connect 5 0 6 1;
#X connect 6 0 12 0;
#X connect 7 0 8 0;
#X connect 8 0 3 0;
#X connect 9 0 7 0;
#X connect 10 0 0 0;
#X connect 11 0 1 0;
#X restore 481 528 pd q;
#X obj 482 349 vsl 32 128 0 2500 0 0 empty empty empty 0 -9 0 10 -262130
-1 -1 5100 1;
#X obj 483 485 knob 32 32 0 1000 0 0 empty empty empty 0 -8 0 8 -262144
-1 -1 0 1;
#X obj 514 315 bng 32 250 50 0 empty empty empty 17 7 0 10 -262144
-1 -1;
#N canvas 316 423 450 300 q 0;
#X floatatom 111 133 5 0 0 0 - - -;
#X floatatom 153 133 5 0 0 0 - - -;
#X obj 111 162 osc~;
#X obj 89 189 *~;
#X obj 153 162 / 767;
#X floatatom 153 188 5 0 0 0 - - -;
#X obj 88 213 *~ 1;
#X msg 86 77 open Atari_2600_No_Env_163.wav \, 1;
#X obj 87 102 readsf~;
#X obj 81 40 inlet;
#X obj 122 40 inlet;
#X obj 163 40 inlet;
#X obj 88 241 outlet~;
#X connect 0 0 2 0;
#X connect 1 0 4 0;
#X connect 2 0 3 1;
#X connect 3 0 6 0;
#X connect 4 0 5 0;
#X connect 5 0 6 1;
#X connect 6 0 12 0;
#X connect 7 0 8 0;
#X connect 8 0 3 0;
#X connect 9 0 7 0;
#X connect 10 0 0 0;
#X connect 11 0 1 0;
#X restore 513 528 pd q;
#X obj 514 349 vsl 32 128 0 2500 0 0 empty empty empty 0 -9 0 10 -262144
-1 -1 0 1;
#X obj 515 485 knob 32 32 0 1000 0 0 empty empty empty 0 -8 0 8 -262144
-1 -1 0 1;
#X obj 546 315 bng 32 250 50 0 empty empty empty 17 7 0 10 -262144
-1 -1;
#N canvas 316 423 450 300 q 0;
#X floatatom 111 133 5 0 0 0 - - -;
#X floatatom 153 133 5 0 0 0 - - -;
#X obj 111 162 osc~;
#X obj 89 189 *~;
#X obj 153 162 / 767;
#X floatatom 153 188 5 0 0 0 - - -;
#X obj 88 213 *~ 1;
#X msg 86 77 open Atari_2600_No_Env_163.wav \, 1;
#X obj 87 102 readsf~;
#X obj 81 40 inlet;
#X obj 122 40 inlet;
#X obj 163 40 inlet;
#X obj 88 241 outlet~;
#X connect 0 0 2 0;
#X connect 1 0 4 0;
#X connect 2 0 3 1;
#X connect 3 0 6 0;
#X connect 4 0 5 0;
#X connect 5 0 6 1;
#X connect 6 0 12 0;
#X connect 7 0 8 0;
#X connect 8 0 3 0;
#X connect 9 0 7 0;
#X connect 10 0 0 0;
#X connect 11 0 1 0;
#X restore 545 528 pd q;
#X obj 546 349 vsl 32 128 0 2500 0 0 empty empty empty 0 -9 0 10 -262144
-1 -1 6800 1;
#X obj 547 485 knob 32 32 0 1000 0 0 empty empty empty 0 -8 0 8 -262144
-1 -1 0 1;
#X obj 578 315 bng 32 250 50 0 empty empty empty 17 7 0 10 -262144
-1 -1;
#N canvas 316 423 450 300 q 0;
#X floatatom 111 133 5 0 0 0 - - -;
#X floatatom 153 133 5 0 0 0 - - -;
#X obj 111 162 osc~;
#X obj 89 189 *~;
#X obj 153 162 / 767;
#X floatatom 153 188 5 0 0 0 - - -;
#X obj 88 213 *~ 1;
#X msg 86 77 open Atari_2600_No_Env_163.wav \, 1;
#X obj 87 102 readsf~;
#X obj 81 40 inlet;
#X obj 122 40 inlet;
#X obj 163 40 inlet;
#X obj 88 241 outlet~;
#X connect 0 0 2 0;
#X connect 1 0 4 0;
#X connect 2 0 3 1;
#X connect 3 0 6 0;
#X connect 4 0 5 0;
#X connect 5 0 6 1;
#X connect 6 0 12 0;
#X connect 7 0 8 0;
#X connect 8 0 3 0;
#X connect 9 0 7 0;
#X connect 10 0 0 0;
#X connect 11 0 1 0;
#X restore 577 528 pd q;
#X obj 578 349 vsl 32 128 0 2500 0 0 empty empty empty 0 -9 0 10 -262144
-1 -1 6400 1;
#X obj 579 485 knob 32 32 0 1000 0 0 empty empty empty 0 -8 0 8 -262144
-1 -1 0 1;
#X text 619 493 vol;
#N canvas 475 305 450 300 record 0;
#X obj 91 233 writesf~;
#X obj 57 189 *~ 1;
#X obj 58 161 adc~;
#X msg 124 197 stop;
#X obj 95 40 inlet;
#X text 102 54 rec;
#X obj 143 39 inlet;
#X text 148 54 rec stop;
#X msg 96 103 open Atari_2600_No_Env_163.wav \, start;
#X connect 1 0 0 0;
#X connect 2 0 1 0;
#X connect 3 0 0 0;
#X connect 4 0 8 0;
#X connect 6 0 3 0;
#X connect 8 0 0 0;
#X restore 355 154 pd record;
#X obj 355 119 bng 32 250 50 0 empty empty empty 17 7 0 10 -262144
-1 -1;
#X obj 389 119 bng 32 250 50 0 empty empty empty 17 7 0 10 -262144
-1 -1;
#X obj 278 214 bng 15 250 50 0 empty empty empty 17 7 0 10 -262144
-1 -1;
#X obj 659 319 bng 32 250 50 0 empty empty empty 17 7 0 10 -262144
-1 -1;
#X obj 947 610 dac~;
#N canvas 990 255 450 300 q 0;
#X floatatom 121 143 5 0 0 0 - - -;
#X floatatom 163 143 5 0 0 0 - - -;
#X obj 121 172 osc~;
#X obj 99 199 *~;
#X obj 163 172 / 767;
#X floatatom 163 198 5 0 0 0 - - -;
#X obj 98 223 *~ 1;
#X obj 97 112 readsf~;
#X obj 91 50 inlet;
#X obj 132 50 inlet;
#X obj 173 50 inlet;
#X obj 98 251 outlet~;
#X msg 96 87 open Atari_2700_No_Env_163.wav \, 1;
#X connect 0 0 2 0;
#X connect 1 0 4 0;
#X connect 2 0 3 1;
#X connect 3 0 6 0;
#X connect 4 0 5 0;
#X connect 5 0 6 1;
#X connect 6 0 11 0;
#X connect 7 0 3 0;
#X connect 8 0 12 0;
#X connect 9 0 0 0;
#X connect 10 0 1 0;
#X connect 12 0 7 0;
#X restore 658 532 pd q;
#X obj 659 353 vsl 32 128 0 2500 0 0 empty empty empty 0 -9 0 10 -204786
-1 -1 0 1;
#X obj 807 195 metro 100;
#X floatatom 875 195 5 0 0 0 - - -;
#X obj 911 174 + 1;
#X obj 875 130 bng 30 250 50 0 empty empty empty 17 7 0 10 -262144
-1 -1;
#X obj 875 174 f;
#X obj 911 194 mod 16;
#X text 875 114 STEP;
#X obj 841 119 vsl 30 40 15 2000 0 0 empty empty empty 0 -9 0 10 -262144
-1 -1 2300 1;
#X text 839 99 TEMPO;
#X floatatom 815 176 5 0 0 0 - - -;
#X obj 807 217 counter 0 15;
#X obj 807 240 sel 0 1 2 3 4 5 6 7 8 9 10 11 12 13 14 15;
#X obj 660 489 knob 32 32 0 1000 0 0 empty empty empty 0 -8 0 8 -262144
-1 -1 0 1;
#X obj 691 319 bng 32 250 50 0 empty empty empty 17 7 0 10 -262144
-1 -1;
#N canvas 316 423 450 300 q 0;
#X floatatom 111 133 5 0 0 0 - - -;
#X floatatom 153 133 5 0 0 0 - - -;
#X obj 111 162 osc~;
#X obj 89 189 *~;
#X obj 153 162 / 767;
#X floatatom 153 188 5 0 0 0 - - -;
#X obj 88 213 *~ 1;
#X obj 87 102 readsf~;
#X obj 81 40 inlet;
#X obj 122 40 inlet;
#X obj 163 40 inlet;
#X obj 88 241 outlet~;
#X msg 86 77 open Atari_2700_No_Env_163.wav \, 1;
#X connect 0 0 2 0;
#X connect 1 0 4 0;
#X connect 2 0 3 1;
#X connect 3 0 6 0;
#X connect 4 0 5 0;
#X connect 5 0 6 1;
#X connect 6 0 11 0;
#X connect 7 0 3 0;
#X connect 8 0 12 0;
#X connect 9 0 0 0;
#X connect 10 0 1 0;
#X connect 12 0 7 0;
#X restore 690 532 pd q;
#X obj 691 353 vsl 32 128 0 2500 0 0 empty empty empty 0 -9 0 10 -262144
-1 -1 0 1;
#X obj 695 490 knob 32 32 0 1000 0 0 empty empty empty 0 -8 0 8 -262144
-1 -1 0 1;
#X obj 723 319 bng 32 250 50 0 empty empty empty 17 7 0 10 -262144
-1 -1;
#N canvas 316 423 450 300 q 0;
#X floatatom 111 133 5 0 0 0 - - -;
#X floatatom 153 133 5 0 0 0 - - -;
#X obj 111 162 osc~;
#X obj 89 189 *~;
#X obj 153 162 / 767;
#X floatatom 153 188 5 0 0 0 - - -;
#X obj 88 213 *~ 1;
#X obj 87 102 readsf~;
#X obj 81 40 inlet;
#X obj 122 40 inlet;
#X obj 163 40 inlet;
#X obj 88 241 outlet~;
#X msg 86 77 open Atari_2700_No_Env_163.wav \, 1;
#X connect 0 0 2 0;
#X connect 1 0 4 0;
#X connect 2 0 3 1;
#X connect 3 0 6 0;
#X connect 4 0 5 0;
#X connect 5 0 6 1;
#X connect 6 0 11 0;
#X connect 7 0 3 0;
#X connect 8 0 12 0;
#X connect 9 0 0 0;
#X connect 10 0 1 0;
#X connect 12 0 7 0;
#X restore 722 532 pd q;
#X obj 723 353 vsl 32 128 0 2500 0 0 empty empty empty 0 -9 0 10 -262144
-1 -1 0 1;
#X obj 724 489 knob 32 32 0 1000 0 0 empty empty empty 0 -8 0 8 -262144
-1 -1 0 1;
#X obj 755 319 bng 32 250 50 0 empty empty empty 17 7 0 10 -262144
-1 -1;
#N canvas 316 423 450 300 q 0;
#X floatatom 111 133 5 0 0 0 - - -;
#X floatatom 153 133 5 0 0 0 - - -;
#X obj 111 162 osc~;
#X obj 89 189 *~;
#X obj 153 162 / 767;
#X floatatom 153 188 5 0 0 0 - - -;
#X obj 88 213 *~ 1;
#X obj 87 102 readsf~;
#X obj 81 40 inlet;
#X obj 122 40 inlet;
#X obj 163 40 inlet;
#X obj 88 241 outlet~;
#X msg 86 77 open Atari_2700_No_Env_163.wav \, 1;
#X connect 0 0 2 0;
#X connect 1 0 4 0;
#X connect 2 0 3 1;
#X connect 3 0 6 0;
#X connect 4 0 5 0;
#X connect 5 0 6 1;
#X connect 6 0 11 0;
#X connect 7 0 3 0;
#X connect 8 0 12 0;
#X connect 9 0 0 0;
#X connect 10 0 1 0;
#X connect 12 0 7 0;
#X restore 754 532 pd q;
#X obj 755 353 vsl 32 128 0 2500 0 0 empty empty empty 0 -9 0 10 -262144
-1 -1 0 1;
#X obj 756 489 knob 32 32 0 1000 0 0 empty empty empty 0 -8 0 8 -262144
-1 -1 0 1;
#X obj 804 319 bng 32 250 50 0 empty empty empty 17 7 0 10 -262144
-1 -1;
#N canvas 316 423 450 300 q 0;
#X floatatom 111 133 5 0 0 0 - - -;
#X floatatom 153 133 5 0 0 0 - - -;
#X obj 111 162 osc~;
#X obj 89 189 *~;
#X obj 153 162 / 767;
#X floatatom 153 188 5 0 0 0 - - -;
#X obj 88 213 *~ 1;
#X obj 87 102 readsf~;
#X obj 81 40 inlet;
#X obj 122 40 inlet;
#X obj 163 40 inlet;
#X obj 88 241 outlet~;
#X msg 86 77 open Atari_2700_No_Env_163.wav \, 1;
#X connect 0 0 2 0;
#X connect 1 0 4 0;
#X connect 2 0 3 1;
#X connect 3 0 6 0;
#X connect 4 0 5 0;
#X connect 5 0 6 1;
#X connect 6 0 11 0;
#X connect 7 0 3 0;
#X connect 8 0 12 0;
#X connect 9 0 0 0;
#X connect 10 0 1 0;
#X connect 12 0 7 0;
#X restore 803 532 pd q;
#X obj 804 353 vsl 32 128 0 2500 0 0 empty empty empty 0 -9 0 10 -204786
-1 -1 4300 1;
#X obj 805 489 knob 32 32 0 1000 0 0 empty empty empty 0 -8 0 8 -262144
-1 -1 0 1;
#X obj 836 319 bng 32 250 50 0 empty empty empty 17 7 0 10 -262144
-1 -1;
#N canvas 316 423 450 300 q 0;
#X floatatom 111 133 5 0 0 0 - - -;
#X floatatom 153 133 5 0 0 0 - - -;
#X obj 111 162 osc~;
#X obj 89 189 *~;
#X obj 153 162 / 767;
#X floatatom 153 188 5 0 0 0 - - -;
#X obj 88 213 *~ 1;
#X obj 87 102 readsf~;
#X obj 81 40 inlet;
#X obj 122 40 inlet;
#X obj 163 40 inlet;
#X obj 88 241 outlet~;
#X msg 86 77 open Atari_2700_No_Env_163.wav \, 1;
#X connect 0 0 2 0;
#X connect 1 0 4 0;
#X connect 2 0 3 1;
#X connect 3 0 6 0;
#X connect 4 0 5 0;
#X connect 5 0 6 1;
#X connect 6 0 11 0;
#X connect 7 0 3 0;
#X connect 8 0 12 0;
#X connect 9 0 0 0;
#X connect 10 0 1 0;
#X connect 12 0 7 0;
#X restore 835 532 pd q;
#X obj 836 353 vsl 32 128 0 2500 0 0 empty empty empty 0 -9 0 10 -262144
-1 -1 2700 1;
#X obj 837 489 knob 32 32 0 1000 0 0 empty empty empty 0 -8 0 8 -262144
-1 -1 0 1;
#X obj 868 319 bng 32 250 50 0 empty empty empty 17 7 0 10 -262144
-1 -1;
#N canvas 316 423 450 300 q 0;
#X floatatom 111 133 5 0 0 0 - - -;
#X floatatom 153 133 5 0 0 0 - - -;
#X obj 111 162 osc~;
#X obj 89 189 *~;
#X obj 153 162 / 767;
#X floatatom 153 188 5 0 0 0 - - -;
#X obj 88 213 *~ 1;
#X obj 87 102 readsf~;
#X obj 81 40 inlet;
#X obj 122 40 inlet;
#X obj 163 40 inlet;
#X obj 88 241 outlet~;
#X msg 86 77 open Atari_2700_No_Env_163.wav \, 1;
#X connect 0 0 2 0;
#X connect 1 0 4 0;
#X connect 2 0 3 1;
#X connect 3 0 6 0;
#X connect 4 0 5 0;
#X connect 5 0 6 1;
#X connect 6 0 11 0;
#X connect 7 0 3 0;
#X connect 8 0 12 0;
#X connect 9 0 0 0;
#X connect 10 0 1 0;
#X connect 12 0 7 0;
#X restore 867 532 pd q;
#X obj 868 353 vsl 32 128 0 2500 0 0 empty empty empty 0 -9 0 10 -262144
-1 -1 6100 1;
#X obj 869 489 knob 32 32 0 1000 0 0 empty empty empty 0 -8 0 8 -262144
-1 -1 0 1;
#X obj 900 319 bng 32 250 50 0 empty empty empty 17 7 0 10 -262144
-1 -1;
#N canvas 316 423 450 300 q 0;
#X floatatom 111 133 5 0 0 0 - - -;
#X floatatom 153 133 5 0 0 0 - - -;
#X obj 111 162 osc~;
#X obj 89 189 *~;
#X obj 153 162 / 767;
#X floatatom 153 188 5 0 0 0 - - -;
#X obj 88 213 *~ 1;
#X obj 87 102 readsf~;
#X obj 81 40 inlet;
#X obj 122 40 inlet;
#X obj 163 40 inlet;
#X obj 88 241 outlet~;
#X msg 86 77 open Atari_2700_No_Env_163.wav \, 1;
#X connect 0 0 2 0;
#X connect 1 0 4 0;
#X connect 2 0 3 1;
#X connect 3 0 6 0;
#X connect 4 0 5 0;
#X connect 5 0 6 1;
#X connect 6 0 11 0;
#X connect 7 0 3 0;
#X connect 8 0 12 0;
#X connect 9 0 0 0;
#X connect 10 0 1 0;
#X connect 12 0 7 0;
#X restore 899 532 pd q;
#X obj 900 353 vsl 32 128 0 2500 0 0 empty empty empty 0 -9 0 10 -262144
-1 -1 9500 1;
#X obj 901 489 knob 32 32 0 1000 0 0 empty empty empty 0 -8 0 8 -262144
-1 -1 0 1;
#X obj 949 319 bng 32 250 50 0 empty empty empty 17 7 0 10 -262144
-1 -1;
#N canvas 316 423 450 300 q 0;
#X floatatom 111 133 5 0 0 0 - - -;
#X floatatom 153 133 5 0 0 0 - - -;
#X obj 111 162 osc~;
#X obj 89 189 *~;
#X obj 153 162 / 767;
#X floatatom 153 188 5 0 0 0 - - -;
#X obj 88 213 *~ 1;
#X obj 87 102 readsf~;
#X obj 81 40 inlet;
#X obj 122 40 inlet;
#X obj 163 40 inlet;
#X obj 88 241 outlet~;
#X msg 86 77 open Atari_2700_No_Env_163.wav \, 1;
#X connect 0 0 2 0;
#X connect 1 0 4 0;
#X connect 2 0 3 1;
#X connect 3 0 6 0;
#X connect 4 0 5 0;
#X connect 5 0 6 1;
#X connect 6 0 11 0;
#X connect 7 0 3 0;
#X connect 8 0 12 0;
#X connect 9 0 0 0;
#X connect 10 0 1 0;
#X connect 12 0 7 0;
#X restore 948 532 pd q;
#X obj 949 353 vsl 32 128 0 2500 0 0 empty empty empty 0 -9 0 10 -204786
-1 -1 2600 1;
#X obj 950 489 knob 32 32 0 1000 0 0 empty empty empty 0 -8 0 8 -262144
-1 -1 0 1;
#X obj 981 319 bng 32 250 50 0 empty empty empty 17 7 0 10 -262144
-1 -1;
#N canvas 316 423 450 300 q 0;
#X floatatom 111 133 5 0 0 0 - - -;
#X floatatom 153 133 5 0 0 0 - - -;
#X obj 111 162 osc~;
#X obj 89 189 *~;
#X obj 153 162 / 767;
#X floatatom 153 188 5 0 0 0 - - -;
#X obj 88 213 *~ 1;
#X obj 87 102 readsf~;
#X obj 81 40 inlet;
#X obj 122 40 inlet;
#X obj 163 40 inlet;
#X obj 88 241 outlet~;
#X msg 86 77 open Atari_2700_No_Env_163.wav \, 1;
#X connect 0 0 2 0;
#X connect 1 0 4 0;
#X connect 2 0 3 1;
#X connect 3 0 6 0;
#X connect 4 0 5 0;
#X connect 5 0 6 1;
#X connect 6 0 11 0;
#X connect 7 0 3 0;
#X connect 8 0 12 0;
#X connect 9 0 0 0;
#X connect 10 0 1 0;
#X connect 12 0 7 0;
#X restore 980 532 pd q;
#X obj 981 353 vsl 32 128 0 2500 0 0 empty empty empty 0 -9 0 10 -262144
-1 -1 0 1;
#X obj 982 489 knob 32 32 0 1000 0 0 empty empty empty 0 -8 0 8 -262144
-1 -1 0 1;
#X obj 1013 319 bng 32 250 50 0 empty empty empty 17 7 0 10 -262144
-1 -1;
#N canvas 316 423 450 300 q 0;
#X floatatom 111 133 5 0 0 0 - - -;
#X floatatom 153 133 5 0 0 0 - - -;
#X obj 111 162 osc~;
#X obj 89 189 *~;
#X obj 153 162 / 767;
#X floatatom 153 188 5 0 0 0 - - -;
#X obj 88 213 *~ 1;
#X obj 87 102 readsf~;
#X obj 81 40 inlet;
#X obj 122 40 inlet;
#X obj 163 40 inlet;
#X obj 88 241 outlet~;
#X msg 86 77 open Atari_2700_No_Env_163.wav \, 1;
#X connect 0 0 2 0;
#X connect 1 0 4 0;
#X connect 2 0 3 1;
#X connect 3 0 6 0;
#X connect 4 0 5 0;
#X connect 5 0 6 1;
#X connect 6 0 11 0;
#X connect 7 0 3 0;
#X connect 8 0 12 0;
#X connect 9 0 0 0;
#X connect 10 0 1 0;
#X connect 12 0 7 0;
#X restore 1012 532 pd q;
#X obj 1013 353 vsl 32 128 0 2500 0 0 empty empty empty 0 -9 0 10 -262144
-1 -1 8400 1;
#X obj 1014 489 knob 32 32 0 1000 0 0 empty empty empty 0 -8 0 8 -262144
-1 -1 0 1;
#X obj 1045 319 bng 32 250 50 0 empty empty empty 17 7 0 10 -262144
-1 -1;
#N canvas 316 423 450 300 q 0;
#X floatatom 111 133 5 0 0 0 - - -;
#X floatatom 153 133 5 0 0 0 - - -;
#X obj 111 162 osc~;
#X obj 89 189 *~;
#X obj 153 162 / 767;
#X floatatom 153 188 5 0 0 0 - - -;
#X obj 88 213 *~ 1;
#X obj 87 102 readsf~;
#X obj 81 40 inlet;
#X obj 122 40 inlet;
#X obj 163 40 inlet;
#X obj 88 241 outlet~;
#X msg 86 77 open Atari_2700_No_Env_163.wav \, 1;
#X connect 0 0 2 0;
#X connect 1 0 4 0;
#X connect 2 0 3 1;
#X connect 3 0 6 0;
#X connect 4 0 5 0;
#X connect 5 0 6 1;
#X connect 6 0 11 0;
#X connect 7 0 3 0;
#X connect 8 0 12 0;
#X connect 9 0 0 0;
#X connect 10 0 1 0;
#X connect 12 0 7 0;
#X restore 1044 532 pd q;
#X obj 1045 353 vsl 32 128 0 2500 0 0 empty empty empty 0 -9 0 10 -262144
-1 -1 0 1;
#X obj 1046 489 knob 32 32 0 1000 0 0 empty empty empty 0 -8 0 8 -262144
-1 -1 0 1;
#X obj 1094 319 bng 32 250 50 0 empty empty empty 17 7 0 10 -262144
-1 -1;
#N canvas 316 423 450 300 q 0;
#X floatatom 111 133 5 0 0 0 - - -;
#X floatatom 153 133 5 0 0 0 - - -;
#X obj 111 162 osc~;
#X obj 89 189 *~;
#X obj 153 162 / 767;
#X floatatom 153 188 5 0 0 0 - - -;
#X obj 88 213 *~ 1;
#X obj 87 102 readsf~;
#X obj 81 40 inlet;
#X obj 122 40 inlet;
#X obj 163 40 inlet;
#X obj 88 241 outlet~;
#X msg 86 77 open Atari_2700_No_Env_163.wav \, 1;
#X connect 0 0 2 0;
#X connect 1 0 4 0;
#X connect 2 0 3 1;
#X connect 3 0 6 0;
#X connect 4 0 5 0;
#X connect 5 0 6 1;
#X connect 6 0 11 0;
#X connect 7 0 3 0;
#X connect 8 0 12 0;
#X connect 9 0 0 0;
#X connect 10 0 1 0;
#X connect 12 0 7 0;
#X restore 1093 532 pd q;
#X obj 1094 353 vsl 32 128 0 2500 0 0 empty empty empty 0 -9 0 10 -204786
-1 -1 0 1;
#X obj 1095 489 knob 32 32 0 1000 0 0 empty empty empty 0 -8 0 8 -262144
-1 -1 0 1;
#X obj 1126 319 bng 32 250 50 0 empty empty empty 17 7 0 10 -262144
-1 -1;
#N canvas 316 423 450 300 q 0;
#X floatatom 111 133 5 0 0 0 - - -;
#X floatatom 153 133 5 0 0 0 - - -;
#X obj 111 162 osc~;
#X obj 89 189 *~;
#X obj 153 162 / 767;
#X floatatom 153 188 5 0 0 0 - - -;
#X obj 88 213 *~ 1;
#X obj 87 102 readsf~;
#X obj 81 40 inlet;
#X obj 122 40 inlet;
#X obj 163 40 inlet;
#X obj 88 241 outlet~;
#X msg 86 77 open Atari_2700_No_Env_163.wav \, 1;
#X connect 0 0 2 0;
#X connect 1 0 4 0;
#X connect 2 0 3 1;
#X connect 3 0 6 0;
#X connect 4 0 5 0;
#X connect 5 0 6 1;
#X connect 6 0 11 0;
#X connect 7 0 3 0;
#X connect 8 0 12 0;
#X connect 9 0 0 0;
#X connect 10 0 1 0;
#X connect 12 0 7 0;
#X restore 1125 532 pd q;
#X obj 1126 353 vsl 32 128 0 2500 0 0 empty empty empty 0 -9 0 10 -262144
-1 -1 0 1;
#X obj 1127 489 knob 32 32 0 1000 0 0 empty empty empty 0 -8 0 8 -262144
-1 -1 0 1;
#X obj 1158 319 bng 32 250 50 0 empty empty empty 17 7 0 10 -262144
-1 -1;
#N canvas 316 423 450 300 q 0;
#X floatatom 111 133 5 0 0 0 - - -;
#X floatatom 153 133 5 0 0 0 - - -;
#X obj 111 162 osc~;
#X obj 89 189 *~;
#X obj 153 162 / 767;
#X floatatom 153 188 5 0 0 0 - - -;
#X obj 88 213 *~ 1;
#X obj 87 102 readsf~;
#X obj 81 40 inlet;
#X obj 122 40 inlet;
#X obj 163 40 inlet;
#X obj 88 241 outlet~;
#X msg 86 77 open Atari_2700_No_Env_163.wav \, 1;
#X connect 0 0 2 0;
#X connect 1 0 4 0;
#X connect 2 0 3 1;
#X connect 3 0 6 0;
#X connect 4 0 5 0;
#X connect 5 0 6 1;
#X connect 6 0 11 0;
#X connect 7 0 3 0;
#X connect 8 0 12 0;
#X connect 9 0 0 0;
#X connect 10 0 1 0;
#X connect 12 0 7 0;
#X restore 1157 532 pd q;
#X obj 1158 353 vsl 32 128 0 2500 0 0 empty empty empty 0 -9 0 10 -262144
-1 -1 0 1;
#X obj 1159 489 knob 32 32 0 1000 0 0 empty empty empty 0 -8 0 8 -262144
-1 -1 0 1;
#X obj 1190 319 bng 32 250 50 0 empty empty empty 17 7 0 10 -262144
-1 -1;
#N canvas 316 423 450 300 q 0;
#X floatatom 111 133 5 0 0 0 - - -;
#X floatatom 153 133 5 0 0 0 - - -;
#X obj 111 162 osc~;
#X obj 89 189 *~;
#X obj 153 162 / 767;
#X floatatom 153 188 5 0 0 0 - - -;
#X obj 88 213 *~ 1;
#X obj 87 102 readsf~;
#X obj 81 40 inlet;
#X obj 122 40 inlet;
#X obj 163 40 inlet;
#X obj 88 241 outlet~;
#X msg 86 77 open Atari_2700_No_Env_163.wav \, 1;
#X connect 0 0 2 0;
#X connect 1 0 4 0;
#X connect 2 0 3 1;
#X connect 3 0 6 0;
#X connect 4 0 5 0;
#X connect 5 0 6 1;
#X connect 6 0 11 0;
#X connect 7 0 3 0;
#X connect 8 0 12 0;
#X connect 9 0 0 0;
#X connect 10 0 1 0;
#X connect 12 0 7 0;
#X restore 1189 532 pd q;
#X obj 1190 353 vsl 32 128 0 2500 0 0 empty empty empty 0 -9 0 10 -262144
-1 -1 0 1;
#X obj 1191 489 knob 32 32 0 1000 0 0 empty empty empty 0 -8 0 8 -262144
-1 -1 0 1;
#X text 1231 497 vol;
#N canvas 475 305 450 300 record 0;
#X obj 91 233 writesf~;
#X obj 57 189 *~ 1;
#X obj 58 161 adc~;
#X msg 124 197 stop;
#X obj 95 40 inlet;
#X text 102 54 rec;
#X obj 143 39 inlet;
#X text 148 54 rec stop;
#X msg 96 103 open Atari_2700_No_Env_163.wav \, start;
#X connect 1 0 0 0;
#X connect 2 0 1 0;
#X connect 3 0 0 0;
#X connect 4 0 8 0;
#X connect 6 0 3 0;
#X connect 8 0 0 0;
#X restore 967 158 pd record;
#X obj 967 123 bng 32 250 50 0 empty empty empty 17 7 0 10 -262144
-1 -1;
#X obj 1001 123 bng 32 250 50 0 empty empty empty 17 7 0 10 -262144
-1 -1;
#X obj 890 218 bng 15 250 50 0 empty empty empty 17 7 0 10 -262144
-1 -1;
#X text 599 609 Lomz Live! 2014;
#X text 511 27 First clik on Record and then stop;
#X text 354 99 Rec;
#X text 391 98 Stop;
#X text 966 101 Rec;
#X text 1003 100 Stop;
#X connect 0 0 2 0;
#X connect 3 0 2 1;
#X connect 4 0 5 0;
#X connect 4 0 88 0;
#X connect 5 0 16 0;
#X connect 6 0 16 4;
#X connect 7 0 10 0;
#X connect 8 0 9 0;
#X connect 9 0 6 0;
#X connect 9 0 7 0;
#X connect 10 0 9 1;
#X connect 12 0 5 1;
#X connect 12 0 14 0;
#X connect 16 0 17 0;
#X connect 17 0 0 0;
#X connect 17 1 19 0;
#X connect 17 2 23 0;
#X connect 17 3 27 0;
#X connect 17 4 31 0;
#X connect 17 5 35 0;
#X connect 17 6 39 0;
#X connect 17 7 43 0;
#X connect 17 8 47 0;
#X connect 17 9 51 0;
#X connect 17 10 55 0;
#X connect 17 11 59 0;
#X connect 17 12 63 0;
#X connect 17 13 67 0;
#X connect 17 14 71 0;
#X connect 17 15 75 0;
#X connect 18 0 2 2;
#X connect 19 0 20 0;
#X connect 20 0 1 0;
#X connect 20 0 1 1;
#X connect 21 0 20 1;
#X connect 22 0 20 2;
#X connect 23 0 24 0;
#X connect 24 0 1 0;
#X connect 24 0 1 1;
#X connect 25 0 24 1;
#X connect 26 0 24 2;
#X connect 27 0 28 0;
#X connect 28 0 1 0;
#X connect 28 0 1 1;
#X connect 29 0 28 1;
#X connect 30 0 28 2;
#X connect 31 0 32 0;
#X connect 32 0 1 0;
#X connect 32 0 1 1;
#X connect 33 0 32 1;
#X connect 34 0 32 2;
#X connect 35 0 36 0;
#X connect 36 0 1 0;
#X connect 36 0 1 1;
#X connect 37 0 36 1;
#X connect 38 0 36 2;
#X connect 39 0 40 0;
#X connect 40 0 1 0;
#X connect 40 0 1 1;
#X connect 41 0 40 1;
#X connect 42 0 40 2;
#X connect 43 0 44 0;
#X connect 44 0 1 0;
#X connect 44 0 1 1;
#X connect 45 0 44 1;
#X connect 46 0 44 2;
#X connect 47 0 48 0;
#X connect 48 0 1 0;
#X connect 48 0 1 1;
#X connect 49 0 48 1;
#X connect 50 0 48 2;
#X connect 51 0 52 0;
#X connect 52 0 1 0;
#X connect 52 0 1 1;
#X connect 53 0 52 1;
#X connect 54 0 52 2;
#X connect 55 0 56 0;
#X connect 56 0 1 0;
#X connect 56 0 1 1;
#X connect 57 0 56 1;
#X connect 58 0 56 2;
#X connect 59 0 60 0;
#X connect 60 0 1 0;
#X connect 60 0 1 1;
#X connect 61 0 60 1;
#X connect 62 0 60 2;
#X connect 63 0 64 0;
#X connect 64 0 1 0;
#X connect 64 0 1 1;
#X connect 65 0 64 1;
#X connect 66 0 64 2;
#X connect 67 0 68 0;
#X connect 68 0 1 0;
#X connect 68 0 1 1;
#X connect 69 0 68 1;
#X connect 70 0 68 2;
#X connect 71 0 72 0;
#X connect 72 0 1 0;
#X connect 72 0 1 1;
#X connect 73 0 72 1;
#X connect 74 0 72 2;
#X connect 75 0 76 0;
#X connect 76 0 1 0;
#X connect 76 0 1 1;
#X connect 77 0 76 1;
#X connect 78 0 76 2;
#X connect 81 0 80 0;
#X connect 82 0 80 1;
#X connect 83 0 16 1;
#X connect 84 0 86 0;
#X connect 87 0 86 1;
#X connect 88 0 98 0;
#X connect 89 0 98 4;
#X connect 90 0 93 0;
#X connect 91 0 92 0;
#X connect 92 0 89 0;
#X connect 92 0 90 0;
#X connect 93 0 92 1;
#X connect 95 0 88 1;
#X connect 95 0 97 0;
#X connect 98 0 99 0;
#X connect 99 0 84 0;
#X connect 99 1 101 0;
#X connect 99 2 105 0;
#X connect 99 3 109 0;
#X connect 99 4 113 0;
#X connect 99 5 117 0;
#X connect 99 6 121 0;
#X connect 99 7 125 0;
#X connect 99 8 129 0;
#X connect 99 9 133 0;
#X connect 99 10 137 0;
#X connect 99 11 141 0;
#X connect 99 12 145 0;
#X connect 99 13 149 0;
#X connect 99 14 153 0;
#X connect 99 15 157 0;
#X connect 100 0 86 2;
#X connect 101 0 102 0;
#X connect 102 0 85 0;
#X connect 102 0 85 1;
#X connect 103 0 102 1;
#X connect 104 0 102 2;
#X connect 105 0 106 0;
#X connect 106 0 85 0;
#X connect 106 0 85 1;
#X connect 107 0 106 1;
#X connect 108 0 106 2;
#X connect 109 0 110 0;
#X connect 110 0 85 0;
#X connect 110 0 85 1;
#X connect 111 0 110 1;
#X connect 112 0 110 2;
#X connect 113 0 114 0;
#X connect 114 0 85 0;
#X connect 114 0 85 1;
#X connect 115 0 114 1;
#X connect 116 0 114 2;
#X connect 117 0 118 0;
#X connect 118 0 85 0;
#X connect 118 0 85 1;
#X connect 119 0 118 1;
#X connect 120 0 118 2;
#X connect 121 0 122 0;
#X connect 122 0 85 0;
#X connect 122 0 85 1;
#X connect 123 0 122 1;
#X connect 124 0 122 2;
#X connect 125 0 126 0;
#X connect 126 0 85 0;
#X connect 126 0 85 1;
#X connect 127 0 126 1;
#X connect 128 0 126 2;
#X connect 129 0 130 0;
#X connect 130 0 85 0;
#X connect 130 0 85 1;
#X connect 131 0 130 1;
#X connect 132 0 130 2;
#X connect 133 0 134 0;
#X connect 134 0 85 0;
#X connect 134 0 85 1;
#X connect 135 0 134 1;
#X connect 136 0 134 2;
#X connect 137 0 138 0;
#X connect 138 0 85 0;
#X connect 138 0 85 1;
#X connect 139 0 138 1;
#X connect 140 0 138 2;
#X connect 141 0 142 0;
#X connect 142 0 85 0;
#X connect 142 0 85 1;
#X connect 143 0 142 1;
#X connect 144 0 142 2;
#X connect 145 0 146 0;
#X connect 146 0 85 0;
#X connect 146 0 85 1;
#X connect 147 0 146 1;
#X connect 148 0 146 2;
#X connect 149 0 150 0;
#X connect 150 0 85 0;
#X connect 150 0 85 1;
#X connect 151 0 150 1;
#X connect 152 0 150 2;
#X connect 153 0 154 0;
#X connect 154 0 85 0;
#X connect 154 0 85 1;
#X connect 155 0 154 1;
#X connect 156 0 154 2;
#X connect 157 0 158 0;
#X connect 158 0 85 0;
#X connect 158 0 85 1;
#X connect 159 0 158 1;
#X connect 160 0 158 2;
#X connect 163 0 162 0;
#X connect 164 0 162 1;
#X connect 165 0 98 1;
